<svg id="グループ_13782" data-name="グループ 13782" xmlns="http://www.w3.org/2000/svg" width="56" height="62" viewBox="0 0 56 62">
  <path id="長方形_24429" data-name="長方形 24429" d="M3,0H48a3,3,0,0,1,3,3V18a0,0,0,0,1,0,0H0a0,0,0,0,1,0,0V3A3,3,0,0,1,3,0Z" transform="translate(5 11.799)" fill="#fff"/>
  <path id="calendar_month_24dp_FILL0_wght100_GRAD0_opsz24" d="M177.254-778a5.1,5.1,0,0,1-3.766-1.489A5.1,5.1,0,0,1,172-783.254v-43.435a5.1,5.1,0,0,1,1.489-3.766,5.1,5.1,0,0,1,3.766-1.489h7.006V-840h2.8v8.057h24.169V-840h2.452v8.057h7.006a5.1,5.1,0,0,1,3.766,1.489,5.1,5.1,0,0,1,1.489,3.766v43.435a5.1,5.1,0,0,1-1.489,3.766A5.1,5.1,0,0,1,220.689-778Zm0-2.452h43.435a2.678,2.678,0,0,0,1.927-.876,2.678,2.678,0,0,0,.876-1.927v-29.424h-49.04v29.424a2.678,2.678,0,0,0,.876,1.927A2.678,2.678,0,0,0,177.254-780.452Zm-2.8-34.678h49.04v-11.559a2.678,2.678,0,0,0-.876-1.927,2.678,2.678,0,0,0-1.927-.876H177.254a2.678,2.678,0,0,0-1.927.876,2.678,2.678,0,0,0-.876,1.927Zm0,0v0Zm24.52,14.362a2.349,2.349,0,0,1-1.708-.744,2.349,2.349,0,0,1-.744-1.708,2.349,2.349,0,0,1,.744-1.708,2.349,2.349,0,0,1,1.708-.744,2.349,2.349,0,0,1,1.708.744,2.349,2.349,0,0,1,.744,1.708,2.349,2.349,0,0,1-.744,1.708A2.349,2.349,0,0,1,198.972-800.768Zm-14.011,0a2.349,2.349,0,0,1-1.708-.744,2.349,2.349,0,0,1-.744-1.708,2.349,2.349,0,0,1,.744-1.708,2.349,2.349,0,0,1,1.708-.744,2.349,2.349,0,0,1,1.708.744,2.349,2.349,0,0,1,.744,1.708,2.349,2.349,0,0,1-.744,1.708A2.349,2.349,0,0,1,184.96-800.768Zm28.023,0a2.349,2.349,0,0,1-1.708-.744,2.349,2.349,0,0,1-.744-1.708,2.349,2.349,0,0,1,.744-1.708,2.349,2.349,0,0,1,1.708-.744,2.349,2.349,0,0,1,1.708.744,2.349,2.349,0,0,1,.744,1.708,2.349,2.349,0,0,1-.744,1.708A2.349,2.349,0,0,1,212.983-800.768Zm-14.011,13.311a2.349,2.349,0,0,1-1.708-.744,2.349,2.349,0,0,1-.744-1.708,2.349,2.349,0,0,1,.744-1.708,2.349,2.349,0,0,1,1.708-.744,2.349,2.349,0,0,1,1.708.744,2.349,2.349,0,0,1,.744,1.708,2.349,2.349,0,0,1-.744,1.708A2.349,2.349,0,0,1,198.972-787.458Zm-14.011,0a2.349,2.349,0,0,1-1.708-.744,2.349,2.349,0,0,1-.744-1.708,2.349,2.349,0,0,1,.744-1.708,2.349,2.349,0,0,1,1.708-.744,2.349,2.349,0,0,1,1.708.744,2.349,2.349,0,0,1,.744,1.708,2.349,2.349,0,0,1-.744,1.708A2.349,2.349,0,0,1,184.96-787.458Zm28.023,0a2.349,2.349,0,0,1-1.708-.744,2.349,2.349,0,0,1-.744-1.708,2.349,2.349,0,0,1,.744-1.708,2.349,2.349,0,0,1,1.708-.744,2.349,2.349,0,0,1,1.708.744,2.349,2.349,0,0,1,.744,1.708,2.349,2.349,0,0,1-.744,1.708A2.349,2.349,0,0,1,212.983-787.458Z" transform="translate(-172 840)" fill="#555"/>
</svg>
