<svg id="グループ_16" data-name="グループ 16" xmlns="http://www.w3.org/2000/svg" width="40.938" height="40.938" viewBox="0 0 40.938 40.938">
  <g id="長方形_3745" data-name="長方形 3745" transform="translate(0)" fill="none" stroke="#fff" stroke-width="1">
    <rect width="40.938" height="40.938" rx="20" stroke="none"/>
    <rect x="0.5" y="0.5" width="39.938" height="39.938" rx="19.5" fill="none"/>
  </g>
  <g id="Instagram_logo" data-name="Instagram logo" transform="translate(10.551 10.316)">
    <path id="パス_11" data-name="パス 11" d="M18.416,0H9.982a5.72,5.72,0,0,0-5.7,5.739v8.829a5.72,5.72,0,0,0,5.7,5.739h8.434a5.72,5.72,0,0,0,5.7-5.739V5.739A5.72,5.72,0,0,0,18.416,0ZM6.305,5.739a3.693,3.693,0,0,1,3.677-3.7h8.434a3.693,3.693,0,0,1,3.677,3.7v8.829a3.693,3.693,0,0,1-3.677,3.7H9.982a3.693,3.693,0,0,1-3.677-3.7Z" transform="translate(-4.281)" fill="#fff"/>
    <path id="パス_12" data-name="パス 12" d="M129.344,134.6a5.23,5.23,0,1,0-5.2-5.229A5.218,5.218,0,0,0,129.344,134.6Zm0-8.829a3.6,3.6,0,1,1-3.576,3.6A3.592,3.592,0,0,1,129.344,125.775Z" transform="translate(-119.426 -119.221)" fill="#fff"/>
    <ellipse id="楕円形_3" data-name="楕円形 3" cx="1.164" cy="1.172" rx="1.164" ry="1.172" transform="translate(14.102 3.6)" fill="#fff"/>
  </g>
</svg>
