<svg id="グループ_32285" data-name="グループ 32285" xmlns="http://www.w3.org/2000/svg" xmlns:xlink="http://www.w3.org/1999/xlink" width="265.354" height="20.236" viewBox="0 0 265.354 20.236">
  <defs>
    <clipPath id="clip-path">
      <rect id="長方形_24463" data-name="長方形 24463" width="265.354" height="20.236" fill="none"/>
    </clipPath>
  </defs>
  <rect id="長方形_24462" data-name="長方形 24462" width="20.236" height="20.236" fill="#003e92"/>
  <path id="パス_52643" data-name="パス 52643" d="M49.414,13.617l-3.308,2.716,1.123-2.716Z" transform="translate(-29.959 -8.848)" fill="#f99900"/>
  <g id="グループ_32286" data-name="グループ 32286">
    <g id="グループ_32285-2" data-name="グループ 32285" clip-path="url(#clip-path)">
      <path id="パス_52644" data-name="パス 52644" d="M9.363,19.405a.262.262,0,0,0-.015-.083l0,0L7.231,13.733h0a.225.225,0,0,0-.206-.147H3.845a.236.236,0,0,0-.226.244.255.255,0,0,0,.015.082l0,0L5.75,19.5h0a.226.226,0,0,0,.208.153H9.138a.235.235,0,0,0,.225-.244" transform="translate(-2.451 -8.827)" fill="#fff"/>
      <path id="パス_52645" data-name="パス 52645" d="M27.244,13.912a.257.257,0,0,0,.015-.082.235.235,0,0,0-.225-.244H22.294a.225.225,0,0,0-.206.147h0l-4.2,11.1a.51.51,0,0,0-.014.086.236.236,0,0,0,.225.245l7.708-.007-2.356-1.209,3.8-10.036Z" transform="translate(-12.105 -8.827)" fill="#fff"/>
      <path id="パス_52646" data-name="パス 52646" d="M101.319,12.8a13.487,13.487,0,0,0-1,2.777,10.78,10.78,0,0,1-1.2-2.115c.017.57.034,1.011.034,1.839v3.843a23.36,23.36,0,0,0,.1,2.372H96.558c.068-.68.1-1.452.1-2.372V16.922c0-.809.017-1.71.051-2.188a10.151,10.151,0,0,1-.729,1.784,11.771,11.771,0,0,1-.8,1.4,14.821,14.821,0,0,0-.983-3.108A13.812,13.812,0,0,0,96.44,9.843H95.9a5.813,5.813,0,0,0-1.254.092V7.195a5.968,5.968,0,0,0,1.288.092h.712V6.073a11.9,11.9,0,0,0-.1-1.912h2.711a14.434,14.434,0,0,0-.1,1.912V7.287h.729a5.874,5.874,0,0,0,1.034-.092V9.916a6.4,6.4,0,0,0-1-.074h-.644a9.342,9.342,0,0,0,2.05,2.961V6.515c0-.588-.017-1.066-.068-1.912.593.055,1.084.074,1.694.074h5.117c.678,0,1.237-.037,1.643-.074-.051.625-.068,1.2-.068,1.894V19.019c0,.9.034,1.765.1,2.427h-2.66v-.809h-3.2v.828h-2.661c.068-.7.1-1.6.1-2.446Zm2.559-3.586h3.2V7.269h-3.2Zm0,4.432h3.2v-2h-3.2Zm0,4.413h3.2V16.077h-3.2Z" transform="translate(-63.804 -2.704)" fill="#1a1311"/>
      <path id="パス_52647" data-name="パス 52647" d="M151.883,14.592a31.668,31.668,0,0,1-.525,5.866l-1.66-.993a21.414,21.414,0,0,0,.508-5.057Zm-2.1-3.163a4.168,4.168,0,0,0,.9.074c.1,0,.22,0,.593-.019.22-.331.271-.4.525-.772a23.168,23.168,0,0,0-2.067-2.74l1.1-2.317.475.589a14.177,14.177,0,0,0,.983-2.556l2.237.846c-.118.221-.169.312-.39.79-.407.864-.983,1.968-1.423,2.685.2.294.2.294.39.552a17.887,17.887,0,0,0,1.508-2.905l1.643.956v-1.6a14.511,14.511,0,0,0,2.033.11h1.237a7.75,7.75,0,0,0-.085-1.232h2.677a5.627,5.627,0,0,0-.1,1.232h1.609a14.582,14.582,0,0,0,2.017-.11V7.494a16.1,16.1,0,0,0-1.949-.074h-1.677v.791h1.356a14.316,14.316,0,0,0,1.779-.074v2.354a13.5,13.5,0,0,0-1.762-.074h-5a13.644,13.644,0,0,0-1.779.074V8.137a14.468,14.468,0,0,0,1.8.074h1.118V7.42h-1.288a17.338,17.338,0,0,0-1.983.074V7.273q-.737,1.241-1.677,2.7l1.186-.459a29.337,29.337,0,0,1,.8,3.144v-.239a12.755,12.755,0,0,0-.051-1.416,11.369,11.369,0,0,0,1.44.055h6.167a10.01,10.01,0,0,0,1.457-.074A10.29,10.29,0,0,0,165.5,12.4v1.1a12.039,12.039,0,0,0,.085,1.526h-2.44v3.108c0,.2.051.276.254.276.288,0,.407-.092.441-.349a17.641,17.641,0,0,0,.068-1.986,7.525,7.525,0,0,0,2.05.827,9.88,9.88,0,0,1-.44,3.126c-.288.68-.9.9-2.524.9-1.694,0-2.169-.386-2.169-1.765V14.9a6.169,6.169,0,0,0-.068-1.067h2.372v-.588h-4.388v.588l1.576.018a9.98,9.98,0,0,0-.085,1.471,6.934,6.934,0,0,1-1.152,3.843,6.382,6.382,0,0,1-2.457,1.986,9.937,9.937,0,0,0-.881-1.857l-.729.147a41.9,41.9,0,0,0-.254-4.781l1.3-.294c.152,1.214.271,2.666.3,3.861,1.085-.717,1.457-1.489,1.542-3.2h-1.406a11.923,11.923,0,0,0,.051-1.324l-1.321.533a6.1,6.1,0,0,1-.085-.644c-.458.055-.458.055-.678.074v5.535a12.2,12.2,0,0,0,.1,2.023h-2.44a12.739,12.739,0,0,0,.1-2.023V13.819c-.254.018-.475.036-.61.036-.322.019-.525.037-.61.037a4.5,4.5,0,0,0-1.034.129Zm3.812-.019c.44-.018.44-.018,1.118-.055a8.166,8.166,0,0,0-.3-1.14c-.356.552-.458.7-.814,1.195" transform="translate(-101.39 -2.396)" fill="#1a1311"/>
      <path id="パス_52648" data-name="パス 52648" d="M213.109,7.468c-1.474.11-2.83.166-5.033.2a11.128,11.128,0,0,0-.813-2.556H208.4a49.033,49.033,0,0,0,8.353-.643,10.517,10.517,0,0,0,2.338-.625L220.9,6.457a44.347,44.347,0,0,1-5.1.791V8.94h2.948a19.827,19.827,0,0,0,2.423-.11v2.795c-.661-.055-1.373-.092-2.389-.092H215.8v1.581h3.829A19.061,19.061,0,0,0,222,13v2.832a19.444,19.444,0,0,0-2.372-.11H215.8v2.942c0,1.011-.237,1.6-.729,1.913a4.9,4.9,0,0,1-2.05.423h-.254c-.017,0-.2-.019-.407-.019-.44,0-.525,0-1.88-.092a7.853,7.853,0,0,0-.712-2.721,24.547,24.547,0,0,0,2.711.2c.474,0,.627-.129.627-.589V15.725h-4.253a19.529,19.529,0,0,0-2.355.11V13a18.95,18.95,0,0,0,2.355.11h4.253V11.532h-3.3c-.915,0-1.712.037-2.423.092V8.829a19.626,19.626,0,0,0,2.423.11h3.3Z" transform="translate(-139.864 -2.499)" fill="#1a1311"/>
      <path id="パス_52649" data-name="パス 52649" d="M263.182,14.592a31.673,31.673,0,0,1-.525,5.866L261,19.465a21.427,21.427,0,0,0,.508-5.057Zm-2.1-3.163a4.168,4.168,0,0,0,.9.074c.1,0,.22,0,.593-.019.22-.331.271-.4.525-.772a23.167,23.167,0,0,0-2.067-2.74l1.1-2.317.475.589a14.179,14.179,0,0,0,.983-2.556l2.237.846c-.118.221-.169.312-.389.79-.407.864-.983,1.968-1.423,2.685.2.294.2.294.39.552a17.857,17.857,0,0,0,1.508-2.905l1.643.956v-1.6a14.512,14.512,0,0,0,2.033.11h1.237a7.747,7.747,0,0,0-.085-1.232h2.677a5.628,5.628,0,0,0-.1,1.232h1.609a14.576,14.576,0,0,0,2.017-.11V7.494a16.1,16.1,0,0,0-1.949-.074h-1.677v.791h1.355a14.316,14.316,0,0,0,1.779-.074v2.354a13.5,13.5,0,0,0-1.762-.074h-5a13.634,13.634,0,0,0-1.779.074V8.137a14.459,14.459,0,0,0,1.8.074h1.118V7.42h-1.288a17.339,17.339,0,0,0-1.983.074V7.273q-.737,1.241-1.677,2.7l1.186-.459a29.422,29.422,0,0,1,.8,3.144v-.239a12.763,12.763,0,0,0-.051-1.416,11.369,11.369,0,0,0,1.44.055h6.167a10.01,10.01,0,0,0,1.457-.074A10.288,10.288,0,0,0,276.8,12.4v1.1a12.04,12.04,0,0,0,.085,1.526h-2.44v3.108c0,.2.051.276.254.276.288,0,.407-.092.441-.349a17.644,17.644,0,0,0,.068-1.986,7.524,7.524,0,0,0,2.05.827,9.88,9.88,0,0,1-.44,3.126c-.288.68-.9.9-2.524.9-1.694,0-2.169-.386-2.169-1.765V14.9a6.166,6.166,0,0,0-.068-1.067h2.372v-.588h-4.388v.588l1.576.018a9.96,9.96,0,0,0-.085,1.471,6.934,6.934,0,0,1-1.152,3.843,6.382,6.382,0,0,1-2.457,1.986,9.939,9.939,0,0,0-.881-1.857l-.729.147a41.917,41.917,0,0,0-.254-4.781l1.3-.294c.153,1.214.271,2.666.3,3.861,1.085-.717,1.457-1.489,1.542-3.2h-1.406a11.931,11.931,0,0,0,.051-1.324l-1.321.533a6.1,6.1,0,0,1-.085-.644c-.458.055-.458.055-.678.074v5.535a12.2,12.2,0,0,0,.1,2.023h-2.44a12.735,12.735,0,0,0,.1-2.023V13.819c-.254.018-.475.036-.61.036-.322.019-.525.037-.61.037a4.5,4.5,0,0,0-1.034.129Zm3.812-.019c.44-.018.44-.018,1.118-.055a8.164,8.164,0,0,0-.3-1.14c-.356.552-.458.7-.813,1.195" transform="translate(-176.774 -2.396)" fill="#1a1311"/>
      <path id="パス_52650" data-name="パス 52650" d="M323.414,5.849a9.653,9.653,0,0,0-.085-1.637h2.948a9.518,9.518,0,0,0-.085,1.637v.386h4.066a18.774,18.774,0,0,0,2.355-.11V8.938a18.648,18.648,0,0,0-2.338-.11h-4.083v1.747h2.288a6.622,6.622,0,0,0,1.423-.092l1.508,1.655c-.2.276-.2.276-.881,1.342a18.209,18.209,0,0,1-2.982,3.494,14.511,14.511,0,0,0,5.473,1.508,16.232,16.232,0,0,0-1.2,3.052,18.12,18.12,0,0,1-6.76-2.684,19.426,19.426,0,0,1-6.913,2.629,12.981,12.981,0,0,0-1.237-2.795,18.312,18.312,0,0,0,5.829-1.618,19.079,19.079,0,0,1-2.575-3.126l1.932-.846h-1.457a19.1,19.1,0,0,0-2.2.11v-2.74a18.855,18.855,0,0,0,2.287.11h2.694V8.828h-3.829a18.837,18.837,0,0,0-2.338.11V6.125a19.142,19.142,0,0,0,2.355.11h3.812Zm-.694,7.245a10.479,10.479,0,0,0,2.423,2.519,10.4,10.4,0,0,0,2.389-2.519Z" transform="translate(-214.643 -2.737)" fill="#1a1311"/>
      <path id="パス_52651" data-name="パス 52651" d="M387.808,15.779c-.22.294-.22.294-.644.919a13.131,13.131,0,0,1-1.321,1.526,11.738,11.738,0,0,0,2.931.5,14.616,14.616,0,0,0-.983,2.667,12.776,12.776,0,0,1-4-1.526A12.051,12.051,0,0,1,380.2,21.37a8.924,8.924,0,0,0-.8-1.618,9.483,9.483,0,0,1-1.356,1.416,8.149,8.149,0,0,0-1.1-1.8c-.085,1.435-.661,1.857-2.474,1.857-.322,0-.661-.018-1.3-.036a8.094,8.094,0,0,0-.542-2.629,12.458,12.458,0,0,0,1.406.091c.356,0,.44-.11.44-.552V14.988c-1.118.294-1.118.294-1.508.423l-.406-2.832a11.431,11.431,0,0,0,1.914-.276V9.693h-.525a8.964,8.964,0,0,0-1.169.074v-2.7a6.081,6.081,0,0,0,1.2.092h.491V5.886a13.319,13.319,0,0,0-.085-1.894h2.66a13.467,13.467,0,0,0-.085,1.894V7.155h.356a4.842,4.842,0,0,0,.712-.037V9.729a5.192,5.192,0,0,0-.712-.037h-.356V11.66c.356-.11.491-.165.932-.312l.017,2.519-.949.331v4.266a9.448,9.448,0,0,0,2.762-4.616,9.817,9.817,0,0,0-1.457.074V11.66a12.814,12.814,0,0,0,1.525.074h.322a6.2,6.2,0,0,0,.068-.662h-.356c-.474,0-.932.018-1.406.055V9.012a7.118,7.118,0,0,0,.932.055,6.046,6.046,0,0,0-.763-1.618l1.61-.515c-.661.037-.83.055-1.728.092a7.351,7.351,0,0,0-.712-2.189h.644c3.185,0,7.065-.459,8.268-.993l1.609,2.17c-.559.092-1.355.221-2.389.368l2.321.57a17.283,17.283,0,0,1-1.05,2.115,5.32,5.32,0,0,0,1.085-.074v2.151a15.309,15.309,0,0,0-1.678-.074h-3.9c-.034.312-.034.312-.085.662h3.9a17.687,17.687,0,0,0,2.05-.092v2.317a15.292,15.292,0,0,0-2.05-.11H382.2c-.068.239-.085.313-.136.552H385.1a8.6,8.6,0,0,0,1.474-.074ZM383.284,6.7c-1.034.092-1.084.11-2.576.2a10.5,10.5,0,0,1,.763,1.673l-1.576.5h2.593a6.993,6.993,0,0,0-.8-1.857Zm-3.3,12.265a10.657,10.657,0,0,0,1.813-.588c-.458-.441-.593-.588-.915-.938a12.305,12.305,0,0,1-.9,1.526m2.508-2.684a10.052,10.052,0,0,0,1.169.938,5.084,5.084,0,0,0,.915-.938Zm2.355-7.208a11.593,11.593,0,0,0,.983-2.685c-.83.11-.83.11-2.033.257a7.562,7.562,0,0,1,.813,1.894l-1.711.533Z" transform="translate(-252.336 -2.498)" fill="#1a1311"/>
      <path id="パス_52652" data-name="パス 52652" d="M432.852,8.488a16.564,16.564,0,0,0-.118-2.28h3.253a12.133,12.133,0,0,0-.136,2.206V9.886l5.913-.7a2.937,2.937,0,0,0,1.2-.295l1.694,1.692a2.487,2.487,0,0,0-.56,1.011,17.792,17.792,0,0,1-1.83,3.255,12.532,12.532,0,0,1-2.44,2.519,9.106,9.106,0,0,0-2.372-2.078,8.962,8.962,0,0,0,1.779-1.416,6.145,6.145,0,0,0,1.237-1.692l-4.643.589v3.935c0,1.342.034,1.637.271,1.839.186.2.8.295,1.8.295a17.629,17.629,0,0,0,5.456-.773l.1,3.439h-.271c-.423.018-.44.037-.8.073-1.626.166-3.541.295-4.524.295a11.483,11.483,0,0,1-3.253-.331,2.572,2.572,0,0,1-1.576-1.747,8.773,8.773,0,0,1-.186-2.667V13.122l-1.017.129a11.967,11.967,0,0,0-2.237.386l-.288-3.163c.322.018.542.037.627.037.237,0,1.034-.074,1.592-.129l1.322-.165Z" transform="translate(-290.774 -4.034)" fill="#1a1311"/>
      <path id="パス_52653" data-name="パス 52653" d="M483.97,8.2a24.854,24.854,0,0,1,4.659,3.6l-2,2.868a18.373,18.373,0,0,0-4.608-3.88Zm-1.779,11.419a15.907,15.907,0,0,0,5.1-1.324,10.448,10.448,0,0,0,4.964-4.542,17.512,17.512,0,0,0,1.661-3.6,11.319,11.319,0,0,0,2.491,2.464c-1.542,3.623-3.152,5.793-5.524,7.448a17.556,17.556,0,0,1-6.591,2.758c-.661.165-.763.184-1.22.331Z" transform="translate(-326.475 -5.331)" fill="#1a1311"/>
      <path id="パス_52654" data-name="パス 52654" d="M538.293,4.856c-.017.037-.254.552-.729,1.6l4.558-.055a1.753,1.753,0,0,0,1.034-.239l1.508,1.618a1.724,1.724,0,0,0-.39.79,24.509,24.509,0,0,1-3.151,7.1,16.864,16.864,0,0,1-4.117,4.156,19.283,19.283,0,0,1-2.914,1.692,10.208,10.208,0,0,0-1.982-2.758,13.734,13.734,0,0,0,5.744-3.77,18.2,18.2,0,0,0-3.151-2.28l1.779-2.317a21.744,21.744,0,0,1,3.118,2.1,13.535,13.535,0,0,0,1.457-3.365l-4.693.037a19.039,19.039,0,0,1-3.863,4.983,8.407,8.407,0,0,0-2.44-2.078,15.568,15.568,0,0,0,4.219-5.278,12.4,12.4,0,0,0,.983-2.575Z" transform="translate(-359.01 -2.737)" fill="#1a1311"/>
      <path id="パス_52655" data-name="パス 52655" d="M579.934,23.744a22.117,22.117,0,0,0,3.474.166h8.1a25.609,25.609,0,0,0,3.473-.166v3.549a30.083,30.083,0,0,0-3.49-.111h-8.065a32.9,32.9,0,0,0-3.49.111Z" transform="translate(-392.791 -15.428)" fill="#1a1311"/>
      <path id="パス_52656" data-name="パス 52656" d="M639.538,12.708h.745a10.081,10.081,0,0,0,1.728-.092v2.667a13.882,13.882,0,0,0-1.678-.074,6.788,6.788,0,0,0,1.339,1.2,16.464,16.464,0,0,0-1.033,2.5,5.571,5.571,0,0,1-1.136-1.379c.017.68.034.974.034,1.214v1.067a8.9,8.9,0,0,0,.084,1.489H636.98a10.039,10.039,0,0,0,.068-1.361v-.919c0-.276.017-.552.034-1.011a8.442,8.442,0,0,1-2.406,2.648,10.5,10.5,0,0,0-1.033-2.777,8.724,8.724,0,0,0,1.728-1.416,7.519,7.519,0,0,0,.982-1.25h-.728a13.821,13.821,0,0,0-1.694.074V12.616a10.3,10.3,0,0,0,1.745.092h1.372V11.9h-1.423a13.846,13.846,0,0,0-1.694.074V9.251a8.155,8.155,0,0,0,1.559.092,8.633,8.633,0,0,0-.373-1.526c-.39.019-.525.019-.864.055V5.187A10.561,10.561,0,0,0,636,5.279h.949a9.1,9.1,0,0,0-.085-1.324h2.846a6.736,6.736,0,0,0-.085,1.324h.695a10.082,10.082,0,0,0,1.728-.092V7.872c-.3-.037-.407-.037-.678-.055-.084.35-.3,1.251-.39,1.526a9.077,9.077,0,0,0,1.135-.092v2.722a14.648,14.648,0,0,0-1.728-.074h-.847Zm-.932-3.365a8.463,8.463,0,0,0,.356-1.544h-1.423a7.221,7.221,0,0,1,.356,1.544Zm9.759.055a7.979,7.979,0,0,0,1.542-.11V12.12a7.256,7.256,0,0,0-1.237-.073h-.2v6.785a17.984,17.984,0,0,0,.1,2.482h-2.745a18.155,18.155,0,0,0,.1-2.482V12.047h-.932a28.6,28.6,0,0,1-.475,5.259,12.281,12.281,0,0,1-1.559,4.138,10.541,10.541,0,0,0-2.406-1.637,9.4,9.4,0,0,0,1.508-3.292c.3-1.25.44-3.88.44-9.029a15.206,15.206,0,0,0-.118-2.115,16.683,16.683,0,0,0,4.32-.9,4.647,4.647,0,0,0,1.322-.625L649.959,6.4c-.305.092-.305.092-.627.2a24.45,24.45,0,0,1-4.321.993V9.4Z" transform="translate(-429.168 -2.498)" fill="#1a1311"/>
      <path id="パス_52657" data-name="パス 52657" d="M693.774,15.477a32.878,32.878,0,0,1-1.711,5.057c-.169.4-.237.57-.322.809l-2.135-2.1a9.4,9.4,0,0,0,.983-1.894,24.2,24.2,0,0,0,1.2-3.659Zm-2.643-6.859a12.522,12.522,0,0,1,2.982,2.39l-1.474,2.207a15.687,15.687,0,0,0-3-2.464Zm9.031,6.84a14.332,14.332,0,0,1,.8,3.218c.254.019.61.037.813.037.593,0,.729-.129.881-.828a17.891,17.891,0,0,0,.22-2.464,2.429,2.429,0,0,0-.017-.313h-6.3a8.572,8.572,0,0,1-.966.846l.814.276a19.368,19.368,0,0,1-.932,4.763l-2.118-1.2a15.163,15.163,0,0,0,1.152-3.678,12.688,12.688,0,0,0-1.321-1.673,6.892,6.892,0,0,0,2.677-2.188c-.508,0-.983.018-1.457.055.034-.423.051-.717.051-1.82V6.5l-1.423,2.115A14.267,14.267,0,0,0,690.1,6.154l1.576-2.1a13.84,13.84,0,0,1,2.778,2.17,10.48,10.48,0,0,0-.051-1.177A9.636,9.636,0,0,0,698.332,4l1.237,2.189v-1.6a7.5,7.5,0,0,0,1.186.074h2.271a10.746,10.746,0,0,0,1.559-.055,14.68,14.68,0,0,0-.068,1.765v4.046a18.854,18.854,0,0,0,.068,1.894,12.172,12.172,0,0,0-1.677-.055h-4.3a6.168,6.168,0,0,1-.356.644H703.7a11.287,11.287,0,0,0,1.695-.055,8.374,8.374,0,0,0-.068,1.14,24.665,24.665,0,0,1-.678,5.995c-.356.938-1.068,1.269-2.779,1.269-.339,0-.576,0-1.135-.036a8.19,8.19,0,0,0-.424-2.133l-.949.4a17.95,17.95,0,0,0-.593-3.622Zm-1.9.2a22.266,22.266,0,0,1,.508,4.266l-1.982.607c.034-.7.034-.938.034-1.453a18.09,18.09,0,0,0-.169-3.053Zm2.829-6.271a8.636,8.636,0,0,0-1.355.055V7.5a9.848,9.848,0,0,0,1.355.055h.966V6.89h-1.407a8.677,8.677,0,0,0-1.084.037V6.283a11.221,11.221,0,0,1-2.677.68v.588h.814a7.559,7.559,0,0,0,1.339-.055V9.428a11.01,11.01,0,0,0-1.339-.037h-.83v.791h5.168V9.391Zm.813,5.884a7.767,7.767,0,0,1,.8,2.188l-1.288.588a8.128,8.128,0,0,0-.712-2.335Z" transform="translate(-467.073 -2.601)" fill="#1a1311"/>
      <path id="パス_52658" data-name="パス 52658" d="M751.834,17.805a13.191,13.191,0,0,1-5.32,3.384,9.512,9.512,0,0,0-1.525-2.446,12.444,12.444,0,0,0,5.032-2.372h-1.643c-.068.312-.085.367-.187.735L745.5,17.07a26.4,26.4,0,0,0,1.152-5.774,15.521,15.521,0,0,0,1.61.055h3.473l-.017-.736h-3.558c-.712,0-1.034.019-1.491.055V8.96c-.136.11-.136.11-.407.35a7.51,7.51,0,0,0-1.423-2.152,6.329,6.329,0,0,0,2.491-3.365l2.541.386c-.152.368-.186.4-.339.754h1.745a9,9,0,0,0,1.626-.092V6.2a5.211,5.211,0,0,0,1.169-2.391l2.576.368c-.136.349-.187.46-.305.772h2.609a12.746,12.746,0,0,0,1.9-.092V7.4a11.583,11.583,0,0,0-1.762-.092h-.83c.271.459.407.68.627,1.122.373-.019.491-.019.864-.055a9.833,9.833,0,0,0-.068,1.452v2.244a10.193,10.193,0,0,0,.068,1.434c-.44-.037-.9-.055-1.593-.055H754.29l.017.736h4.642c.627,0,1.118-.019,1.525-.055-.068.5-.119,1.1-.17,2.1-.135,2.078-.423,3.034-1.034,3.457a4.792,4.792,0,0,1-2.457.423c-.254,0-.525-.019-1.016-.055a11.947,11.947,0,0,0-.593-2.482,16.1,16.1,0,0,0,1.711.129c.763,0,.814-.074.9-1.324h-3.49l.034,2.868a15,15,0,0,0,.136,2.06h-2.728a11.486,11.486,0,0,0,.085-1.655v-.423Zm-2.626-9.378a8.272,8.272,0,0,0-.492-1.14h-.559a10,10,0,0,1-.915,1.122c.322.019.508.019.915.019Zm2.558,5.02h-2.813c-.068.313-.068.313-.135.736h2.965Zm1.271-5.02a9.461,9.461,0,0,0-1.084-1.14h-.78a10.334,10.334,0,0,1,.61,1.14Zm3.2,0c-.2-.442-.339-.7-.576-1.122h-.525a7.267,7.267,0,0,1-.9,1.122Zm-1.982,2.924h2.914v-.736h-2.914Z" transform="translate(-504.48 -2.464)" fill="#1a1311"/>
      <path id="パス_52659" data-name="パス 52659" d="M802.771,6.549a10.2,10.2,0,0,0,2.033.129h2.152a15.493,15.493,0,0,0,2.1-.074c-.085.975-.119,1.747-.119,2.961V19.2a23.151,23.151,0,0,0,.136,2.777H805.38a22.886,22.886,0,0,0,.136-2.777V9.822h-.678a16.564,16.564,0,0,0-2.067.129Z" transform="translate(-543.72 -4.255)" fill="#1a1311"/>
    </g>
  </g>
</svg>
