<svg id="logo_0528" xmlns="http://www.w3.org/2000/svg" viewBox="0 0 175.926 62.115">
  <g id="グループ_13532" data-name="グループ 13532" transform="translate(26.139)">
    <path id="パス_38" data-name="パス 38" d="M182.357,112.815l-.812,5.631h-1.133l.811-5.631H179.4l.129-.9h4.706l-.129.9Z" transform="translate(-179.398 -111.3)" fill="#fff"/>
    <path id="パス_39" data-name="パス 39" d="M192.872,110.3l-.5,3.5a2.4,2.4,0,0,1,1.336-.436,1.753,1.753,0,0,1,1.089.309.942.942,0,0,1,.421.8q0,.118-.015.269c-.01.1-.023.213-.04.34l-.341,2.365h-1.093l.346-2.416a2.325,2.325,0,0,0,.03-.351q0-.533-.732-.533-1.049,0-1.222,1.214l-.3,2.086h-1.094l1.029-7.146Z" transform="translate(-186.211 -110.298)" fill="#fff"/>
    <path id="パス_40" data-name="パス 40" d="M205.875,120.732a.885.885,0,0,0,.356.723,1.649,1.649,0,0,0,2.1-.207l.816.385a2.5,2.5,0,0,1-.875.685,2.845,2.845,0,0,1-1.138.2,2.58,2.58,0,0,1-1.727-.546,1.817,1.817,0,0,1-.643-1.459,2.073,2.073,0,0,1,.708-1.6,2.54,2.54,0,0,1,1.776-.639,2.265,2.265,0,0,1,1.637.576,2.043,2.043,0,0,1,.609,1.552c0,.068-.005.178-.015.33Zm2.508-.753a1.066,1.066,0,0,0-1.192-.922,1.207,1.207,0,0,0-1.257.922Z" transform="translate(-194.623 -115.245)" fill="#fff"/>
    <path id="パス_41" data-name="パス 41" d="M231.881,111.914l-.129.9H229.11l-.243,1.684h2.642l-.119.838h-2.647l-.445,3.11h-1.133l.945-6.532Z" transform="translate(-208.07 -111.3)" fill="#fff"/>
    <path id="パス_42" data-name="パス 42" d="M240.443,114.675l-.574,3.985h-1.093l.574-3.985Zm.341-1.9a.449.449,0,0,1-.173.351.618.618,0,0,1-.415.148.627.627,0,0,1-.421-.152.491.491,0,0,1-.173-.368.445.445,0,0,1,.168-.351.611.611,0,0,1,.411-.148.618.618,0,0,1,.421.156A.46.46,0,0,1,240.785,112.779Z" transform="translate(-215.04 -111.514)" fill="#fff"/>
    <path id="パス_43" data-name="パス 43" d="M247,118.447l-.049.343a1.774,1.774,0,0,1,1.118-.448,1.453,1.453,0,0,1,.9.309l-.7.77a1.02,1.02,0,0,0-.6-.22.9.9,0,0,0-.366.07.7.7,0,0,0-.275.22,1.261,1.261,0,0,0-.193.387,3.315,3.315,0,0,0-.122.567l-.287,1.988h-1.094l.574-3.985Z" transform="translate(-218.977 -115.287)" fill="#fff"/>
    <path id="パス_44" data-name="パス 44" d="M256.985,118.845l-.618.529a1.364,1.364,0,0,0-.806-.334.694.694,0,0,0-.418.12.358.358,0,0,0-.166.3.369.369,0,0,0,.138.292,2.753,2.753,0,0,0,.579.33,2.671,2.671,0,0,1,.841.55.9.9,0,0,1,.227.639,1.079,1.079,0,0,1-.46.91,2.044,2.044,0,0,1-1.222.338,2.134,2.134,0,0,1-1.7-.791l.718-.427a1.3,1.3,0,0,0,.94.453.74.74,0,0,0,.453-.127.392.392,0,0,0,.171-.33.345.345,0,0,0-.143-.288,2.039,2.039,0,0,0-.242-.152q-.173-.1-.47-.233a2.243,2.243,0,0,1-.728-.486.935.935,0,0,1-.2-.609,1.085,1.085,0,0,1,.465-.9,1.891,1.891,0,0,1,1.182-.355A2.2,2.2,0,0,1,256.985,118.845Z" transform="translate(-223.807 -115.245)" fill="#fff"/>
    <path id="パス_45" data-name="パス 45" d="M265.728,116.468l-.45,3.118h-1.094l.451-3.118h-.618l.124-.867h.618l.267-1.849h1.094l-.267,1.849h1.009l-.124.867Z" transform="translate(-230.19 -112.44)" fill="#fff"/>
    <path id="パス_46" data-name="パス 46" d="M280.829,111.914h1.549a3.293,3.293,0,0,1,1.539.287,1.71,1.71,0,0,1,.683.656,1.862,1.862,0,0,1-.213,2.153,2.7,2.7,0,0,1-2.152.791H281.4l-.381,2.644h-1.133Zm1,.9-.307,2.128h.737a1.647,1.647,0,0,0,1.071-.307,1.08,1.08,0,0,0,.373-.886q0-.935-1.4-.935Z" transform="translate(-239.715 -111.3)" fill="#fff"/>
    <path id="パス_47" data-name="パス 47" d="M293.253,120.732a.885.885,0,0,0,.356.723,1.649,1.649,0,0,0,2.1-.207l.816.385a2.5,2.5,0,0,1-.876.685,2.843,2.843,0,0,1-1.138.2,2.582,2.582,0,0,1-1.727-.546,1.817,1.817,0,0,1-.643-1.459,2.071,2.071,0,0,1,.708-1.6,2.539,2.539,0,0,1,1.776-.639,2.265,2.265,0,0,1,1.638.576,2.043,2.043,0,0,1,.609,1.552q0,.1-.015.33Zm2.508-.753a1.066,1.066,0,0,0-1.192-.922,1.207,1.207,0,0,0-1.257.922Z" transform="translate(-247.071 -115.245)" fill="#fff"/>
    <path id="パス_48" data-name="パス 48" d="M308.012,118.461l-.049.368a2.23,2.23,0,0,1,1.311-.465,1.709,1.709,0,0,1,1.094.325,1.084,1.084,0,0,1,.4.889,5.36,5.36,0,0,1-.06.728l-.311,2.141h-1.089l.337-2.344q.02-.131.027-.232c0-.068.008-.128.008-.182q0-.542-.683-.542a1.194,1.194,0,0,0-.723.22,1.082,1.082,0,0,0-.366.423,1.43,1.43,0,0,0-.109.311c-.03.123-.056.264-.079.425l-.277,1.921h-1.094l.574-3.985Z" transform="translate(-255.6 -115.301)" fill="#fff"/>
    <path id="パス_49" data-name="パス 49" d="M325.219,118.461l-.574,4.015q-.055.359-.121.626a2.6,2.6,0,0,1-.151.449,1.73,1.73,0,0,1-.515.639,2.755,2.755,0,0,1-1.722.508,2.952,2.952,0,0,1-1.771-.491,1.375,1.375,0,0,1-.485-.559,1.894,1.894,0,0,1-.139-.808H320.8a1.137,1.137,0,0,0,.336.818,1.385,1.385,0,0,0,.921.256,1.3,1.3,0,0,0,1.469-1.282l.079-.546a2.62,2.62,0,0,1-1.455.453,2.26,2.26,0,0,1-1.569-.554,1.837,1.837,0,0,1-.618-1.413,2,2,0,0,1,.718-1.578,2.648,2.648,0,0,1,1.806-.63,2.262,2.262,0,0,1,.841.131,2.3,2.3,0,0,1,.728.461l.069-.495Zm-1.257,1.891a1.091,1.091,0,0,0-.386-.872,1.486,1.486,0,0,0-1.009-.335,1.511,1.511,0,0,0-1.079.406,1.333,1.333,0,0,0-.425,1.011,1.133,1.133,0,0,0,.366.872,1.429,1.429,0,0,0,.98.326,1.587,1.587,0,0,0,1.113-.4A1.311,1.311,0,0,0,323.963,120.352Z" transform="translate(-263.639 -115.301)" fill="#fff"/>
    <path id="パス_50" data-name="パス 50" d="M340.752,118.62l-.331,2.318a4.063,4.063,0,0,1-.1.516,2.271,2.271,0,0,1-.129.368,1.311,1.311,0,0,1-.465.5,2.573,2.573,0,0,1-1.46.373,2.28,2.28,0,0,1-1.375-.377,1.2,1.2,0,0,1-.514-1.019c0-.065,0-.141.012-.229s.02-.188.037-.3l.307-2.153h1.094l-.322,2.238c-.013.1-.023.18-.03.252s-.01.132-.01.18q0,.631.866.63a.989.989,0,0,0,.692-.207,1.213,1.213,0,0,0,.3-.728l.341-2.365Z" transform="translate(-273.625 -115.46)" fill="#fff"/>
    <path id="パス_51" data-name="パス 51" d="M351.376,114.675l-.574,3.985h-1.093l.574-3.985Zm.341-1.9a.449.449,0,0,1-.173.351.618.618,0,0,1-.415.148.627.627,0,0,1-.421-.152.491.491,0,0,1-.173-.368.445.445,0,0,1,.168-.351.612.612,0,0,1,.411-.148.618.618,0,0,1,.42.156A.46.46,0,0,1,351.718,112.779Z" transform="translate(-281.627 -111.514)" fill="#fff"/>
    <path id="パス_52" data-name="パス 52" d="M357.932,118.461l-.049.368a2.23,2.23,0,0,1,1.311-.465,1.709,1.709,0,0,1,1.094.325,1.084,1.084,0,0,1,.4.889,5.351,5.351,0,0,1-.06.728l-.312,2.141h-1.089l.337-2.344q.02-.131.027-.232c0-.068.008-.128.008-.182q0-.542-.683-.542a1.194,1.194,0,0,0-.723.22,1.082,1.082,0,0,0-.366.423,1.433,1.433,0,0,0-.109.311c-.03.123-.056.264-.079.425l-.277,1.921h-1.094l.574-3.985Z" transform="translate(-285.565 -115.301)" fill="#fff"/>
    <path id="パス_53" data-name="パス 53" d="M384.972,112.283l-.153,1.058a3.5,3.5,0,0,0-2.37-.863,2.672,2.672,0,0,0-1.96.736,2.545,2.545,0,0,0-.752,1.908,2.139,2.139,0,0,0,.722,1.718,3.032,3.032,0,0,0,2.029.613,3.321,3.321,0,0,0,1.93-.575l-.163,1.146a6.533,6.533,0,0,1-1.965.334,3.881,3.881,0,0,1-2.677-.9,3.01,3.01,0,0,1-1.014-2.377,3.279,3.279,0,0,1,1.079-2.513,3.861,3.861,0,0,1,2.722-1A5.236,5.236,0,0,1,384.972,112.283Z" transform="translate(-298.968 -111.086)" fill="#fff"/>
    <path id="パス_54" data-name="パス 54" d="M399.678,120.36a1.928,1.928,0,0,1-.742,1.536,2.729,2.729,0,0,1-1.821.622,2.822,2.822,0,0,1-1.85-.588,1.855,1.855,0,0,1-.723-1.5,1.911,1.911,0,0,1,.748-1.54,2.863,2.863,0,0,1,1.88-.618,2.718,2.718,0,0,1,1.806.584A1.848,1.848,0,0,1,399.678,120.36Zm-1.1-.047a1.134,1.134,0,0,0-.391-.91,1.487,1.487,0,0,0-1.025-.347,1.572,1.572,0,0,0-1.089.385,1.262,1.262,0,0,0-.431.977,1.21,1.21,0,0,0,.406.952,1.5,1.5,0,0,0,1.049.368,1.463,1.463,0,0,0,1.059-.4A1.346,1.346,0,0,0,398.575,120.313Z" transform="translate(-308.538 -115.245)" fill="#fff"/>
    <path id="パス_55" data-name="パス 55" d="M411.469,118.454l-.05.372a1.916,1.916,0,0,1,1.282-.474,1.351,1.351,0,0,1,.678.139,1.138,1.138,0,0,1,.426.5,2.183,2.183,0,0,1,1.494-.63q1.385,0,1.385,1.087a2.978,2.978,0,0,1-.022.309q-.022.2-.062.491l-.317,2.2H415.19l.337-2.306a3.885,3.885,0,0,0,.045-.474q0-.521-.614-.521a1.3,1.3,0,0,0-.421.062.772.772,0,0,0-.3.19,1.011,1.011,0,0,0-.208.334,2.294,2.294,0,0,0-.126.489l-.317,2.225h-1.093l.341-2.365a3.886,3.886,0,0,0,.044-.44q0-.5-.628-.5-.911,0-1.064,1.079l-.322,2.221h-1.094l.574-3.985Z" transform="translate(-317.677 -115.294)" fill="#fff"/>
    <path id="パス_56" data-name="パス 56" d="M431.058,118.461l-.059.419a2.485,2.485,0,0,1,1.489-.516,2.234,2.234,0,0,1,1.549.554,1.8,1.8,0,0,1,.619,1.4,2.056,2.056,0,0,1-.708,1.582,2.5,2.5,0,0,1-1.746.639,2.28,2.28,0,0,1-.876-.144,2.533,2.533,0,0,1-.757-.52l-.411,2.851h-1.094l.9-6.265Zm2.5,1.9a1.143,1.143,0,0,0-.356-.867,1.259,1.259,0,0,0-.91-.343,1.567,1.567,0,0,0-1.109.415,1.339,1.339,0,0,0-.445,1.02,1.062,1.062,0,0,0,.376.85,1.414,1.414,0,0,0,.969.33,1.461,1.461,0,0,0,1.049-.406A1.344,1.344,0,0,0,433.562,120.356Z" transform="translate(-329.26 -115.301)" fill="#fff"/>
    <path id="パス_57" data-name="パス 57" d="M450.555,118.461l-.574,3.985h-1.093l.064-.431a2.4,2.4,0,0,1-1.455.524,2.141,2.141,0,0,1-1.509-.537,1.8,1.8,0,0,1-.584-1.392,2.121,2.121,0,0,1,.668-1.616,2.449,2.449,0,0,1,1.737-.63,2.309,2.309,0,0,1,.851.139,2.376,2.376,0,0,1,.728.482l.074-.524Zm-1.331,1.878a1.115,1.115,0,0,0-.356-.859,1.291,1.291,0,0,0-.92-.335,1.408,1.408,0,0,0-1.029.411,1.379,1.379,0,0,0-.415,1.015,1.139,1.139,0,0,0,.346.859,1.228,1.228,0,0,0,.891.334,1.464,1.464,0,0,0,1.044-.419A1.358,1.358,0,0,0,449.224,120.34Z" transform="translate(-339.068 -115.301)" fill="#fff"/>
    <path id="パス_58" data-name="パス 58" d="M462.341,118.461l-.05.368a2.232,2.232,0,0,1,1.312-.465,1.709,1.709,0,0,1,1.093.325,1.084,1.084,0,0,1,.4.889,5.351,5.351,0,0,1-.06.728l-.312,2.141h-1.088l.336-2.344q.02-.131.027-.232c0-.068.007-.128.007-.182q0-.542-.683-.542a1.193,1.193,0,0,0-.722.22,1.079,1.079,0,0,0-.366.423,1.411,1.411,0,0,0-.109.311c-.03.123-.056.264-.079.425l-.277,1.921h-1.094l.574-3.985Z" transform="translate(-348.236 -115.301)" fill="#fff"/>
    <path id="パス_59" data-name="パス 59" d="M479.08,118.62l-4.221,6.265h-1.247l1.875-2.775-1.668-3.49h1.168l1.153,2.547,1.687-2.547Z" transform="translate(-356 -115.46)" fill="#fff"/>
  </g>
  <g id="グループ_13533" data-name="グループ 13533" transform="translate(61.036 56.231)">
    <path id="パス_60" data-name="パス 60" d="M269.257,259.446l-.7,4.88h-.982l.7-4.88h-1.582l.111-.781h4.078l-.112.781Z" transform="translate(-266.693 -258.551)" fill="#fff"/>
    <path id="パス_61" data-name="パス 61" d="M281.076,258.665l-.112.781h-2.432l-.21,1.467h2.432l-.1.726H278.22l-.274,1.906h2.431l-.116.781h-3.409l.815-5.661Z" transform="translate(-272.791 -258.551)" fill="#fff"/>
    <path id="パス_62" data-name="パス 62" d="M294.218,258.985l-.133.917a3.03,3.03,0,0,0-2.054-.748,2.317,2.317,0,0,0-1.7.638,2.2,2.2,0,0,0-.652,1.654,1.853,1.853,0,0,0,.626,1.489,2.626,2.626,0,0,0,1.758.531,2.881,2.881,0,0,0,1.673-.5l-.142.994a5.661,5.661,0,0,1-1.7.289,3.364,3.364,0,0,1-2.32-.781,2.609,2.609,0,0,1-.879-2.061,2.842,2.842,0,0,1,.935-2.178,3.349,3.349,0,0,1,2.359-.865A4.541,4.541,0,0,1,294.218,258.985Z" transform="translate(-279.9 -258.366)" fill="#fff"/>
    <path id="パス_63" data-name="パス 63" d="M309.2,258.665l-.815,5.661h-.982l.4-2.765h-2.736l-.395,2.765h-.982l.815-5.661h.977l-.317,2.218H307.9l.317-2.218Z" transform="translate(-288.902 -258.551)" fill="#fff"/>
    <path id="パス_64" data-name="パス 64" d="M329.852,261.508h2.65a3.23,3.23,0,0,1-.54,1.58,2.842,2.842,0,0,1-2.47,1.162,3.286,3.286,0,0,1-2.273-.8,2.6,2.6,0,0,1-.892-2.031,3.007,3.007,0,0,1,.3-1.309,2.876,2.876,0,0,1,.841-1.041,3.529,3.529,0,0,1,2.243-.707,3.572,3.572,0,0,1,2.714,1.14l-.639.557a2.673,2.673,0,0,0-2.093-.909,2.4,2.4,0,0,0-1.72.627,2.147,2.147,0,0,0-.664,1.624,1.931,1.931,0,0,0,.622,1.485,2.284,2.284,0,0,0,1.617.576,2.121,2.121,0,0,0,1.2-.33,1.479,1.479,0,0,0,.635-.9h-1.643Z" transform="translate(-302.488 -258.366)" fill="#fff"/>
    <path id="パス_65" data-name="パス 65" d="M346.011,261.939l1.664,2.387h-1.037L345.068,262h-.356l-.335,2.328h-.982l.815-5.661h1.3a4.1,4.1,0,0,1,1.008.1,1.533,1.533,0,0,1,1.162,1.511Q347.679,261.591,346.011,261.939Zm-.935-2.493-.257,1.819h.45a2.53,2.53,0,0,0,.742-.081.96.96,0,0,0,.437-.275.932.932,0,0,0,.24-.638.705.705,0,0,0-.289-.627,1.642,1.642,0,0,0-.911-.2Z" transform="translate(-312.733 -258.551)" fill="#fff"/>
    <path id="パス_66" data-name="パス 66" d="M362.673,261.2a2.829,2.829,0,0,1-.6,1.756,3.114,3.114,0,0,1-1.244.957,4.178,4.178,0,0,1-1.7.337,3.584,3.584,0,0,1-2.427-.81,2.8,2.8,0,0,1,.056-4.231,3.775,3.775,0,0,1,2.521-.843,3.706,3.706,0,0,1,2.457.781A2.539,2.539,0,0,1,362.673,261.2Zm-.986-.007a1.867,1.867,0,0,0-.644-1.485,2.558,2.558,0,0,0-1.728-.554,2.748,2.748,0,0,0-1.831.624,2.038,2.038,0,0,0-.052,3.087,2.509,2.509,0,0,0,1.724.6,2.6,2.6,0,0,0,1.806-.649A2.076,2.076,0,0,0,361.687,261.193Z" transform="translate(-320.158 -258.366)" fill="#fff"/>
    <path id="パス_67" data-name="パス 67" d="M380.416,258.665l-.48,3.351a3.169,3.169,0,0,1-.609,1.621,2.535,2.535,0,0,1-1.99.8,2.7,2.7,0,0,1-1.7-.528,1.631,1.631,0,0,1-.678-1.327q0-.169.015-.355c.01-.125.025-.257.045-.4l.454-3.164h.978l-.468,3.271c-.014.1-.025.188-.032.271s-.011.16-.011.231a1.128,1.128,0,0,0,.369.891,1.75,1.75,0,0,0,2.144-.084,2.494,2.494,0,0,0,.523-1.346l.463-3.234Z" transform="translate(-331.678 -258.551)" fill="#fff"/>
    <path id="パス_68" data-name="パス 68" d="M390.056,258.665H391.4a2.858,2.858,0,0,1,1.334.249,1.482,1.482,0,0,1,.592.569,1.615,1.615,0,0,1-.184,1.866,2.336,2.336,0,0,1-1.866.686h-.725l-.33,2.291h-.982Zm.866.781-.266,1.845h.639a1.432,1.432,0,0,0,.929-.266.938.938,0,0,0,.323-.768q0-.81-1.209-.81Z" transform="translate(-340.25 -258.551)" fill="#fff"/>
  </g>
  <g id="グループ_13534" data-name="グループ 13534" transform="translate(0 16.762)">
    <g id="グループ_9" data-name="グループ 9" transform="translate(58.642 0.129)">
      <g id="グループ_8" data-name="グループ 8">
        <path id="パス_69" data-name="パス 69" d="M270.849,154.777H261.43a.707.707,0,0,0-.725.689v16.553a.707.707,0,0,0,.725.689h9.4l0,0c.006,0,.01,0,.016,0a.707.707,0,0,0,.724-.689V155.465A.707.707,0,0,0,270.849,154.777Z" transform="translate(-260.705 -154.777)" fill="#fff"/>
        <path id="パス_70" data-name="パス 70" d="M320.238,154.777h-9.419a.707.707,0,0,0-.725.689v31.22a.707.707,0,0,0,.725.689h9.4l0,0c.006,0,.01,0,.016,0a.707.707,0,0,0,.725-.689v-31.22A.707.707,0,0,0,320.238,154.777Z" transform="translate(-290.351 -154.777)" fill="#fff"/>
      </g>
      <path id="パス_71" data-name="パス 71" d="M390.411,155.465a.707.707,0,0,0-.725-.689H352.633a.707.707,0,0,0-.724.689v8.945a.707.707,0,0,0,.721.688l0,0H373.56a.706.706,0,0,1,.716.687.657.657,0,0,1-.057.268h0l-1.652,3.924h0a.727.727,0,0,1-.668.42h-9.785a.707.707,0,0,0-.725.688.657.657,0,0,0,.049.232l0,.006,6.19,15.6,0,0a.719.719,0,0,0,.673.447H378.55a.707.707,0,0,0,.725-.689.647.647,0,0,0-.046-.216l.006-.008-.017-.042v0l-4.149-10.455h0a.662.662,0,0,1-.046-.241.707.707,0,0,1,.721-.687h6l.006,0a.726.726,0,0,0,.662-.422l0,0,7.94-18.865,0,0A.655.655,0,0,0,390.411,155.465Z" transform="translate(-315.45 -154.777)" fill="#fff"/>
      <path id="パス_72" data-name="パス 72" d="M498.762,155.465a.707.707,0,0,0-.725-.689h-35.4a.707.707,0,0,0-.725.689v8.948a.707.707,0,0,0,.725.689h11.431a.7.7,0,0,1,.711.685h0v.637a.706.706,0,0,1-.723.679v0H462.635a.707.707,0,0,0-.725.689v8.948a.707.707,0,0,0,.725.688h10.351a.634.634,0,0,1,.65.617.591.591,0,0,1-.046.227h0l-3.231,8.141v0l-.017.042.006.008a.644.644,0,0,0-.046.216.707.707,0,0,0,.725.689h10.247a.719.719,0,0,0,.673-.447l0,0,3.611-9.1h0a.65.65,0,0,1,.606-.4h11.866a.707.707,0,0,0,.725-.688v-8.93l0,0c0-.005,0-.01,0-.015a.707.707,0,0,0-.725-.689h-11.67v0a.706.706,0,0,1-.721-.67v-.649a.7.7,0,0,1,.71-.683h11.681a.708.708,0,0,0,.725-.689v-8.93l0,0C498.759,155.475,498.762,155.471,498.762,155.465Z" transform="translate(-381.478 -154.777)" fill="#fff"/>
    </g>
    <g id="グループ_11" data-name="グループ 11">
      <path id="パス_73" data-name="パス 73" d="M234.063,154.519l-9.8,7.644,3.327-7.644Z" transform="translate(-180.19 -154.488)" fill="#f99900"/>
      <g id="グループ_10" data-name="グループ 10">
        <path id="パス_74" data-name="パス 74" d="M132.475,170.813a.646.646,0,0,0-.05-.235l.006-.008-6.811-15.716-.006,0a.725.725,0,0,0-.663-.414H114.733a.707.707,0,0,0-.724.688.642.642,0,0,0,.049.231l-.006.008,6.806,15.7,0,0a.723.723,0,0,0,.67.43H131.75A.707.707,0,0,0,132.475,170.813Z" transform="translate(-114.009 -154.436)" fill="#fff"/>
        <path id="パス_75" data-name="パス 75" d="M181.124,155.355a.65.65,0,0,0,.049-.231.707.707,0,0,0-.724-.688H165.21a.726.726,0,0,0-.664.414l-.006,0-13.5,31.242a1.27,1.27,0,0,0-.044.242.707.707,0,0,0,.724.689l24.779-.02-7.573-3.4,12.2-28.24Z" transform="translate(-136.212 -154.436)" fill="#fff"/>
      </g>
    </g>
  </g>
</svg>
