<svg xmlns="http://www.w3.org/2000/svg" width="20.205" height="15.951" viewBox="0 0 20.205 15.951">
  <path id="mail_24dp_FILL0_wght300_GRAD0_opsz24" d="M118.283-780a1.855,1.855,0,0,1,1.364.558,1.855,1.855,0,0,1,.558,1.364v12.107a1.855,1.855,0,0,1-.558,1.364,1.855,1.855,0,0,1-1.364.558h-16.36a1.855,1.855,0,0,1-1.364-.558,1.855,1.855,0,0,1-.558-1.364v-12.107a1.855,1.855,0,0,1,.558-1.364,1.855,1.855,0,0,1,1.364-.558Zm-8.18,7.383,8.507,5.44v-10.9a.319.319,0,0,0-.092-.235.319.319,0,0,0-.235-.092h-16.36a.319.319,0,0,0-.235.092.319.319,0,0,0-.092.235v10.9Zm0,1.656-8.344,5.317h16.688Zm8.507,3.784v-10.9a.319.319,0,0,0-.092-.235.319.319,0,0,0-.235-.092h.327Z" transform="translate(120.205 -764.049) rotate(180)"/>
</svg>
