<svg xmlns="http://www.w3.org/2000/svg" xmlns:xlink="http://www.w3.org/1999/xlink" viewBox="0 0 58 64">
  <g id="マスクグループ_21" data-name="マスクグループ 21" transform="translate(-398 -2785.693)" clip-path="url(#clip-path)">
    <g id="グループ_13857" data-name="グループ 13857" transform="translate(-0.541 200.706)">
      <g id="_1107_sy_m" data-name="1107_sy_m" transform="translate(400.93 2586.89)">
        <path id="パス_6965" data-name="パス 6965" d="M41.377,13.48a26.849,26.849,0,0,0-20.23,44.532L19.93,73.007,34.5,66.33a27.587,27.587,0,0,0,6.875.905,26.878,26.878,0,1,0,0-53.755Z" transform="translate(-14.501 -13.48)" fill="none" stroke="#ffea46" stroke-linecap="round" stroke-linejoin="round" stroke-width="2.5"/>
        <path id="パス_6966" data-name="パス 6966" d="M22.1,23.66a5.178,5.178,0,0,1,5.376-4.866,4.782,4.782,0,0,1,5.376,4.866,5.375,5.375,0,0,1-2.829,4.725,5.234,5.234,0,0,0-1.952,2.207,6.394,6.394,0,0,0-.594,3" transform="translate(-0.6 -3.828)" fill="none" stroke="#ffea46" stroke-linecap="round" stroke-linejoin="round" stroke-width="2.5"/>
        <ellipse id="楕円形_41" data-name="楕円形 41" cx="2.172" cy="2.172" rx="2.172" ry="2.172" transform="translate(24.706 35.224)" fill="#ffea46"/>
      </g>
    </g>
  </g>
</svg>
