<svg id="グループ_13784" data-name="グループ 13784" xmlns="http://www.w3.org/2000/svg" width="53.324" height="54.615" viewBox="0 0 53.324 54.615">
  <g id="グループ_13783" data-name="グループ 13783" transform="translate(4.293 6.396)">
    <path id="パス_13946" data-name="パス 13946" d="M-1.5,1.594H9.192l2.44,9.7L2.556,19.217A36.577,36.577,0,0,1-.316,11.289,59.446,59.446,0,0,1-1.5,1.594Z" transform="translate(1.502 -1.594)" fill="#fff"/>
    <path id="パス_13947" data-name="パス 13947" d="M0,17.623H10.694l2.44-9.695L4.057,0A36.576,36.576,0,0,0,1.186,7.928,59.445,59.445,0,0,0,0,17.623Z" transform="translate(31.408 48.22) rotate(-90)" fill="#fff"/>
  </g>
  <path id="phone_in_talk_24dp_FILL0_wght100_GRAD0_opsz24" d="M221.333-788.5a24.541,24.541,0,0,0-7.292-15.875,24.54,24.54,0,0,0-15.875-7.292V-814a26.925,26.925,0,0,1,9.667,2.417,27.334,27.334,0,0,1,7.917,5.5,27.335,27.335,0,0,1,5.5,7.917,26.928,26.928,0,0,1,2.417,9.667ZM208-788.5a12.509,12.509,0,0,0-3.417-6.458,11.66,11.66,0,0,0-6.417-3.375v-2.333a13.745,13.745,0,0,1,8.083,4.042,14.5,14.5,0,0,1,4.083,8.125Zm11.75,28a37.121,37.121,0,0,1-16.292-4.125,59.181,59.181,0,0,1-15.875-11.542A60.314,60.314,0,0,1,176.125-792,36.863,36.863,0,0,1,172-808.25a3.533,3.533,0,0,1,1-2.542,3.322,3.322,0,0,1,2.5-1.042h6.667a3.7,3.7,0,0,1,2.458.875,4.61,4.61,0,0,1,1.458,2.292l1.5,6.833a5.319,5.319,0,0,1-.083,2.5,3.5,3.5,0,0,1-1.167,1.75l-7.083,6.417a56.587,56.587,0,0,0,4.708,7.208,72.417,72.417,0,0,0,5.375,6.208,57.281,57.281,0,0,0,6.5,5.583,68.753,68.753,0,0,0,7.75,4.917l6.917-7.083a3.711,3.711,0,0,1,1.792-1.167,5.746,5.746,0,0,1,2.208-.083l5.667,1.167A4.049,4.049,0,0,1,222.458-773a3.864,3.864,0,0,1,.875,2.5v6.5a3.322,3.322,0,0,1-1.042,2.5A3.533,3.533,0,0,1,219.75-760.5Zm-41.583-32.833,6.667-6a1.544,1.544,0,0,0,.542-.917,2.029,2.029,0,0,0-.042-1.083l-1.5-6.833a1.785,1.785,0,0,0-.583-1,1.681,1.681,0,0,0-1.083-.333H175.5a1.13,1.13,0,0,0-.833.333,1.13,1.13,0,0,0-.333.833,27.682,27.682,0,0,0,1.042,7.25A53.229,53.229,0,0,0,178.167-793.333Zm27.667,27.167a28.236,28.236,0,0,0,7.375,2.542,34.886,34.886,0,0,0,6.625.792,1.131,1.131,0,0,0,.833-.333A1.131,1.131,0,0,0,221-764v-6.5a1.681,1.681,0,0,0-.333-1.083,1.786,1.786,0,0,0-1-.583L214-773.333a1.373,1.373,0,0,0-.875-.042,2.124,2.124,0,0,0-.792.542ZM178.167-793.333ZM205.833-766.167Z" transform="translate(-172 814)" fill="#5f6368"/>
</svg>
