<svg xmlns="http://www.w3.org/2000/svg" viewBox="0 0 78.739 229.911">
  <g id="グループ_13854" data-name="グループ 13854" transform="translate(0 0)">
    <g id="グループ_13855" data-name="グループ 13855" transform="translate(0 0)">
      <path id="パス_14129" data-name="パス 14129" d="M73.535,275.265c2.386-4.236-.048-16.006-.906-20.591-2.083-11.129-1.185-39.747-.74-41.461,0,0,12.162-.625,12.064,1.885-.053,1.373-.729,20.465-1.5,35.327-.648,12.479-2,19.476-.309,22.74,1.884,3.643,9.437,10.489,7.91,11.315-4,.935-18.091-4.084-16.518-9.214" transform="translate(-19.76 -59.062)" fill="#fff"/>
      <path id="パス_14130" data-name="パス 14130" d="M74.716,297.156c1.8,2.493,3.408,2.75,4.385,2.847,1,.1.107-.326,1.694-1.3,1.795-1.1,2.991-1.2,3.789-.7.682.427,2.792,4.108,3.418,4.826,1.463,1.679,7,4.462,6.647,6.5-.4,2.29-3.429,2.331-6.046,2.081-1.583-.151-4.472-.872-9.856-4.5-1.692-1.141-.5.866-4.181-1.2-1.087-.612-.575-1.96-.856-3.624-.343-2.026.387-5.789,1-4.933" transform="translate(-20.401 -82.307)" fill="#695e4f"/>
      <path id="パス_14131" data-name="パス 14131" d="M54.773,34.318c-.3.01-4.289.433-4.671.41-.13.648.175,4.228-.244,5-.959,1.757-3.732,1.571-4.988,2.5-1.346,1-2.8,2.976-2.587,4.567.1,2.216.554,10.375.669,11.12.769,4.968,9.962,4.658,12.007,4.517,7.706-.53,13.014-3.043,12.963-10.366-.5-3.046-2.9-7.406-6.732-10.338-.994-.761-4.432-.71-5.654-2.079-.778-.87-.75-4.9-.765-5.328" transform="translate(-11.711 -9.51)" fill="#ffdbb0"/>
      <path id="パス_14132" data-name="パス 14132" d="M60.487,43.779c-.333-.924-5.244-2.915-5.872-1.987-.489.723-2.055,1.819-3.367,1.345-1.471-.531-2.569-1-3.095-1.216-1-.413-5.643,1.522-6.586,2.031-.273.127-3.171,4.66-3.326,6.146.2,7.915,2.18,11.2,1.256,19.146a22.545,22.545,0,0,1,.022,3.873c-.118,1.994-.883,18.688-.836,22.2.065,4.837,4.56,21.6,6.637,21.445s16.818.445,19.07.134,9.195-.47,9.163-1.465c-.025-.774-2.774-34.66-4.683-42.517-2.6-10.6-5.652-19.174-8.383-29.137" transform="translate(-10.596 -11.514)" fill="#fff"/>
      <path id="パス_14133" data-name="パス 14133" d="M55.864,44.322c.818-.344.809-.6,1.84-.249s2.033,1.1,1.47,2.183c-.541,1.037-.58,1.8-1.664,1.773C56.617,48,55.63,47,55.043,46.578s-.309-1.71.82-2.255" transform="translate(-15.169 -12.166)" fill="#004ea2"/>
      <path id="パス_14134" data-name="パス 14134" d="M48.8,42.817c.438-.466,1.3-1.758,1.6-1.975s.288-.442,1.037-.014,1.655.854,2.245,1.193c.654.375,1.818.7,1.489,1.141-.543.734-1.483,2.028-1.844,2.529-.223.309-1.826-.471-2.9-1.059s-2.134-.687-1.623-1.816" transform="translate(-13.486 -11.246)" fill="#fff"/>
      <path id="パス_14135" data-name="パス 14135" d="M61.113,40.5c-.332-.267-1.163-.591-1.443-.229s-1.363,1.483-1.692,1.94c-.311.43-.53.545-.239.818.788.74,2.318,1.738,2.61,1.407.5-.561,1.148-1.213,1.493-1.707s.629-.822.616-1.236c-.011-.346-.779-.575-1.345-.993" transform="translate(-15.961 -11.114)" fill="#fff"/>
      <path id="パス_14136" data-name="パス 14136" d="M57.766,48.166c-.139,3.12,1.647,30.09,1.758,32.175s4.4,8.379,5.342,9.177,1.389-5.125,1.514-8.029c.145-3.39-6.3-30.749-6.857-32.526s-1.653-1.953-1.757-.8" transform="translate(-16.004 -13.144)" fill="#004ea2"/>
      <path id="パス_14137" data-name="パス 14137" d="M41.265,276.154c2.385-4.236-.048-16.006-.906-20.591-2.083-11.129-1.185-39.747-.74-41.461,0,0,12.162-.625,12.065,1.885-.053,1.373-.729,20.464-1.5,35.327-.648,12.479-2,19.476-.309,22.74,1.884,3.643,9.437,10.489,7.91,11.315-4,.935-18.091-4.084-16.518-9.214" transform="translate(-10.818 -59.309)" fill="#fff"/>
      <path id="パス_14138" data-name="パス 14138" d="M42.579,298.122c1.8,2.493,3.408,2.75,4.384,2.848,1,.1.108-.326,1.7-1.3,1.795-1.1,2.991-1.2,3.789-.7.682.427,2.792,4.108,3.418,4.826,1.463,1.679,7,4.462,6.647,6.5-.4,2.29-3.429,2.331-6.046,2.081-1.583-.151-4.472-.872-9.856-4.5-1.692-1.141-.5.866-4.181-1.2-1.087-.612-.575-1.96-.856-3.623-.343-2.026.387-5.79,1-4.934" transform="translate(-11.496 -82.575)" fill="#695e4f"/>
      <path id="パス_14139" data-name="パス 14139" d="M43.687,27.96c4.006,2.313,6.652,3.287,8.992,2.354,1.51-.454,3.182-2.077,4.648-4.317,2.392-3.657,1.451-8.973,1.044-9.813-1.152-2.378.3-2.9-3.224-7.207-1.069-1.308-2.773-4.374-9.234-2.24C40.234,8.613,31.074,20.478,43.687,27.96" transform="translate(-10.349 -1.664)" fill="#ffdbb0"/>
      <path id="パス_14140" data-name="パス 14140" d="M51.839,7.6c1.919.535,3.721,4.079,4.381,2.379C57.49,6.7,54.133.453,50.5.858c-3.735.416-1.343-2.022-8.851-.127-5.475,1.381-12.639,13.055-7.729,17.5,3.249,2.944,3.185,7.35,9.161,8.715,1.115.255-.974-3.583-1.645-3.779-3.305-1.121-3.273-2.2-3.205-3.3s1.363-2.381,2.179-1.776c4.058,3.007,1.14-1.208,3.46-1.744,4.869-1.126,6.938-9.227,7.968-8.758" transform="translate(-8.945 0)" fill="#815a46"/>
      <path id="パス_14141" data-name="パス 14141" d="M52.979,130.9c3.908-.064,17.7-1.868,18.79,1.027s1.423,15.6,1.993,24.811c.493,7.979-.054,35.933-.4,45.95-.395,11.423-.2,43.334-.363,47.727-.069,1.812-6.669,1.376-12.625.868-2.167-.184-2.022-27.449-2.093-33.227-.108-8.823-.179-49.906-1.49-49.9-1.846,0-3.2,6.356-3.939,23.594-.6,13.877-.879,38.423-1.017,43.113-.383,13-1.272,17.319-1.927,17.29-10.615-.455-11.657.273-11.963-5.551-.2-3.8-1.2-21.2-1.191-29.87a449.446,449.446,0,0,0-3.79-48.439,75.026,75.026,0,0,1-.933-18.871c.564-7.956.956-14.4,1.733-16.8s15.307-1.654,19.215-1.718" transform="translate(-8.812 -36.103)" fill="#83ccd2"/>
      <path id="パス_14142" data-name="パス 14142" d="M72.69,106.505c-1.534-4.235-1.859-10.549-2.681-14.881-1.34-7.056.594-17.92,4.252-18.414,5.146-.7.262-19.182-2.73-18.284-1.543.463-2.923-3.784-5.833-7.478C62.614,43.532,55.6,40.37,53.544,42c-1.439,1.145,2.483,37.235.5,37.531s-10.268-37.471-13.1-37.683c-3.432-.257-10.58,4.918-14.146,8.781-7.179,7.777.038,26.21,4.188,27.72,2.193.8.8,3.789.617,10.312-.117,4.237-2.077,15.977-2.011,25.748.04,5.977,16.463,3.707,23.691,3.953,5.085.173,2.3-10.825,4.243-10.881,2.5-.072,2.686,8.5,4.976,8.444,8.14-.2,14.679,2.957,10.194-9.423" transform="translate(-6.579 -11.517)" fill="#83ccd2"/>
      <path id="パス_14143" data-name="パス 14143" d="M54.97,144.317c-.412.032-.9.043-1.484.037-.494-.007-1.271.018-2.234.048-2.156.068-5.417.169-8.439,0-.463-.025-.935-.048-1.41-.069-4.224-.2-8.593-.4-9.641-2.848a.345.345,0,1,1,.633-.272c.879,2.047,5.215,2.251,9.04,2.43.477.022.951.045,1.415.07,2.994.163,6.236.061,8.381-.005.975-.03,1.763-.055,2.263-.048,2.795.035,3.037-.361,3.522-1.152.059-.094.119-.192.186-.295.421-.65.742-3.6.854-7.9a.345.345,0,0,1,.69.018c-.085,3.221-.322,7.267-.967,8.261l-.176.281c-.51.829-.895,1.309-2.634,1.443" transform="translate(-8.793 -37.125)" fill="#004ea2"/>
      <path id="パス_14144" data-name="パス 14144" d="M83.561,143.378a34.867,34.867,0,0,1-4.463-.133c-.714-.049-1.415-.1-2.052-.127-2.317-.1-2.619-2.242-2.82-3.658-.037-.262-.072-.506-.116-.716a.346.346,0,0,1,.267-.408.342.342,0,0,1,.408.267c.047.223.083.481.123.76.24,1.692.552,2.994,2.168,3.066.642.029,1.348.077,2.068.126a22.482,22.482,0,0,0,5.1.031.345.345,0,1,1,.157.672,5.567,5.567,0,0,1-.836.119" transform="translate(-20.533 -38.331)" fill="#004ea2"/>
      <path id="パス_14145" data-name="パス 14145" d="M52.948,73.518a.345.345,0,0,1-.316-.166c-.429-.706-3.83-5.525-6.313-9.044-1.268-1.8-2.313-3.276-2.638-3.75-1.074-1.565-.55-2.739.005-3.982a12.265,12.265,0,0,0,.479-1.179.976.976,0,0,0-.011-.8c-.314-.581-1.452-.883-2.657-1.2-.321-.085-.648-.173-.973-.268a1.514,1.514,0,0,1-1.055-.891c-.473-1.191.585-3,1.285-4.2.1-.17.187-.321.256-.447a.346.346,0,0,1,.606.333c-.072.13-.163.286-.266.463-.555.951-1.588,2.721-1.239,3.6a.848.848,0,0,0,.607.484c.319.094.641.18.957.263,1.412.375,2.631.7,3.087,1.543a1.642,1.642,0,0,1,.058,1.34,13.171,13.171,0,0,1-.5,1.243c-.535,1.2-.922,2.065-.067,3.311.325.474,1.368,1.949,2.634,3.743,2.489,3.527,5.9,8.357,6.339,9.084a.345.345,0,0,1-.116.474.353.353,0,0,1-.158.049" transform="translate(-10.904 -13.138)" fill="#004ea2"/>
      <path id="パス_14146" data-name="パス 14146" d="M68,73.471a.345.345,0,0,0,.208-.29c.065-.823.935-6.657,1.57-10.917.325-2.175.593-3.967.669-4.536.256-1.881-.741-2.694-1.8-3.555a12.339,12.339,0,0,1-.957-.838.976.976,0,0,1-.348-.715c.019-.66.9-1.442,1.831-2.27.249-.22.5-.446.749-.677a1.518,1.518,0,0,0,.541-1.27c-.113-1.277-1.873-2.42-3.038-3.176-.165-.107-.312-.2-.429-.284a.345.345,0,0,0-.392.569c.123.084.275.183.446.294.923.6,2.642,1.717,2.725,2.658a.848.848,0,0,1-.324.706c-.243.227-.492.448-.737.665-1.092.97-2.035,1.808-2.062,2.767a1.639,1.639,0,0,0,.55,1.222,13.223,13.223,0,0,0,1.008.885c1.017.83,1.752,1.429,1.549,2.926-.077.57-.345,2.357-.669,4.528-.637,4.27-1.509,10.118-1.577,10.965a.345.345,0,0,0,.481.344" transform="translate(-18.415 -12.437)" fill="#004ea2"/>
      <path id="パス_14147" data-name="パス 14147" d="M66.942,100.355a1.174,1.174,0,0,1-.707,1.359,1.119,1.119,0,0,1-1.3-.651,1.061,1.061,0,0,1,.462-1.329,1.092,1.092,0,0,1,1.547.622" transform="translate(-17.971 -27.598)" fill="#004ea2"/>
      <path id="パス_14148" data-name="パス 14148" d="M67.567,110.667a1.174,1.174,0,0,1-.707,1.359,1.119,1.119,0,0,1-1.3-.651,1.062,1.062,0,0,1,.462-1.329,1.092,1.092,0,0,1,1.547.622" transform="translate(-18.144 -30.455)" fill="#004ea2"/>
      <path id="パス_14149" data-name="パス 14149" d="M95.959,35.237c.472-1.105,1.517-2.284,1.79-3.936s1.74-3.668-.187-5.452c-1.05-.973-.986-.513-1.571-1.285s-1.57-1.76-2.407-1.212-1.421.81-1.872.548a1.578,1.578,0,0,0-1.915.177c-.708.622-1.222,1.358-1.76,1.39s-.836.841-1,1.719-.772,3.544.446,4.858,2.463,1.694,2.613,3.508a26.1,26.1,0,0,1,.328,3.051c.127,1.665,5.794.7,5.769-1.315.059-.708-.343-1.792-.233-2.05" transform="translate(-24.035 -6.427)" fill="#ffdbb0"/>
      <path id="パス_14150" data-name="パス 14150" d="M91.766,38.825c3.932-.445,6.529-1.263,6.791.371s1.018,2.681.08,3.14c-1.907.932-8.749,2.224-8.743.082s-1.3-3.234,1.872-3.593" transform="translate(-24.837 -10.592)" fill="#fff"/>
      <path id="パス_14151" data-name="パス 14151" d="M101.786,57.27c-.388-3.767-1.135-17.341-3.8-17.093-4.288.4-9.956.37-9.94,2.362.025,2.972,1.16,11.665.038,11.778-1.418.142-1.407,7.763-1.346,8.861.264,4.755,1.83,11.767,3.291,10.694,1.271-.935,1.548.12,2.654.636a7.043,7.043,0,0,0,8-1.427c3.646-3.316,1.5-12.065,1.11-15.811" transform="translate(-24.029 -11.132)" fill="#83ccd2"/>
      <path id="パス_14152" data-name="パス 14152" d="M18.915,156.842c-8.425-.673-14.558-1.869-16.652.673C.716,159.394.526,165.5.17,170.976c-.7,10.718.831,11.921,3.141,12.563,2.692.747,8.811,1.637,13.312,2.244,4.436.6,11.647,2.052,15.854.149,3.14-1.421,1.645-9.572,1.5-16.153-.138-6.06-.6-10.32-4.188-11.368a57.655,57.655,0,0,0-10.869-1.57" transform="translate(0.001 -43.218)" fill="#004ea2"/>
      <path id="パス_14153" data-name="パス 14153" d="M25.569,158.705h-.051a.724.724,0,0,1-.672-.771c.44-6.3-.288-8.177-2.2-10.225a5.607,5.607,0,0,0-4.134-1.56,4.5,4.5,0,0,0-3.441,1.807c-1.419,1.838-2.254,5.6-2.393,7.683a.712.712,0,0,1-.77.673.723.723,0,0,1-.673-.768c.141-2.111,1-6.276,2.692-8.471a5.909,5.909,0,0,1,4.517-2.368A7.089,7.089,0,0,1,23.7,146.72c2.171,2.326,3.059,4.512,2.586,11.312a.724.724,0,0,1-.721.673" transform="translate(-3.113 -40.095)" fill="#004ea2"/>
      <path id="パス_14154" data-name="パス 14154" d="M22.827,136.874c.643.915,1.822,1.786,2.389,3.238s2.05,2.26.5,3.951-.725,1.782-1.108,2.6-.776,1.828-1.644,1.491-1.45-.463-1.809-.137a1.468,1.468,0,0,1-1.778.208c-.765-.429-1.375-1-1.87-.925s-.923-.605-1.244-1.371-1.387-3.077-.531-4.508,1.914-2.018,1.7-3.7c-.033-.257-.4-1.053-.589-1.733-.206-1.54,5.439-2.861,5.8-1.025.191.633.033,1.7.184,1.911" transform="translate(-4.267 -37.151)" fill="#ffdbb0"/>
      <path id="パス_14155" data-name="パス 14155" d="M22.83,137.765c-3.922.523-6.5,1.394-6.8-.234s-1.071-2.661-.142-3.139c1.887-.97,8.7-2.4,8.739-.257s1.361,3.208-1.8,3.63" transform="translate(-4.28 -36.86)" fill="#fff"/>
      <path id="パス_14156" data-name="パス 14156" d="M28.767,82.915c-1.208-.113-1.5,8.475-2.019,12.6-.241,1.9-1.869,13.215-1.869,17.117,0,2.592-.9,2.193-5.783,2.791-4.176.512-5.484,1.1-5.783-4.885a245.1,245.1,0,0,1,1.473-30.2c1.115-7.181,4.269-18.1,7-22.552,1.677-2.73,2.792-1.5,4.786.8,3.223,3.706,5.385,24.629,2.194,24.33" transform="translate(-3.668 -15.581)" fill="#83ccd2"/>
      <path id="パス_14157" data-name="パス 14157" d="M42.536,185.732a.271.271,0,0,1-.27-.252c-.087-1.227.074-6.328.231-11.259.112-3.521.218-6.848.218-8.354a.271.271,0,1,1,.542,0c0,1.515-.106,4.845-.218,8.37-.149,4.689-.317,10-.232,11.2a.271.271,0,0,1-.252.29h-.019" transform="translate(-11.705 -45.887)" fill="#83ccd2"/>
    </g>
  </g>
</svg>
