<svg xmlns="http://www.w3.org/2000/svg" xmlns:xlink="http://www.w3.org/1999/xlink" viewBox="0 0 178.662 129.816">
  <defs>
    <clipPath id="clip-path">
      <rect id="長方形_24435" data-name="長方形 24435" width="63.846" height="65.201" fill="#444"/>
    </clipPath>
  </defs>
  <g id="グループ_13807" data-name="グループ 13807" transform="translate(0 0)">
    <g id="グループ_13808" data-name="グループ 13808">
      <path id="パス_14191" data-name="パス 14191" d="M54.144,127.964a45.767,45.767,0,0,0,28-11.9c33.583,34.862,98.347,5.837,93.391-43.27-.075-8.172-4.915-22-12.6-31.636-4.512-5.654-10.409-7.706-15.743-12.507a8.343,8.343,0,0,1-1.781-2.284,42.874,42.874,0,0,0-9.949-12.682c-8.2-6.872-18.784-9.906-26.695-9.071a38.2,38.2,0,0,0-17.948,5.807A50.7,50.7,0,0,0,63.52,4.383c-24.967,1.424-44,20.127-42.951,42a2.75,2.75,0,0,1-.931,2.2c-30.891,27.052-7.684,83.642,34.507,79.378" transform="translate(2.862 -1.557)" fill="#ffea46"/>
      <path id="パス_14002" data-name="パス 14002" d="M54.144,127.964a45.767,45.767,0,0,0,28-11.9c33.583,34.862,98.347,5.837,93.391-43.27-.075-8.172-4.915-22-12.6-31.636-4.512-5.654-10.409-7.706-15.743-12.507a8.343,8.343,0,0,1-1.781-2.284,42.874,42.874,0,0,0-9.949-12.682c-8.2-6.872-18.784-9.906-26.695-9.071a38.2,38.2,0,0,0-17.948,5.807A50.7,50.7,0,0,0,63.52,4.383c-24.967,1.424-44,20.127-42.951,42a2.75,2.75,0,0,1-.931,2.2c-30.891,27.052-7.684,83.642,34.507,79.378" transform="translate(-4.511 -3.557)" fill="#fff"/>
      <path id="パス_14003" data-name="パス 14003" d="M523.323,130.035a55.282,55.282,0,0,1-30.774-9.3.694.694,0,1,1,.768-1.157,54.489,54.489,0,1,0,57.813-92.336,8.826,8.826,0,0,1-3.365-3.615A37.7,37.7,0,0,0,502.448,4.891a20.651,20.651,0,0,0-3.633,1.659.694.694,0,0,1-.833-1.111,21.723,21.723,0,0,1,4-1.857l.02-.007A39.092,39.092,0,0,1,549,23a7.443,7.443,0,0,0,2.834,3.049,55.876,55.876,0,0,1-24.8,103.871q-1.861.121-3.711.12" transform="translate(-407.464 -1.352)" fill="#555"/>
      <path id="パス_14004" data-name="パス 14004" d="M474.634,673.877a.692.692,0,0,1-.383-.116c-1.317-.874-2.613-1.817-3.854-2.8a.694.694,0,1,1,.863-1.087c1.21.961,2.475,1.88,3.759,2.732a.694.694,0,0,1-.385,1.273" transform="translate(-389.167 -554.382)"/>
      <path id="パス_14005" data-name="パス 14005" d="M47.815,125.072A49.712,49.712,0,0,1,29.231,121.4,48.366,48.366,0,0,1,8.947,106.224,42.423,42.423,0,0,1,.1,81.545,46.538,46.538,0,0,1,14.659,44.586a2.073,2.073,0,0,0,.661-1.681,33.238,33.238,0,0,1,4.77-20.19A44.234,44.234,0,0,1,35.015,8.05,55.577,55.577,0,0,1,60.684.075a44.639,44.639,0,0,1,25.98,6.2.694.694,0,1,1-.729,1.181A43.257,43.257,0,0,0,60.758,1.461,54.165,54.165,0,0,0,35.741,9.234a42.846,42.846,0,0,0-14.46,14.2A31.876,31.876,0,0,0,16.7,42.791,3.453,3.453,0,0,1,15.612,45.6,45.152,45.152,0,0,0,1.484,81.467c0,.008,0,.015,0,.023a41.041,41.041,0,0,0,8.562,23.887,46.977,46.977,0,0,0,19.7,14.741,47.441,47.441,0,0,0,24.615,3.09,41,41,0,0,0,22.779-11.2.694.694,0,0,1,.968,1,42.375,42.375,0,0,1-23.545,11.579,46.408,46.408,0,0,1-6.753.491" transform="translate(0 0)" fill="#555"/>
    </g>
    <g id="グループ_13833" data-name="グループ 13833" transform="translate(44.334 31.511)">
      <g id="グループ_13827" data-name="グループ 13827" transform="translate(4.909 -1)">
        <g id="グループ_13828" data-name="グループ 13828" transform="translate(0)">
          <g id="グループ_13825" data-name="グループ 13825">
            <g id="グループ_13829" data-name="グループ 13829">
              <g id="グループ_13823" data-name="グループ 13823">
                <g id="グループ_13822" data-name="グループ 13822" clip-path="url(#clip-path)">
                  <path id="パス_14054" data-name="パス 14054" d="M14.954,65.2A2.109,2.109,0,0,1,12.9,63.6L.067,11.736A2.268,2.268,0,0,1,1.725,8.988l4.827-1.2a.754.754,0,1,1,.365,1.464l-4.83,1.2a.759.759,0,0,0-.556.918L14.367,63.234a.6.6,0,0,0,.586.456.592.592,0,0,0,.145-.018L31.06,59.723l-.072-.434L17.281,60.5c-.065.006-.129.01-.192.01a2.11,2.11,0,0,1-2.1-1.927L10.283,5.365a2.275,2.275,0,0,1,2.062-2.46L17.3,2.467l.066,0a.754.754,0,0,1,.754.69c0,.02,0,.043,0,.066a.759.759,0,0,1-.689.751l-4.955.439a.761.761,0,0,0-.69.824L16.494,58.45a.6.6,0,0,0,.211.408A.615.615,0,0,0,17.1,59l.049,0,8.489-.752-.019-.44H21.294a2.114,2.114,0,0,1-2.11-2.112V2.269A2.272,2.272,0,0,1,21.453,0H61.577a2.272,2.272,0,0,1,2.269,2.269V47.617a.754.754,0,0,1-1.508,0V2.269a.761.761,0,0,0-.761-.759H21.453a.76.76,0,0,0-.761.759V55.694a.6.6,0,0,0,.6.6h40.44a.605.605,0,0,0,.6-.6V51.555a.754.754,0,1,1,1.508,0v4.139a2.115,2.115,0,0,1-2.112,2.112H46.452l-.054.034a.726.726,0,0,1-.329.114l-2.5.22-.021.006a.41.41,0,0,0-.044.016L15.461,65.139a2.12,2.12,0,0,1-.507.062" transform="translate(0)" fill="#444"/>
                  <path id="パス_14055" data-name="パス 14055" d="M162.151,215.136a.755.755,0,0,1-.754-.754V210.6a.755.755,0,0,1,.754-.754H181.5a.755.755,0,0,1,.754.754v3.777a.755.755,0,0,1-.754.754Zm15.537-1.508h3.056v-2.269h-3.056Zm-14.783,0H176.18v-2.269H162.906Z" transform="translate(-125.807 -163.576)" fill="#444"/>
                  <path id="パス_14056" data-name="パス 14056" d="M227.234,34.678a.754.754,0,1,1,0-1.508h4.476a.754.754,0,1,1,0,1.508Z" transform="translate(-176.536 -25.856)" fill="#444"/>
                  <path id="パス_14057" data-name="パス 14057" d="M157.982,65.068a.754.754,0,0,1,0-1.508h19.749a.754.754,0,0,1,0,1.508Z" transform="translate(-122.558 -49.544)" fill="#444"/>
                  <path id="パス_14058" data-name="パス 14058" d="M205.772,95.458a.754.754,0,1,1,0-1.508h9.211a.754.754,0,1,1,0,1.508Z" transform="translate(-159.809 -73.233)" fill="#444"/>
                  <path id="パス_14059" data-name="パス 14059" d="M225.212,125.848a.754.754,0,1,1,0-1.508h4.924a.754.754,0,0,1,0,1.508Z" transform="translate(-174.963 -96.922)" fill="#444"/>
                  <path id="パス_14060" data-name="パス 14060" d="M227.234,156.171a.755.755,0,1,1,0-1.511h4.476a.755.755,0,0,1,0,1.511Z" transform="translate(-176.536 -120.556)" fill="#444"/>
                  <path id="パス_14061" data-name="パス 14061" d="M157.982,186.561a.755.755,0,0,1,0-1.51h19.749a.755.755,0,0,1,0,1.51Z" transform="translate(-122.558 -144.244)" fill="#444"/>
                  <rect id="長方形_24433" data-name="長方形 24433" width="2.174" height="1.387" transform="translate(52.322 48.224)" fill="#ffea46"/>
                  <rect id="長方形_24434" data-name="長方形 24434" width="12.392" height="1.387" transform="translate(37.539 48.224)" fill="#ffea46"/>
                  <path id="パス_14062" data-name="パス 14062" d="M121.642,34.678a.754.754,0,1,1,0-1.508h20.516a.754.754,0,1,1,0,1.508Z" transform="translate(-94.231 -25.856)" fill="#444"/>
                  <path id="パス_14063" data-name="パス 14063" d="M121.642,156.171a.755.755,0,0,1,0-1.511h20.516a.755.755,0,0,1,0,1.511Z" transform="translate(-94.231 -120.556)" fill="#444"/>
                  <path id="パス_14064" data-name="パス 14064" d="M121.642,125.848a.754.754,0,0,1,0-1.508h19.892a.754.754,0,1,1,0,1.508Z" transform="translate(-94.231 -96.922)" fill="#444"/>
                  <path id="パス_14065" data-name="パス 14065" d="M121.642,95.458a.754.754,0,1,1,0-1.508h15.427a.754.754,0,0,1,0,1.508Z" transform="translate(-94.231 -73.233)" fill="#444"/>
                  <path id="パス_14066" data-name="パス 14066" d="M121.642,65.068a.754.754,0,1,1,0-1.508h5.334a.754.754,0,1,1,0,1.508Z" transform="translate(-94.231 -49.544)" fill="#444"/>
                  <path id="パス_14067" data-name="パス 14067" d="M121.642,186.561a.755.755,0,0,1,0-1.51h5.334a.755.755,0,1,1,0,1.51Z" transform="translate(-94.231 -144.244)" fill="#444"/>
                </g>
              </g>
            </g>
          </g>
        </g>
      </g>
    </g>
  </g>
</svg>
