<svg xmlns="http://www.w3.org/2000/svg" viewBox="0 0 166.488 133.572">
  <g id="グループ_32285" data-name="グループ 32285" transform="translate(-71.756 0)">
    <g id="グループ_13804" data-name="グループ 13804" transform="translate(71.756 0)">
      <g id="グループ_13805" data-name="グループ 13805">
        <path id="パス_14187" data-name="パス 14187" d="M54.485,134.08a47.152,47.152,0,0,0,24.027-8.4,3.705,3.705,0,0,1,4.208-.023,55.382,55.382,0,0,0,62.17-.634c12.3-8.676,19.928-22.7,18.814-38.016a42.3,42.3,0,0,0-11.918-26.232,39.536,39.536,0,0,0-55.8-47.088,56.876,56.876,0,0,0-88.456,50.9c.077,1.187.194,2.362.342,3.526A47.394,47.394,0,0,0,54.485,134.08" transform="translate(2.677 -1.313)" fill="#ffea46"/>
        <path id="パス_13993" data-name="パス 13993" d="M54.485,134.08a47.152,47.152,0,0,0,24.027-8.4,3.705,3.705,0,0,1,4.208-.023,54.611,54.611,0,0,0,33.888,9.137c27.813-1.606,48.9-23,47.1-47.787a42.3,42.3,0,0,0-11.918-26.232,39.536,39.536,0,0,0-55.8-47.088,56.876,56.876,0,0,0-88.456,50.9c.077,1.187.194,2.362.342,3.526A47.394,47.394,0,0,0,54.485,134.08" transform="translate(-3.324 -3.313)" fill="#fff"/>
        <path id="パス_13994" data-name="パス 13994" d="M109.962,395.191a55.426,55.426,0,0,1-26.619-6.7,12.4,12.4,0,0,0-12.005.015A48.1,48.1,0,0,1,.1,349.5a47.582,47.582,0,0,1,3.79-22.082.716.716,0,1,1,1.315.566,46.675,46.675,0,0,0,42.822,65.072q1.537,0,3.083-.1a46.237,46.237,0,0,0,19.53-5.7,13.828,13.828,0,0,1,13.384-.018,54.3,54.3,0,0,0,29.214,6.427c14.149-.817,27.272-6.993,36-16.944a40.935,40.935,0,0,0,10.42-30.076,41.414,41.414,0,0,0-11.722-25.79.716.716,0,0,1,1.034-.989,42.828,42.828,0,0,1,12.115,26.675,42.355,42.355,0,0,1-10.771,31.124c-8.984,10.237-22.469,16.59-37,17.429q-1.686.1-3.364.1" transform="translate(-0.001 -262.903)" fill="#555"/>
        <path id="パス_13995" data-name="パス 13995" d="M19.835,61.987a.715.715,0,0,1-.713-.669A57.6,57.6,0,0,1,104.769,7.359a8.727,8.727,0,0,0,7.387.5,40.264,40.264,0,0,1,53.563,46.267.715.715,0,1,1-1.4-.306A38.83,38.83,0,0,0,112.663,9.2a10.153,10.153,0,0,1-8.594-.6A56.165,56.165,0,0,0,20.55,61.225a.716.716,0,0,1-.668.76h-.047" transform="translate(-15.626 0.001)" fill="#555"/>
      </g>
    </g>
    <g id="グループ_13834" data-name="グループ 13834" transform="translate(12270.646 7086)">
      <path id="パス_13957" data-name="パス 13957" d="M69,67.917,49.467,48.389a26.3,26.3,0,1,0-5.4,4.391L64.116,72.832a2.061,2.061,0,0,0,2.927-.013l1.965-2a2.06,2.06,0,0,0-.013-2.9M26.88,16.111A5.184,5.184,0,0,1,30.654,14.3h.038c2.778.027,5.124,2.7,5.123,5.839A6.117,6.117,0,0,1,34.3,24.275a4.981,4.981,0,0,1-3.726,1.665h-.02a5.084,5.084,0,0,1-3.7-1.722,5.893,5.893,0,0,1-1.584-3.967,6.2,6.2,0,0,1,1.615-4.138m13.854,26.73H19.688V34.607a5.951,5.951,0,0,1,5.348-5.834,44.79,44.79,0,0,1,10.363,0,5.946,5.946,0,0,1,5.336,5.831Z" transform="translate(-12153.558 -7055.054)" fill="#ffea46"/>
      <path id="パス_13958" data-name="パス 13958" d="M67.072,76.305a2.963,2.963,0,0,1-2.11-.874L43.791,54.26a29.267,29.267,0,0,1-17.936,3.783A29.113,29.113,0,0,1,0,29.113,29.112,29.112,0,0,1,49.7,8.527a29.112,29.112,0,0,1,1.091,40.018L71.3,69.056a2.994,2.994,0,0,1,.019,4.2L69.2,75.412a2.965,2.965,0,0,1-2.116.893ZM43.91,52.53a.764.764,0,0,1,.542.224L66.045,74.348a1.443,1.443,0,0,0,1.028.426h.007a1.444,1.444,0,0,0,1.031-.435l2.116-2.154a1.458,1.458,0,0,0-.009-2.046l-21.03-21.03a.766.766,0,0,1-.015-1.067,27.581,27.581,0,1,0-39.562.574,27.281,27.281,0,0,0,16.415,7.905A27.719,27.719,0,0,0,43.51,52.643a.764.764,0,0,1,.4-.113m-3.586-9.171H17.66a.766.766,0,0,1-.766-.766V33.726a7.174,7.174,0,0,1,6.436-7.043,50.277,50.277,0,0,1,5.774-.328,49.194,49.194,0,0,1,5.562.33,7.167,7.167,0,0,1,6.423,7.04v8.868a.766.766,0,0,1-.766.766m-21.9-1.531H39.558v-8.1a5.637,5.637,0,0,0-5.069-5.519,47.459,47.459,0,0,0-10.982,0,5.643,5.643,0,0,0-5.081,5.521ZM29.379,25.157h-.021a6.233,6.233,0,0,1-4.549-2.1A7.11,7.11,0,0,1,22.9,18.27a7.455,7.455,0,0,1,1.937-4.975h0a6.348,6.348,0,0,1,4.632-2.2h.044c3.406.033,6.28,3.264,6.279,7.054a7.352,7.352,0,0,1-1.832,4.963,6.121,6.121,0,0,1-4.58,2.044M25.972,14.322h0a5.906,5.906,0,0,0-1.542,3.938,5.582,5.582,0,0,0,1.5,3.757,4.719,4.719,0,0,0,3.429,1.609h.017a4.606,4.606,0,0,0,3.446-1.541A5.825,5.825,0,0,0,34.26,18.15c0-2.968-2.178-5.5-4.759-5.522h-.037a4.819,4.819,0,0,0-3.493,1.694" transform="translate(-12154.502 -7054.489)" fill="#444"/>
    </g>
  </g>
</svg>
