<svg xmlns="http://www.w3.org/2000/svg" viewBox="0 0 186.083 138.258">
  <g id="グループ_32285" data-name="グループ 32285" transform="translate(-64.235 0)">
    <g id="グループ_13802" data-name="グループ 13802" transform="translate(12174.234 6977)">
      <path id="パス_14183" data-name="パス 14183" d="M55.212,134.071a48.394,48.394,0,0,0,17.61-4.544,24.453,24.453,0,0,1,23.331,1.435c37.44,23.25,90.714-10.545,87.263-55.164a58.834,58.834,0,0,0-30.722-47.653,40.5,40.5,0,0,0-63.051-15.1A58.807,58.807,0,0,0,56.956,5.5C23.875,7.3-.3,35.861,7.85,65.583c-15.439,31.99,11.616,71.767,47.362,68.488" transform="translate(-12107.492 -6977.262)" fill="#ffea46"/>
      <path id="パス_13985" data-name="パス 13985" d="M55.212,134.071a48.394,48.394,0,0,0,17.61-4.544,24.453,24.453,0,0,1,23.331,1.435c37.44,23.25,90.714-10.545,87.263-55.164a58.834,58.834,0,0,0-30.722-47.653,40.5,40.5,0,0,0-63.051-15.1A58.807,58.807,0,0,0,56.956,5.5C23.875,7.3-.3,35.861,7.85,65.583c-15.439,31.99,11.616,71.767,47.362,68.488" transform="translate(-12112.794 -6980.033)" fill="#fff"/>
      <path id="パス_13986" data-name="パス 13986" d="M121.677,136.258a54.166,54.166,0,0,1-28.055-8.1A24,24,0,0,0,70.8,127.2a46.7,46.7,0,0,1-20.317,4.526,52.931,52.931,0,0,1-27.293-7.7C9.023,115.445.607,101.5.1,85.768A49.344,49.344,0,0,1,4.276,62.5,40.818,40.818,0,0,1,5.344,35.2,49.882,49.882,0,0,1,21.9,14.156,63.53,63.53,0,0,1,53.7,1.795C66.027.605,77.625,3.234,87.245,9.4a.733.733,0,0,1-.791,1.235C77.114,4.648,65.837,2.1,53.845,3.254A62.043,62.043,0,0,0,22.786,15.326,48.417,48.417,0,0,0,6.707,35.742a39.427,39.427,0,0,0-.948,26.6.732.732,0,0,1-.034.516,47.865,47.865,0,0,0-4.159,22.83c0,.008,0,.016,0,.024.486,15.232,8.645,28.74,22.385,37.061,14.41,8.726,32.117,9.917,46.213,3.109a25.458,25.458,0,0,1,24.21,1.019,51.134,51.134,0,0,0,53.281.8c19.434-11.05,32.459-32.913,32.41-54.4a49.519,49.519,0,0,0-7.133-25.785c-5.192-8.625-13.064-15.945-23.4-21.758a.733.733,0,0,1-.323-.372,35.046,35.046,0,0,0-9.91-13.836A42.17,42.17,0,0,0,107.23,1.749a35.456,35.456,0,0,0-16.1,6.026.733.733,0,0,1-.835-1.206A36.908,36.908,0,0,1,107.054.293a43.636,43.636,0,0,1,33.208,10.14A36.533,36.533,0,0,1,150.483,24.6c10.444,5.918,18.42,13.371,23.706,22.152a50.967,50.967,0,0,1,7.342,26.538c.05,22-13.272,44.377-33.151,55.68a53.642,53.642,0,0,1-26.108,7.284c-.2,0-.4,0-.595,0" transform="translate(-12109.999 -6977)" fill="#555"/>
    </g>
    <g id="グループ_13835" data-name="グループ 13835" transform="translate(12166.561 7106.212)">
      <path id="パス_13948" data-name="パス 13948" d="M311.424,19.507c-18.411,6.991-34.837,20.2-47.075,35.54-3.906,5.444-9.159,10-11.849,16.29a28.145,28.145,0,0,1,14.764-6.906,15.915,15.915,0,0,0,12.254,2.645c4.53-.658,8.953-5.258,6.85-10.008,3.815-1.429,7.518-4.929,7.552-9.231,4.692-1.357,9.544-7.271,7.8-12.319a6.994,6.994,0,0,0,3.644-8.461c-.7-2.679,4.354-5.656,6.061-7.549" transform="translate(-12294.371 -7097.124)" fill="#ffea46"/>
      <g id="グループ_13798" data-name="グループ 13798" transform="translate(-12060.561 -7079.061)">
        <path id="パス_13949" data-name="パス 13949" d="M233.506,54.671a.664.664,0,0,1-.547-1.041l4.226-6.151a147.445,147.445,0,0,1,9.686-12.6c3.045-3.541,7.1-8.158,11.462-12.465a87.078,87.078,0,0,1,13.3-11.037A100.49,100.49,0,0,1,295.144.035a.664.664,0,1,1,.417,1.261,99.158,99.158,0,0,0-23.2,11.2,85.776,85.776,0,0,0-13.1,10.871c-4.328,4.274-8.36,8.864-11.388,12.386a146.127,146.127,0,0,0-9.6,12.483l-4.226,6.151a.664.664,0,0,1-.548.288" transform="translate(-215.608 -0.002)" fill="#444"/>
        <path id="パス_13950" data-name="パス 13950" d="M427.48,51.435a20.463,20.463,0,0,1-5.687-.812,20.139,20.139,0,0,1-7.805-4.3.664.664,0,0,1,.611-1.137l1.57.41a.665.665,0,0,1,.357,1.051,19.057,19.057,0,0,0,5.638,2.7,18.8,18.8,0,0,0,8.3.513c3.443-.579,6.044-2.2,7.136-4.452a5.449,5.449,0,0,0,.494-1.664,6.1,6.1,0,0,0,.037-1.248,6.259,6.259,0,0,0-.359-1.681,16.851,16.851,0,0,1-2.138.485,16.676,16.676,0,0,1-7.25-.446,3.3,3.3,0,0,1-2.145-1.462,1.943,1.943,0,0,1-.083-1.558,2.914,2.914,0,0,1,1.626-1.648,9.981,9.981,0,0,1,6.79-.162,6.836,6.836,0,0,1,3.9,3.157,15.547,15.547,0,0,0,3.184-1.635,10.451,10.451,0,0,0,3.143-3.263,7.582,7.582,0,0,0,1.072-3.1,15.305,15.305,0,0,1-5.228.131c-1.847-.271-3.091-.96-3.7-2.048a2.875,2.875,0,0,1-.133-2.639,4.15,4.15,0,0,1,2.92-2.189,6.372,6.372,0,0,1,7.418,5.035,11.946,11.946,0,0,0,3.061-1.517c4.076-2.833,5.281-7.374,4.606-9.643a12.5,12.5,0,0,1-6.448,1.247,5.12,5.12,0,0,1-3.4-1.526,2.234,2.234,0,0,1-.414-1.825,3.063,3.063,0,0,1,1.473-2,7.748,7.748,0,0,1,5.412-.751,6.734,6.734,0,0,1,3.975,2.984,9.626,9.626,0,0,0,.8-.6c2.406-2.007,2.355-5.827,2.221-7.376-.3-3.5,3.005-6.352,4.188-7.076a.664.664,0,0,1,.693,1.133,9.069,9.069,0,0,0-2.35,2.254,5.519,5.519,0,0,0-1.208,3.574,13.781,13.781,0,0,1-.323,4.526,7.473,7.473,0,0,1-2.371,3.984,10.937,10.937,0,0,1-1.067.784q.029.08.055.161a8.082,8.082,0,0,1-.88,6.393,14.1,14.1,0,0,1-4.2,4.848,13.346,13.346,0,0,1-3.743,1.795,8.755,8.755,0,0,1-1.288,4.12,11.787,11.787,0,0,1-3.542,3.683,16.861,16.861,0,0,1-3.363,1.74,7.567,7.567,0,0,1,.426,2.011,7.433,7.433,0,0,1-.045,1.521,6.776,6.776,0,0,1-.615,2.068c-1.282,2.642-4.238,4.531-8.111,5.182a19.356,19.356,0,0,1-3.207.265m3.743-14.6a7.211,7.211,0,0,0-2.9.562,1.6,1.6,0,0,0-.906.864.609.609,0,0,0,.006.515,2.223,2.223,0,0,0,1.338.8,15.339,15.339,0,0,0,6.669.41,15.515,15.515,0,0,0,1.748-.383,5.466,5.466,0,0,0-2.988-2.31,10.269,10.269,0,0,0-2.964-.456m9.72-11.2a4.368,4.368,0,0,0-.929.1,2.809,2.809,0,0,0-1.992,1.438,1.537,1.537,0,0,0,.083,1.446,3.52,3.52,0,0,0,2.73,1.38,13.949,13.949,0,0,0,5.026-.172,4.816,4.816,0,0,0-1.926-3.152,5,5,0,0,0-2.991-1.039M449.784,14.6a6.041,6.041,0,0,0-3.052.737,1.753,1.753,0,0,0-.874,1.131.9.9,0,0,0,.168.768,3.754,3.754,0,0,0,2.449,1.005,11.136,11.136,0,0,0,5.787-1.129,5.471,5.471,0,0,0-3.165-2.369,5.326,5.326,0,0,0-1.313-.144" transform="translate(-383.141 -1.2)" fill="#444"/>
        <path id="パス_13951" data-name="パス 13951" d="M4.127,395.75a4.069,4.069,0,0,1-2.025-.537,3.991,3.991,0,0,1-1.678-5.321l9.569-20.217a.665.665,0,0,1,.14-.194l12.473-12a8.914,8.914,0,0,1,8.458-2.195l.033.009,2.778.888a.664.664,0,0,1-.4,1.265l-2.761-.883a7.63,7.63,0,0,0-7.182,1.872L11.142,370.353,1.625,390.458a2.671,2.671,0,0,0,1.136,3.6,2.788,2.788,0,0,0,3.776-1.007.664.664,0,0,1,1.146.672,4.119,4.119,0,0,1-3.556,2.026" transform="translate(0 -328.713)" fill="#444" stroke="rgba(0,0,0,0)" stroke-width="1"/>
        <path id="パス_13952" data-name="パス 13952" d="M1026.391,522.1a.664.664,0,0,1-.664-.664V495.964a.664.664,0,0,1,1.329,0v25.472a.664.664,0,0,1-.664.664" transform="translate(-949.807 -458.64)" fill="#444" stroke="rgba(0,0,0,0)" stroke-width="1"/>
        <path id="パス_13953" data-name="パス 13953" d="M883.044,475.132h-.007l-16.514-.161a.665.665,0,0,1-.221-.04l-4.106-1.5a.664.664,0,1,1,.455-1.248l4,1.459,16.4.16a.664.664,0,0,1-.006,1.328" transform="translate(-797.976 -437.198)" fill="#444" stroke="rgba(0,0,0,0)" stroke-width="1"/>
        <path id="パス_13954" data-name="パス 13954" d="M124.083,712.477a5.385,5.385,0,0,1,0-10.77H143.5l8.25-5.2a.664.664,0,0,1,.708,1.124l-8.412,5.3a.664.664,0,0,1-.354.1H124.083a4.057,4.057,0,0,0,0,8.113h19.31l26.08-.278L181.244,707a.666.666,0,0,1,.207-.033h13.962a.664.664,0,0,1,0,1.329H181.557l-11.768,3.865a.663.663,0,0,1-.2.033l-26.19.279Z" transform="translate(-109.912 -644.863)" fill="#444" stroke="rgba(0,0,0,0)" stroke-width="1"/>
        <path id="パス_13955" data-name="パス 13955" d="M156.648,611.894a.664.664,0,0,1-.572-1l5.129-8.734a.663.663,0,0,1,.155-.18l1.961-1.583a.664.664,0,1,1,.835,1.033l-1.866,1.508-5.068,8.63a.664.664,0,0,1-.573.328" transform="translate(-144.439 -555.82)" fill="#444" stroke="rgba(0,0,0,0)" stroke-width="1"/>
        <path id="パス_13956" data-name="パス 13956" d="M130.434,937.117a.666.666,0,0,1-.223-.038.694.694,0,0,1-.407-.9c.021-.091.052-.217.1-.384.079-.293.2-.721.363-1.27.271-.919.656-2.2,1.147-3.8.834-2.723,1.694-5.476,1.7-5.5a.664.664,0,0,1,1.268.4c-.572,1.83-1.307,4.2-1.938,6.273a12.877,12.877,0,0,1,1.922-1.751,12.74,12.74,0,0,1,4.44-2.118,8.223,8.223,0,0,1-1.017-2.19.664.664,0,1,1,1.276-.37,7.338,7.338,0,0,0,1.4,2.579.664.664,0,0,1-.407,1.075,11.341,11.341,0,0,0-4.9,2.091,12.11,12.11,0,0,0-4.018,5.312c-.032.08-.057.138-.08.184a.687.687,0,0,1-.625.412m-.568-1h0" transform="translate(-120.167 -856.31)" fill="#444"/>
      </g>
    </g>
  </g>
</svg>
