<svg xmlns="http://www.w3.org/2000/svg" viewBox="0 0 165.511 137.809">
  <g id="グループ_32285" data-name="グループ 32285" transform="translate(-74.831 0)">
    <g id="グループ_13818" data-name="グループ 13818" transform="translate(12176.916 6977)">
      <g id="グループ_13813" data-name="グループ 13813" transform="translate(-12102.085 -6977)">
        <g id="グループ_13814" data-name="グループ 13814" transform="translate(0 0)">
          <path id="パス_14203" data-name="パス 14203" d="M162.631,46.206a39.5,39.5,0,0,0-54.494-33.934,6.552,6.552,0,0,1-5.844-.4A56.826,56.826,0,0,0,16.9,55.444a6.55,6.55,0,0,1-1.547,3.634,47.33,47.33,0,0,0,63.769,69.049A50.43,50.43,0,0,0,158,71.951a6.6,6.6,0,0,1,.377-5.2,39.288,39.288,0,0,0,4.253-20.549" transform="translate(2.796 -1.196)" fill="#ffea46"/>
          <path id="パス_14021" data-name="パス 14021" d="M162.631,46.206a39.5,39.5,0,0,0-54.494-33.934,6.552,6.552,0,0,1-5.844-.4A56.826,56.826,0,0,0,16.9,55.444a6.55,6.55,0,0,1-1.547,3.634,47.33,47.33,0,0,0,63.769,69.049A50.43,50.43,0,0,0,158,71.951a6.6,6.6,0,0,1,.377-5.2,39.288,39.288,0,0,0,4.253-20.549" transform="translate(-3.204 -3.196)" fill="#fff"/>
          <path id="パス_14022" data-name="パス 14022" d="M48.09,134.755a48.156,48.156,0,0,1-36.568-79.41,5.694,5.694,0,0,0,1.353-3.175A57.664,57.664,0,0,1,94.9,5.522a.827.827,0,0,1-.709,1.5A56.007,56.007,0,0,0,14.522,52.326a7.342,7.342,0,0,1-1.741,4.094,46.5,46.5,0,0,0,62.653,67.842.827.827,0,0,1,.972,1.339,48.016,48.016,0,0,1-25.135,9.051q-1.6.1-3.182.1" transform="translate(0 0)" fill="#555"/>
          <path id="パス_14023" data-name="パス 14023" d="M418.136,156.979a50.865,50.865,0,0,1-26.407-7.361.828.828,0,0,1,.856-1.417,49.608,49.608,0,0,0,72.427-58.83,7.471,7.471,0,0,1,.422-5.846,38.667,38.667,0,0,0-49.189-53.341,7.448,7.448,0,0,1-6.6-.46q-.359-.212-.721-.418a.827.827,0,1,1,.819-1.438q.373.212.743.43a5.707,5.707,0,0,0,5.123.357A40.316,40.316,0,0,1,466.906,84.28a5.809,5.809,0,0,0-.332,4.546,51.254,51.254,0,0,1-45.068,68.044q-1.689.109-3.37.109" transform="translate(-310.996 -20.343)" fill="#555"/>
        </g>
      </g>
    </g>
    <g id="グループ_13832" data-name="グループ 13832" transform="translate(114.006 43.736)">
      <path id="パス_13975" data-name="パス 13975" d="M190.747,10.428c.2,4.339-3.4,8.884-4.96,10.637l-.02.02a42.487,42.487,0,0,1-3.867,4.938,8.856,8.856,0,0,1-1.259,1.131l-.915.7a.867.867,0,0,0-.583.229c-2.185,2.006-4.033,2.047-6.373.141a32.4,32.4,0,0,1-6.674-7.474l-.107-.164c-2.671-4.141-6-9.293-2.927-13.687a5.83,5.83,0,0,1,5.506-2.835c2.777.29,5.637,2.615,6.958,5.654a.87.87,0,0,0,1.639-.1,7.9,7.9,0,0,1,5.3-5.321,6.158,6.158,0,0,1,6.045,1.481,6.6,6.6,0,0,1,2.235,4.649" transform="translate(-127.827 -2.213)" fill="#ffea46"/>
      <path id="パス_13976" data-name="パス 13976" d="M7.715,175.608a.794.794,0,0,1-.686-.4.8.8,0,0,1,.288-1.086c8.754-5.069,15.805-9.145,17.271-9.99l.169-.1-9.634-16.053-.167.109c-1.611,1.048-6.177,3.969-13.759,8.442a.8.8,0,0,1-1.087-.281.792.792,0,0,1,.28-1.086c9.055-5.343,13.688-8.392,14.525-8.949l.016-.011a.791.791,0,0,1,1.128.248L26.1,163.2l2.727-1.61-8.261-13.18-1.254.8a.793.793,0,0,1-.837-1.348l1.1-.688a1.661,1.661,0,0,1,.939-.282,1.805,1.805,0,0,1,.372.039,1.721,1.721,0,0,1,1.111.778l.32.51.162-.1a25.354,25.354,0,0,1,5.743-2.844,22.114,22.114,0,0,1,5.052-.7,14.282,14.282,0,0,1,1.63.092c1,.113,2.068.27,3.258.448l.032.005c1.336.2,2.595.386,3.565.466.214.017.527.026.957.026,1.386,0,3.61-.087,5.961-.184,1.932-.078,3.149-.126,3.792-.126.155,0,.276,0,.366.009,3.4.222,4.708,1.778,5.205,3.045a.8.8,0,0,1-.081.732.792.792,0,0,1-.369.3.367.367,0,0,1-.05.017l-.592-.017-.17-.145a.775.775,0,0,1-.218-.3c-.478-1.22-1.767-1.907-3.83-2.041-.057,0-.142-.006-.25-.006-.661,0-2.277.066-3.7.125l-.049,0c-2.127.086-4.52.182-6.011.182-.478,0-.845-.01-1.09-.03-1.032-.087-2.312-.277-3.666-.478l-.011,0c-1.19-.178-2.248-.333-3.228-.445a12.683,12.683,0,0,0-1.431-.08,20.708,20.708,0,0,0-4.711.656,26.968,26.968,0,0,0-5.253,2.638l-.17.1,5.058,8.09.133-.03a.7.7,0,0,1,.133-.021c.457-.026.905-.04,1.337-.04a17.254,17.254,0,0,1,3.034.251,79.392,79.392,0,0,0,12.007,1.315A13.255,13.255,0,0,0,46.955,159c4.41-.729,15.031-4.532,16.485-5.47,1.556-1,6.548-6.713,7.2-7.8l.017-.028.006-.032a1.177,1.177,0,0,0-.457-1.276,1.071,1.071,0,0,0-.555-.139,3.34,3.34,0,0,0-2.138,1.1c-.3.275-.6.555-.888.826l-.147.139c-1.75,1.645-3.4,3.2-5.309,3.888a4.828,4.828,0,0,1-1.377.282l-.061,0a.764.764,0,0,1-.508-.194.794.794,0,0,1,.472-1.392,3.255,3.255,0,0,0,.935-.192c1.6-.578,3.136-2.023,4.76-3.552l.2-.189c.277-.259.561-.525.848-.788a5.034,5.034,0,0,1,3.232-1.519,2.586,2.586,0,0,1,1.352.367,2.766,2.766,0,0,1,1.155,3.121c-.266,1.023-6.3,7.7-7.875,8.712-1.744,1.123-12.685,4.975-17.085,5.7a14.876,14.876,0,0,1-2.338.151,82.692,82.692,0,0,1-12.3-1.336,15.641,15.641,0,0,0-2.748-.223l-.321,0-.341.005.913,1.461a1.739,1.739,0,0,1-.591,2.421l-2.526,1.489a.741.741,0,0,1-.29.094l-.093.013-.047.081a.807.807,0,0,1-.285.289c-.015.007-8.054,4.652-18.138,10.492a.8.8,0,0,1-.4.107" transform="translate(0 -115.248)" fill="#444"/>
      <path id="パス_13977" data-name="パス 13977" d="M171.4,27.143a6.491,6.491,0,0,1-4.02-1.636,32.426,32.426,0,0,1-6.8-7.4l-.1-.154c-2.7-4.064-6.4-9.629-2.81-14.622a7.371,7.371,0,0,1,6-3.332,7.232,7.232,0,0,1,.724.037,10.187,10.187,0,0,1,7.12,4.653l.176.267.154-.28A9.055,9.055,0,0,1,177.332.3a7.974,7.974,0,0,1,2.111-.289,7.628,7.628,0,0,1,5.168,2.02,7.612,7.612,0,0,1,2.668,5.433c.161,3.335-1.74,6.68-3.552,9.126-.549.743-1.185,1.48-1.648,1.987-.287.334-2.823,3.272-4.594,5.048a.661.661,0,0,1-.933,0,.664.664,0,0,1-.146-.219.655.655,0,0,1,.146-.711c1.824-1.83,4.513-4.963,4.534-4.988l0,0c1.538-1.68,5.074-6.018,4.872-10.177a6.345,6.345,0,0,0-2.232-4.518,6.308,6.308,0,0,0-4.264-1.685,6.735,6.735,0,0,0-1.783.246,7.753,7.753,0,0,0-5.28,5.146.655.655,0,0,1-.59.462l-.043,0a.657.657,0,0,1-.6-.389,9.215,9.215,0,0,0-6.91-5.444,5.934,5.934,0,0,0-.6-.031,6,6,0,0,0-4.92,2.783c-3.056,4.251.211,9.17,2.836,13.123l.106.157a31.052,31.052,0,0,0,6.518,7.091,5.183,5.183,0,0,0,3.2,1.359,4.868,4.868,0,0,0,3.234-1.5.66.66,0,0,1,.878.986,6.156,6.156,0,0,1-4.109,1.825" transform="translate(-126.102 -0.068)" fill="#444"/>
      <path id="パス_13977_-_アウトライン" data-name="パス 13977 - アウトライン" d="M171.334,27.207a6.616,6.616,0,0,1-4.1-1.665,32.559,32.559,0,0,1-6.827-7.429l-.1-.154c-2.722-4.1-6.449-9.7-2.808-14.772A7.5,7.5,0,0,1,163.6-.2a7.362,7.362,0,0,1,.738.037,10.321,10.321,0,0,1,7.217,4.712l.055.083.048-.088a9.187,9.187,0,0,1,5.568-4.44,8.108,8.108,0,0,1,2.146-.293,7.758,7.758,0,0,1,5.256,2.054,7.74,7.74,0,0,1,2.711,5.525c.226,4.7-3.583,9.4-5.234,11.207-.289.336-2.82,3.269-4.6,5.054a.793.793,0,0,1-1.12,0,.8.8,0,0,1-.175-.263.787.787,0,0,1,.175-.855c1.808-1.814,4.5-4.951,4.525-4.979l.013-.016.007,0c1.527-1.671,5.024-5.969,4.825-10.069a6.217,6.217,0,0,0-2.189-4.426,6.177,6.177,0,0,0-4.175-1.651,6.6,6.6,0,0,0-1.748.242,7.62,7.62,0,0,0-5.189,5.058.786.786,0,0,1-.709.555l-.051,0a.79.79,0,0,1-.718-.467,9.077,9.077,0,0,0-6.8-5.367,5.8,5.8,0,0,0-.585-.03,5.877,5.877,0,0,0-4.813,2.728c-3,4.176.236,9.054,2.838,12.972l.105.156a30.917,30.917,0,0,0,6.491,7.062,5.062,5.062,0,0,0,3.116,1.33,4.746,4.746,0,0,0,3.146-1.466.792.792,0,0,1,1.055,1.183A6.281,6.281,0,0,1,171.334,27.207ZM163.6.065a7.242,7.242,0,0,0-5.892,3.277c-3.535,4.919.134,10.44,2.813,14.472l.1.154a32.29,32.29,0,0,0,6.771,7.368,6.365,6.365,0,0,0,3.938,1.608,6.031,6.031,0,0,0,4.021-1.792.528.528,0,0,0-.7-.788,4.989,4.989,0,0,1-3.321,1.532,5.305,5.305,0,0,1-3.281-1.387,31.184,31.184,0,0,1-6.546-7.122l-.105-.156c-2.648-3.988-5.943-8.949-2.834-13.274a6.13,6.13,0,0,1,5.027-2.838,6.064,6.064,0,0,1,.612.031,9.352,9.352,0,0,1,7.017,5.522.525.525,0,0,0,.477.311h.035a.524.524,0,0,0,.473-.369,7.887,7.887,0,0,1,5.371-5.234,6.867,6.867,0,0,1,1.818-.251,6.438,6.438,0,0,1,4.352,1.719,6.472,6.472,0,0,1,2.276,4.61c.2,4.21-3.363,8.587-4.906,10.273l-.015.015c-.217.253-2.756,3.2-4.527,4.98a.523.523,0,0,0-.117.568.531.531,0,0,0,.117.175.529.529,0,0,0,.746,0c1.776-1.781,4.3-4.713,4.587-5.041l0,0c1.627-1.779,5.388-6.415,5.166-11.018a7.485,7.485,0,0,0-2.624-5.341A7.5,7.5,0,0,0,179.374.077,7.843,7.843,0,0,0,177.3.361a8.921,8.921,0,0,0-5.406,4.312l-.259.473-.3-.45A10.052,10.052,0,0,0,164.313.1,7.1,7.1,0,0,0,163.6.065Z" transform="translate(-126.032)" fill="#444"/>
      <path id="パス_13978" data-name="パス 13978" d="M204.416,184.422a.932.932,0,0,1-.148-.013.8.8,0,0,1-.176-1.511l.14-.07a25.561,25.561,0,0,1,5.149-2.121,40.321,40.321,0,0,1,4.9-.205l.1,0c.423-.006.788-.012,1.029-.017a30.544,30.544,0,0,0,3.605-.365c1.257-.2,1.591-.42,1.732-.564l.028-.027,1.112.033a.8.8,0,0,1-.005,1.106,4.708,4.708,0,0,1-2.611,1.02,32.1,32.1,0,0,1-3.821.385l-.818.014-.332.005c-2.027.029-4.143.071-4.564.167a23.148,23.148,0,0,0-4.787,1.988,1.14,1.14,0,0,1-.535.178" transform="translate(-164.395 -145.016)" fill="#444"/>
    </g>
  </g>
</svg>
