<svg xmlns="http://www.w3.org/2000/svg" viewBox="0 0 182.378 136.514">
  <g id="グループ_32285" data-name="グループ 32285" transform="translate(-64.004 0)">
    <g id="グループ_13810" data-name="グループ 13810" transform="translate(64.004)">
      <g id="グループ_13811" data-name="グループ 13811" transform="translate(0 0)">
        <path id="パス_14195" data-name="パス 14195" d="M161.91,48.9c-2.793-39.276-52.989-59.574-80.4-32.449a3.583,3.583,0,0,1-4.285.613C55.375,4.929,25.84,20.478,23.2,46.655c-37.33,30.848-12.414,89.781,36.114,91.074A61.388,61.388,0,0,0,103.329,123.1C147.364,155.789,209.8,93.463,165.36,55.81a9.984,9.984,0,0,1-3.45-6.914" transform="translate(1.754 -1.327)" fill="#ffea46"/>
        <path id="パス_14012" data-name="パス 14012" d="M161.91,48.9c-2.793-39.276-52.989-59.574-80.4-32.449a3.583,3.583,0,0,1-4.285.613C55.375,4.929,25.84,20.478,23.2,46.655c-37.33,30.848-12.414,89.781,36.114,91.074A61.388,61.388,0,0,0,103.329,123.1C147.364,155.789,209.8,93.463,165.36,55.81a9.984,9.984,0,0,1-3.45-6.914" transform="translate(-4.246 -3.277)" fill="#fff"/>
        <path id="パス_14013" data-name="パス 14013" d="M213.637,129.19a46.727,46.727,0,0,1-23.216-5.913.779.779,0,0,1-.291-1.034.716.716,0,0,1,.992-.3A45.907,45.907,0,0,0,216.3,127.6a54.539,54.539,0,0,0,24.853-7.492c12.968-7.669,20.692-19.65,21.19-32.869,0-.009,0-.018,0-.026.915-12.826-4.464-25.267-14.758-34.133a10.811,10.811,0,0,1-3.661-7.4,45.445,45.445,0,0,0-9.725-25.034A50.57,50.57,0,0,0,213.411,5.2,48.486,48.486,0,0,0,188.09,2.03a41.826,41.826,0,0,0-23.325,11.69,4.275,4.275,0,0,1-5.12.74,32.466,32.466,0,0,0-15.827-4.081,37.342,37.342,0,0,0-15.851,3.541A36.067,36.067,0,0,0,107.7,38.257a.73.73,0,0,1-.884.559.765.765,0,0,1-.536-.922,36.037,36.037,0,0,1,7.792-15.3,39.6,39.6,0,0,1,13.3-10.062,38.9,38.9,0,0,1,16.454-3.674,33.87,33.87,0,0,1,16.509,4.26,2.862,2.862,0,0,0,3.426-.5A43.259,43.259,0,0,1,187.881.52a49.893,49.893,0,0,1,26.058,3.255c18.088,7.3,30.139,23.309,31.45,41.787a9.259,9.259,0,0,0,3.134,6.337c10.662,9.182,16.233,22.087,15.286,35.408-.523,13.754-8.515,26.19-21.929,34.122a55.964,55.964,0,0,1-25.5,7.689q-1.377.071-2.74.071" transform="translate(-86.995 0)" fill="#555"/>
        <path id="パス_14014" data-name="パス 14014" d="M58.914,317.346q-1.938,0-3.89-.115c-16.947-1-32.592-8.617-42.923-20.9A50.261,50.261,0,0,1,.124,260.316a51.523,51.523,0,0,1,18.16-35.335.728.728,0,0,1,.79-.5.758.758,0,0,1,.622.861l-.02.154a.771.771,0,0,1-.26.488c-10.563,9.056-16.9,21.29-17.835,34.446A48.707,48.707,0,0,0,13.2,295.323c10.074,11.98,25.348,19.41,41.906,20.386a62.244,62.244,0,0,0,23.839-3.186,58.262,58.262,0,0,0,19.668-11.266.71.71,0,0,1,1.029.095.785.785,0,0,1-.091,1.074A59.7,59.7,0,0,1,79.4,313.972a63.337,63.337,0,0,1-20.485,3.374" transform="translate(0 -182.017)" fill="#555"/>
      </g>
    </g>
    <g id="グループ_13830" data-name="グループ 13830" transform="translate(12251.468 6863.34)">
      <path id="パス_13984" data-name="パス 13984" d="M12.366,0A12.366,12.366,0,1,1,0,12.366c0-2.71.189-5.543,2.541-6.54.606-.256,3.357,1.91,4.034,1.3,1.466-.914-.216-3.786.357-4.985C7.872.173,10.243,0,12.366,0Z" transform="translate(-12108.832 -6806.906)" fill="#ffea46"/>
      <path id="パス_13979" data-name="パス 13979" d="M116.524,276.467a.715.715,0,0,1-.35-.094c-4.186-2.425-12.208-6.948-15.462-8.781l-.214-.121a1.591,1.591,0,0,1-.542-2.217l.92-1.474h-.388c-.117,0-.237,0-.355,0a14.6,14.6,0,0,0-2.6.213,78.524,78.524,0,0,1-11.646,1.263,13.957,13.957,0,0,1-2.2-.143c-4.167-.688-14.521-4.332-16.171-5.394a32.368,32.368,0,0,1-4.207-4.133,23.092,23.092,0,0,1-3.231-4.092,2.561,2.561,0,0,1,1.07-2.9,2.387,2.387,0,0,1,1.25-.34,4.723,4.723,0,0,1,3.028,1.426c.31.284.624.579.9.84l.108.1a14.978,14.978,0,0,0,4.514,3.363,3.182,3.182,0,0,0,.9.186.685.685,0,0,1,.479.232.827.827,0,0,1,.081.107.7.7,0,0,1-.592,1.051h0l-.045,0a4.476,4.476,0,0,1-1.291-.266,15.907,15.907,0,0,1-5.01-3.671l-.124-.116c-.281-.264-.568-.534-.858-.8a3.22,3.22,0,0,0-2.065-1.059,1.07,1.07,0,0,0-.555.14,1.166,1.166,0,0,0-.458,1.271l.013.042.013.024c.6,1.01,5.4,6.494,6.839,7.42a53.463,53.463,0,0,0,6.78,2.676,70.779,70.779,0,0,0,8.863,2.516,12.846,12.846,0,0,0,1.985.127,75.661,75.661,0,0,0,11.392-1.246,16.243,16.243,0,0,1,2.873-.237c.406,0,.826.012,1.249.037a.761.761,0,0,1,.137.021l.136.03.088-.114,4.768-7.626-.187-.116a24.29,24.29,0,0,0-5.014-2.518,20.026,20.026,0,0,0-4.476-.623,12.362,12.362,0,0,0-1.363.076c-.9.1-1.894.249-2.852.391l-.212.031c-1.226.184-2.492.373-3.479.455-.232.019-.581.029-1.038.029-1.392,0-3.617-.09-5.58-.169l-.1,0-.052,0c-1.4-.057-2.852-.116-3.486-.116-.113,0-.2,0-.26.006-1.979.129-3.217.792-3.679,1.97a.679.679,0,0,1-.2.272l-.873.026a.66.66,0,0,1-.146-.153.734.734,0,0,1-.068-.121.689.689,0,0,1-.01-.532c.842-2.149,3.121-2.736,4.885-2.851.081-.006.2-.009.347-.009.617,0,1.766.045,3.586.12,2.13.088,4.321.173,5.647.173.408,0,.707-.008.912-.024.923-.077,2.11-.254,3.367-.44l.041-.006c1.131-.169,2.143-.318,3.094-.426a13.483,13.483,0,0,1,1.536-.087,21.042,21.042,0,0,1,4.776.66,25.808,25.808,0,0,1,5.443,2.7l.186.1.327-.524a1.583,1.583,0,0,1,1.017-.714,1.678,1.678,0,0,1,.339-.035,1.528,1.528,0,0,1,.848.248l12.731,7.263a.7.7,0,0,1-.365,1.291.706.706,0,0,1-.368-.105l-12.9-7.4-7.891,12.589.18.1c1.526.855,9.452,5.3,15.678,8.911a.694.694,0,0,1,.253.951.7.7,0,0,1-.6.348" transform="translate(-12181.179 -7029.807)" fill="#444"/>
      <path id="パス_13980" data-name="パス 13980" d="M35.66,93.4A13.6,13.6,0,0,1,24.68,71.783l.068-.092-.047-.1c-.021-.047-.045-.094-.068-.138-.587-1.174-.911-1.823-2.072-2.258-.578-.216-1.16-.4-1.755-.584a16.083,16.083,0,0,1-3.348-1.326,24.442,24.442,0,0,1-3.978-3.9,26.533,26.533,0,0,0-2.8-2.87c-.882-.586-5.735-1.523-8.587-1.976a.676.676,0,0,1-.563-.774.681.681,0,0,1,.669-.571.646.646,0,0,1,.106.008c3.535.561,8.047,1.471,9.127,2.186a24.747,24.747,0,0,1,3.051,3.089A25.94,25.94,0,0,0,18.127,66.1,15.012,15.012,0,0,0,21.2,67.311l.071.022c.572.179,1.164.365,1.765.59a4.866,4.866,0,0,1,2.806,2.917c.156.314.326.653.533,1.024A3.788,3.788,0,0,0,28.4,73.817a1.567,1.567,0,0,0,.426.061,1.635,1.635,0,0,0,.826-.235.917.917,0,0,0,.432-.654,6.043,6.043,0,0,0-1.094-3.955,30.853,30.853,0,0,1-1.909-3.24c-.113-.215-.219-.418-.336-.634a4.252,4.252,0,0,1-.58-3.35c.354-1.052,1.724-1.925,2.811-2.472a3.792,3.792,0,0,1,1.69-.43,2.879,2.879,0,0,1,.974.166,3.582,3.582,0,0,1,2,2.061,6.223,6.223,0,0,1,.71,2.235,9.212,9.212,0,0,0,.182,1.084l0,.023c.035.157.313,1.165.431,1.591l.042.15.155-.006c.157-.006.312-.01.469-.01h.032a13.647,13.647,0,0,1,2.939.324l1.816.537a13.67,13.67,0,0,1,8.84,12.705A13.6,13.6,0,0,1,35.691,93.4ZM25.426,73.4a12.068,12.068,0,1,0,10.236-5.674h-.028a11.943,11.943,0,0,0-4.96,1.078l-.187.086.094.183A6.6,6.6,0,0,1,31.4,73.3c-.016.067-.035.131-.055.194l-.242.562.4-.237a1.267,1.267,0,0,1,.279-.033,1,1,0,0,1,.8.468l3.3,5.4,3.045-5.4a1.1,1.1,0,0,1,.841-.487c.745.169.709.518.744.948a1.443,1.443,0,0,1-.151.609L37.72,79.68l1.694-.026c.3,0,.8.09.8.694,0,.589-.434.712-.8.712h-2.3l-.346.387v.75h2.641c.3,0,.8.09.8.694,0,.589-.434.712-.8.712H36.773v2.409c0,.72-.33,1.186-1.008,1.186s-1-.454-1-1.186V83.6H31.979c-.365,0-.8-.124-.8-.712,0-.6.5-.694.8-.694h2.789v-.786l-.3-.351H31.979c-.365,0-.8-.124-.8-.712,0-.6.5-.694.8-.694l1.89.066-2.8-4.687a1.207,1.207,0,0,1-.134-.366l-.055-.278-.483.38-.04.026-.033.021a3,3,0,0,1-1.5.413,2.945,2.945,0,0,1-.785-.109,4.387,4.387,0,0,1-2.286-1.729l-.171-.231Zm5.241-13.143a2.44,2.44,0,0,0-1.082.287c-1.389.7-2.017,1.346-2.132,1.689a3.119,3.119,0,0,0,.489,2.285c.092.171.179.335.263.494l.075.142c.358.685.7,1.334,1.3,2.285l.093.148.158-.075a13.542,13.542,0,0,1,3.6-1.127l.215-.036-.058-.211c-.091-.33-.333-1.207-.371-1.379A10.222,10.222,0,0,1,33,63.529a5.11,5.11,0,0,0-.6-1.844,2.29,2.29,0,0,0-1.215-1.337,1.528,1.528,0,0,0-.518-.087" transform="translate(-12134.223 -6876.316)" fill="#444"/>
      <path id="パス_13982" data-name="パス 13982" d="M146.862,286.243a1.041,1.041,0,0,1-.47-.158,22.008,22.008,0,0,0-4.562-1.894c-.407-.091-2.324-.13-4.335-.158l-.032,0c-.421-.006-.81-.012-1.057-.018a30.391,30.391,0,0,1-3.612-.364,4.4,4.4,0,0,1-2.442-.948.7.7,0,0,1,0-.972l.075-.059.146-.126.418-.012.017,0a.691.691,0,0,1,.343.191c.138.141.461.351,1.672.55a29.435,29.435,0,0,0,3.424.345c.216.006.54.012.887.016l.187,0a37.894,37.894,0,0,1,4.63.194,24.08,24.08,0,0,1,4.864,2l.132.067a.7.7,0,0,1,.414.522.685.685,0,0,1-.116.518.7.7,0,0,1-.452.286.778.778,0,0,1-.125.013" transform="translate(-12237.552 -7056.536)" fill="#444"/>
      <path id="パス_13983" data-name="パス 13983" d="M37.168,21.487c-.162-1.16-.524-4.3-.524-4.861a30.874,30.874,0,0,0-2.3-5.7A59.826,59.826,0,0,0,31.21,4.872c-.78-1.091-2.844-1.644-6.134-1.644-.659,0-1.749.008-3.011.018-1.9.015-4.491.035-6.915.035-3.437,0-5.705-.041-6.935-.124A33.546,33.546,0,0,1,.441,1.31.667.667,0,0,1,.063.958.672.672,0,0,1,.043.439.682.682,0,0,1,.679,0,.669.669,0,0,1,.913.042,32.217,32.217,0,0,0,8.306,1.807c1.192.081,3.443.12,6.881.12,2.481,0,5.113-.021,6.855-.035h.167c1.251-.009,2.232-.017,2.868-.017,3.857,0,6.155.7,7.234,2.211a61.028,61.028,0,0,1,3.257,6.265C37.576,14.642,38,16.132,38,16.626s.37,3.648.535,4.826l-.088.014Z" transform="translate(-12133 -6830.38)" fill="#444"/>
    </g>
  </g>
</svg>
