<svg xmlns="http://www.w3.org/2000/svg" viewBox="0 0 196.947 134.708">
  <g id="グループ_32285" data-name="グループ 32285" transform="translate(-59.208 0)">
    <g id="グループ_13816" data-name="グループ 13816" transform="translate(-324.792 -487.604)">
      <g id="グループ_13817" data-name="グループ 13817" transform="translate(384 487.604)">
        <path id="パス_14199" data-name="パス 14199" d="M168.461,37.131c-4.73-28.08-43.089-42.006-66.829-25.754a3.911,3.911,0,0,1-4.1.2C76.861.133,53.027,6.012,38.557,18.391c-8.982,7.684-15.845,17.166-16.506,28.389C5.546,60.976,6.027,71.476,4.558,84.651c1.36,32.3,40.661,52.686,69.829,37.951,4.965,14.477,27.7,18.582,38.162,7.1,58.727,30.754,116.086-54.172,57.731-89.848a3.944,3.944,0,0,1-1.819-2.72" transform="translate(2.297 -1.625)" fill="#ffea46"/>
        <path id="パス_14030" data-name="パス 14030" d="M168.461,37.131c-4.73-28.08-43.089-42.006-66.829-25.754a3.911,3.911,0,0,1-4.1.2C76.861.133,53.027,6.012,38.557,18.391c-8.982,7.684-15.845,17.166-16.506,28.389C5.546,60.976,6.027,71.476,4.558,84.651c1.36,32.3,40.661,52.686,69.829,37.951,4.965,14.477,27.7,18.582,38.162,7.1,58.727,30.754,116.086-54.172,57.731-89.848a3.944,3.944,0,0,1-1.819-2.72" transform="translate(-3.704 -3.625)" fill="#fff"/>
        <path id="パス_14031" data-name="パス 14031" d="M92.075,315.851a24.613,24.613,0,0,1-12.934-3.617,22.568,22.568,0,0,1-8.851-9.991A50.958,50.958,0,0,1,52.247,306.7q-1.624.1-3.24.1a50.319,50.319,0,0,1-32.3-11.545A45.318,45.318,0,0,1,.1,263.328a44.41,44.41,0,0,1,4.087-21.82A47.249,47.249,0,0,1,17.881,224.44a.755.755,0,0,1,.93,1.191A45.734,45.734,0,0,0,5.558,242.148,42.9,42.9,0,0,0,1.61,263.224a43.82,43.82,0,0,0,16.062,30.867,49.865,49.865,0,0,0,52.688,6.454.756.756,0,0,1,1.026.4,20.938,20.938,0,0,0,8.545,10,23.226,23.226,0,0,0,13.615,3.35,22.735,22.735,0,0,0,14.766-6.506.755.755,0,0,1,1.068,1.069A24.246,24.246,0,0,1,93.636,315.8q-.783.047-1.561.047" transform="translate(0 -182.25)" fill="#555"/>
        <path id="パス_14032" data-name="パス 14032" d="M214.506,133.344a56.781,56.781,0,0,1-21.628-4.415.755.755,0,0,1,.573-1.4c30.632,12.555,58.405-4.211,70.009-27.261,5.517-10.96,7.185-22.935,4.7-33.722-2.792-12.106-10.678-22.38-22.8-29.711a4.7,4.7,0,0,1-2.177-3.094C239.276,14.122,220.216.3,198.831,1.6A44.283,44.283,0,0,0,177.62,8.437a4.683,4.683,0,0,1-4.928.062c-13.3-8.071-31.46-8.557-47.4-1.268a50.625,50.625,0,0,0-17.258,12.715,38.449,38.449,0,0,0-9.06,18.877.755.755,0,1,1-1.49-.252,39.94,39.94,0,0,1,9.405-19.612,52.147,52.147,0,0,1,17.774-13.1c16.388-7.495,35.091-6.977,48.811,1.35a3.162,3.162,0,0,0,3.328-.042A45.8,45.8,0,0,1,198.74.087c22.128-1.34,41.871,13,45.918,33.362a3.184,3.184,0,0,0,1.476,2.1c12.485,7.547,20.61,18.151,23.5,30.664,2.567,11.129.855,23.467-4.82,34.74-9.1,18.081-27.9,32.394-50.3,32.394" transform="translate(-79.208 0)" fill="#555"/>
      </g>
    </g>
    <g id="グループ_13831" data-name="グループ 13831" transform="translate(12203.712 6819)">
      <path id="パス_13959" data-name="パス 13959" d="M261.224,39.066a7.167,7.167,0,0,1-2.663-.49,12.125,12.125,0,0,1-3.093-1.88,14.9,14.9,0,0,0-1.956-1.33l-.018-.009c-3.1-1.772-8.745-1.1-10.662,2.192a.737.737,0,0,1-1.273-.742,8.345,8.345,0,0,1,5.783-3.694,10.375,10.375,0,0,1,6.874.96,16.274,16.274,0,0,1,2.143,1.451,10.8,10.8,0,0,0,2.727,1.676l.019.007a6.444,6.444,0,0,0,4.776-.163,4.018,4.018,0,0,0,2.237-2.168.737.737,0,0,1,1.382.513,5.458,5.458,0,0,1-3.025,3,8.135,8.135,0,0,1-3.251.674" transform="translate(-12280.253 -6807.085)" fill="#444"/>
      <path id="パス_13960" data-name="パス 13960" d="M252.91,29.023h-.054a13.7,13.7,0,0,1-9.757-4.3,14.31,14.31,0,0,1-4.16-9.9,15.023,15.023,0,0,1,4.232-10.312A13.956,13.956,0,0,1,253.118,0h.1c7.328.069,13.513,6.737,13.511,14.563a14.8,14.8,0,0,1-3.988,10.29,13.454,13.454,0,0,1-9.826,4.169m.2-27.548a12.478,12.478,0,0,0-8.876,4.05,13.537,13.537,0,0,0-3.825,9.286,12.843,12.843,0,0,0,3.742,8.883,12.244,12.244,0,0,0,8.71,3.856h.05a11.991,11.991,0,0,0,8.756-3.714,13.33,13.33,0,0,0,3.58-9.273c0-7.033-5.515-13.027-12.047-13.088Zm-9.41,3.542h0Z" transform="translate(-12278.302 -6781.602)" fill="#444"/>
      <path id="パス_13961" data-name="パス 13961" d="M245.372,145.965a64.485,64.485,0,0,0-18.292,0c-5.4.786-9.439,6.346-9.439,12.885v12.465h37.15V158.845c0-6.53-4.026-12.094-9.419-12.881" transform="translate(-12258.916 -6891.215)" fill="#ffea46"/>
      <path id="パス_13962" data-name="パス 13962" d="M252.265,169.53a.736.736,0,0,1-.737-.737V156.328c0-6.2-3.778-11.421-8.788-12.152a63.875,63.875,0,0,0-18.07,0c-5.031.732-8.818,5.958-8.818,12.157v12.465a.737.737,0,0,1-1.474,0V156.329c0-6.926,4.329-12.779,10.07-13.614a65.469,65.469,0,0,1,18.514,0c5.72.834,10.04,6.685,10.04,13.608v12.466a.736.736,0,0,1-.737.737" transform="translate(-12259.285 -6891.593)" fill="#444"/>
      <path id="パス_13963" data-name="パス 13963" d="M31,145.965a64.487,64.487,0,0,0-18.292,0c-5.4.786-9.439,6.346-9.439,12.885v12.465h37.15V158.845c0-6.53-4.026-12.094-9.419-12.881" transform="translate(-12092.932 -6891.215)" fill="#ffea46"/>
      <path id="パス_13964" data-name="パス 13964" d="M37.887,169.53h0a.736.736,0,0,1-.737-.737V156.328c0-6.2-3.778-11.421-8.788-12.152a63.877,63.877,0,0,0-18.07,0c-5.031.732-8.818,5.958-8.818,12.157v12.465a.737.737,0,0,1-1.473,0V156.329c0-6.926,4.329-12.779,10.07-13.614a65.467,65.467,0,0,1,18.513,0c5.72.834,10.04,6.685,10.04,13.608v12.466a.737.737,0,0,1-.737.737" transform="translate(-12093.299 -6891.593)" fill="#444"/>
      <path id="パス_13965" data-name="パス 13965" d="M39.273,31.879h-.051a13.706,13.706,0,0,1-9.76-4.3,14.311,14.311,0,0,1-4.16-9.9A15.022,15.022,0,0,1,29.534,7.364,13.957,13.957,0,0,1,39.48,2.857h.1C46.9,2.926,53.089,9.595,53.087,17.42A14.8,14.8,0,0,1,49.1,27.71a13.454,13.454,0,0,1-9.826,4.169M30.6,8.38a13.537,13.537,0,0,0-3.825,9.286,12.846,12.846,0,0,0,3.742,8.883,12.244,12.244,0,0,0,8.71,3.856h.048a11.992,11.992,0,0,0,8.758-3.714,13.329,13.329,0,0,0,3.58-9.273c0-7.033-5.515-13.027-12.047-13.088h-.09A12.479,12.479,0,0,0,30.6,8.38" transform="translate(-12112.889 -6783.813)" fill="#444"/>
      <path id="パス_13966" data-name="パス 13966" d="M33.866,34.427a14.468,14.468,0,0,0,4.8-.865c2.8-.984,4-1.884,6.437-4.225,1.662,2.716,5.884,3.716,8.563,4.155a.737.737,0,0,0,.238-1.454c-2.5-.41-6.571-1.476-7.976-4.242a.737.737,0,0,0-1.186-.179c-2.434,2.517-3.708,3.55-6.565,4.554a10.817,10.817,0,0,1-9.106-.425.737.737,0,1,0-.708,1.292,11.33,11.33,0,0,0,5.506,1.388" transform="translate(-12114.96 -6802.211)" fill="#444"/>
    </g>
  </g>
</svg>
