<svg id="グループ_13748" data-name="グループ 13748" xmlns="http://www.w3.org/2000/svg" xmlns:xlink="http://www.w3.org/1999/xlink" viewBox="0 0 276.287 189.435">
  <defs>
    <clipPath id="clip-path">
      <rect id="長方形_24418" data-name="長方形 24418" width="276.287" height="189.435" fill="none"/>
    </clipPath>
  </defs>
  <g id="グループ_13747" data-name="グループ 13747" clip-path="url(#clip-path)">
    <path id="パス_13741" data-name="パス 13741" d="M70.4,66.066c-.215,0-3.032.2-3.3.176a19.788,19.788,0,0,1-.725,2.67,10.375,10.375,0,0,1-3.47,3.732c-4.439,3.223,14.236,2.117,11.148.34a12.228,12.228,0,0,1-3.13-4.538c-.177-.8-.523-2.078-.523-2.381" transform="translate(-25.533 -27.113)" fill="#ffead0"/>
    <path id="パス_13742" data-name="パス 13742" d="M23.262,27.491c-3.447-4.621-2.707-5.707-3.86-9.078a32.075,32.075,0,0,0-2-4.662c-1-.979-5.835-5.625-6.353-6.374s-.73-1.623-.181-2.023c.354-.258.828.4,1,.322.156-.1-.148-.473-.229-.94-.175-1.012-.469-1.565.518-1.695s1.629.082,1.726-.56S12.5.794,13.151.2s1.49.241,2.289.821a29.491,29.491,0,0,1,2.926,3.439A9.292,9.292,0,0,0,19.54,5.53c.491.334.93-.946,1.671-.784s.765,6.262.935,7.294c.041.249,4.243,7.977,4.648,9.092.5,1.372-3.467,6.446-3.533,6.359" transform="translate(-4.329 0)" fill="#ffead0"/>
    <path id="パス_13743" data-name="パス 13743" d="M74.184,51.565c.594-4.62-.555-10.279-6.245-10.656s-7.826,5.421-7.847,10.08c-.249-.282-1.154-.4-1.2.357a2.61,2.61,0,0,0,.513,1.571,3.046,3.046,0,0,0,1.472.866A6.666,6.666,0,0,0,62.33,56.7,8.3,8.3,0,0,0,67,59.158c1.48.138,3.41-1.046,4.44-2.011a9.694,9.694,0,0,0,2.03-2.688,3.225,3.225,0,0,0,1.522-.694c.487-.471.883-1.83.573-2.161a1.092,1.092,0,0,0-1.38-.038" transform="translate(-24.166 -16.782)" fill="#ffead0"/>
    <path id="パス_13744" data-name="パス 13744" d="M69.234,36.317a4.7,4.7,0,0,0-4.281-.989c-1.985.551-3.473,1.439-3.872,2.442a13.564,13.564,0,0,1-2.3,2.937,4.792,4.792,0,0,0-.518,5.92c.606,1.244.959,2.093,1.35,2.121s-.084-.608.287-.819.581-1.5,1.295-1.2c.932.4,3.449-.035,7.032-3.615.842-.841,1.574-1.4,2.051-.95a6.274,6.274,0,0,1,.878,2.182,5.75,5.75,0,0,0,1.968,2.685c.581.318.368.583.367,1.164s-.42,1.467.687.266a7.207,7.207,0,0,0,2.082-5.72c-.127-1.9-2.478-5.254-4.038-5.443s-2.67-.271-2.986-.986" transform="translate(-23.585 -14.434)" fill="#7c6351"/>
    <path id="パス_13745" data-name="パス 13745" d="M95.214,297.92c1,1.355,2.131,5.532,3.509,7.246,2.083,2.592,1.412,5.125.323,5.394a5.884,5.884,0,0,1-5.89-2c-1.376-1.46-3.886-4.6-4.312-6.52a10.126,10.126,0,0,1,.265-3.855c.212-3.582,2.005-3.3,6.105-.262" transform="translate(-36.422 -121.3)" fill="#7c6351"/>
    <path id="パス_13746" data-name="パス 13746" d="M1.827,290.373c2.531-3.509,3.949-1.2,6.11.222a51.056,51.056,0,0,0,.288,8.656c.344,1.963-.453,5.111-2.291,5.4s-3.4-1.059-4.758-3.45a10.634,10.634,0,0,1,.651-10.825" transform="translate(0 -118.408)" fill="#7c6351"/>
    <path id="パス_13747" data-name="パス 13747" d="M30.724,154.39c-1.589.571-4.376-2.828-4.819,1.1-.207,1.833-2.051,9.282-2.684,16.1-.722,7.786-.488,13.175-1.707,18.054-.386,1.544-4.17,16.473-5.722,19.56-1.968,3.912-9.808,15.889-11.845,20.208s-.732,4.391,1.464,6.831c2.906,3.229,4.028,6.216,7.161,3.118s16.695-24.772,17.373-26.212,10.11-29.1,10.6-31.068,4-9.052,4.88-1.952,1.944,27.786,2.2,30.984,2.118,20.256,2.751,23.8c.669,3.748,1.581,6.869,7.253,5.23,7.329-2.117,5.7-2.149,5.124-8.539-.732-8.051-1.719-25.5-1.952-30.985-.488-11.467-1.631-45.2-3.439-46.4s-23.965-.068-26.63.171" transform="translate(-1.203 -63.023)" fill="#7194b8"/>
    <path id="パス_13748" data-name="パス 13748" d="M89.794,71.877c-1.524-1.016-5.368-2.44-11.467-5.124A92.077,92.077,0,0,1,66.7,59.239c-1.476-1.118-7.147-5.155-10.544-5.506-1.417-.147-.468,1.359-4.569,1.289-3.415-.059-4.058-1.963-4.984-2.429a25.623,25.623,0,0,1-6.146-4.6c-1.417-1.385-4.406-6.929-4.686-7.459S31.706,28.66,29.519,23.661c-.8-1.837-7.4.153-9.373,3.124-.551.831,3.436,12.81,6.561,18.746,1.711,3.251,6.065,11.19,6.37,13.074.756,4.678,1.791,11.678,1.335,17.42-.307,3.87-.244,9.759-.976,15.37-.149,1.139-2.043,9.735-.976,11.223,2.517,3.51,6.419-.368,12.687.976,9.691,2.078,15.863,1.4,19.762.732,2.924-.5.93-7.256.732-10s-1.608-9.139-.732-15.126c.413-2.824-.09-6.639,2.684-5.612,6.587,2.44,16.607,5.618,17.81,6.1,3.66,1.464,8.783-4.88,4.391-7.807" transform="translate(-8.247 -9.42)" fill="#7c9c81"/>
    <path id="パス_13749" data-name="パス 13749" d="M284.116,263.709c-1.664-3.256.52-12.027,1.3-15.446,1.9-8.3,2.093-29.833,1.81-31.134,0,0-9.12-.837-9.124,1.051,0,1.034-.07,15.4.061,26.593.11,9.4.912,14.7-.456,17.1-1.525,2.68-7.408,7.6-6.286,8.263,2.978.824,13.718-2.522,12.692-6.425" transform="translate(-111.333 -89.032)" fill="#ffdbb0"/>
    <path id="パス_13750" data-name="パス 13750" d="M281.838,294.273c-2.442,1.9-5.374,5.259-9.045,5.933-2.871.54-.638-2.354-1.253-1.89-1.335,1.01-4.049,3.255-4.926,4.7-.9,1.5,2.24,1.835,4.214,1.726,1.195-.066,3.387-.52,7.543-3.085,1.305-.805.836-.257,3.66-1.432,1.739-.723.726-4.09-.195-5.956" transform="translate(-109.352 -120.768)" fill="#7c6351"/>
    <path id="パス_13751" data-name="パス 13751" d="M307.551,263.507c-1.841-3.159-.144-12.037.45-15.495,1.441-8.392.444-29.9.09-31.187,0,0-9.153-.333-9.052,1.553.055,1.032.779,15.381,1.526,26.549.628,9.377,1.72,14.623.488,17.1-1.376,2.761-6.978,7.993-5.821,8.6,3.019.659,13.559-3.275,12.319-7.115" transform="translate(-121.098 -88.975)" fill="#ffead0"/>
    <path id="パス_13752" data-name="パス 13752" d="M305.283,294.059c-2.333,2.032-5.076,5.547-8.7,6.423-2.837.7-.767-2.316-1.355-1.818-1.278,1.082-3.863,3.473-4.659,4.969-.821,1.544,2.338,1.709,4.3,1.492,1.189-.131,3.354-.706,7.362-3.5,1.259-.876,1.4-.455,3.526-1.706,1.14-.671.549-4.049-.473-5.862" transform="translate(-119.192 -120.68)" fill="#7c6351"/>
    <path id="パス_13753" data-name="パス 13753" d="M290.337,78.142c.182.018,2.591.4,2.82.4.052.394.049,3.062.754,4.118.61.915,3.607,2.84,2.867,4.575-2.867,2-10.271,1.918-11.839-.311-2.022-.725,3.479-3.932,3.971-4.752a21.933,21.933,0,0,0,1.428-4.032" transform="translate(-116.755 -32.069)" fill="#ffead0"/>
    <path id="パス_13754" data-name="パス 13754" d="M242.188,134.145c-1.348.741-2.647,1.264-3.312,1.087s-2.3-.429-3.282-.563-1.507.21-1.423.753.908.5,2.239,1.052.588.741.088,1.347-3.483,2.7-3.982,3.4-1.218,1.456-.692,2.016,1.424-.753,1.988-.676.386.641.511,1.505.607.6,1.492.433.9-.408,1.588-.07.867.175,1.427-.251,1.314-2.161,2.069-3.594a5.6,5.6,0,0,1,2.738-2.773c.247-.123.581-.288.965-.48-.447-1.324-.807-2.708-1.306-3.96-.567.407-.985.7-1.11.769" transform="translate(-95.064 -54.737)" fill="#ffead0"/>
    <path id="パス_13755" data-name="パス 13755" d="M350.76,101.745c1.436-.553,2.671-1.21,2.965-1.832s1.151-2.031,1.685-2.873,1.132-1.017,1.493-.6-.2,1.015-.638,2.39.188.927.973.936,4.307-.926,5.169-.851,1.9.006,1.987.77-1.493.6-1.8,1.084.242.709.821,1.362.067.851-.63,1.42-.894.427-1.077,1.169-.424.776-1.111.93-2.5-.387-4.082-.733a5.6,5.6,0,0,0-3.885.306c-.254.11-.594.259-.989.429-.725-1.2-1.551-2.363-2.186-3.551.676-.171,1.17-.3,1.3-.353" transform="translate(-143.415 -39.489)" fill="#ffead0"/>
    <path id="パス_13756" data-name="パス 13756" d="M306.691,77.338c1.332,1.471,1.162.17,2.746,1.043a1.752,1.752,0,0,0,2.343-.94c.336-.856-.256-.552.173-1.615s.545-1.542.069-2.289-.373-1.617-1.375-1.821-1.241.36-1.81.307-1.242-.371-1.713.748-1.383,1.364-1.3,2.064-.485,1.462.865,2.5" transform="translate(-125.49 -29.414)" fill="#cdb893"/>
    <path id="パス_13757" data-name="パス 13757" d="M295.562,67.625a6.575,6.575,0,0,1-5.121,3.856,9.067,9.067,0,0,1-5.114-1.281,8.7,8.7,0,0,1-2.552-3.21,5.5,5.5,0,0,1-.268-2.1c.1-1.693-1.064-1.594-.076-5.062.3-1.053,2.252-5.919,7.079-6.477,4.244-.491,8.667,9.152,6.052,14.276" transform="translate(-115.744 -21.887)" fill="#ffead0"/>
    <path id="パス_13758" data-name="パス 13758" d="M287.186,58.007c-1.473-2.465-5.116,3.74-5.6,2.194-1.278-4.114,3.624-7.8,5.564-8.424a9.322,9.322,0,0,1,6.576.008c2.372.817,2.173,1.682,3.088,2.543a9.387,9.387,0,0,1,2.8,7.632,11.792,11.792,0,0,1-2.566,5.426,15.136,15.136,0,0,1-3.569,2.041c-.883.347.256-3.371,1.39-4.048,1.61-1.553,1.3-2.169.958-2.787s-1.44-1.009-1.749-.435c-1.532,2.854-.62.018-1.419-.6-2.169-1.691-1.184,1.377-5.48-3.546" transform="translate(-115.477 -21.004)" fill="#cdb893"/>
    <path id="パス_13759" data-name="パス 13759" d="M296,78.485a.138.138,0,0,0,.058,0,.14.14,0,0,0,.114-.162,5.464,5.464,0,0,0-1.786-2.291.14.14,0,1,0-.173.221,5.215,5.215,0,0,1,1.683,2.118.139.139,0,0,0,.1.112" transform="translate(-120.722 -31.192)" fill="#cdb893"/>
    <path id="パス_13760" data-name="パス 13760" d="M301.911,153.3c.087.63,2.836,13.126.248,25.812-2.022,9.911-.886,20.7-.339,26.675.275,2.993,1.9,17.459-2.358,17.972a110.91,110.91,0,0,1-16.346.732c-8.539-.081-9.994,1.046-10.247-6.669-.139-4.248.651-20.493.651-27.976,0-2.781,1.906-35.281,2.844-37.027s25.549.479,25.549.479" transform="translate(-111.977 -62.442)" fill="#7194b8"/>
    <path id="パス_13761" data-name="パス 13761" d="M278.474,97.882c.4-1.733,3.538-10.349,5.205-11.04,1.315-.545,1.838.885,3.973.885,2.378,0,2.747-1.956,4.179-1.373,1.1.448,3.1,2.079,4.355,2.509a12.083,12.083,0,0,1,1.883,2.752c.972,6.1.512,7.957,2.352,13.923a17.61,17.61,0,0,0,.534,2.973c.374,1.513,2.835,14.34,3.8,16.905s1.081,3.332-.008,3.213-1.962-.7-3.577-.524-5.3,4.472-12.134,4.8c-7.178.342-10.617-4.112-10.734-4.879-.091-.6-1.7-8.048-1.351-14.344.484-8.5.793-12.626,1.525-15.8" transform="translate(-113.638 -35.395)" fill="#fff"/>
    <path id="パス_13762" data-name="パス 13762" d="M253.552,118.647c-2.437,2.347-2.813,1.284-5.937-1.789-1.261-1.239-1.363-2.03.813-4.066,5.042-4.717,7.073-6.484,9.352-8.946,4.067-4.391,7.4-15.777,13.064-16.662,1.889-.295-.54,13.309-.174,19.286.715,11.689,1.558,24.65.987,26.947-1.182,4.759-7.726,3.9-10.165.325-.888-1.3,1.232-12.735,1.626-19.844.244-4.391-5.176.519-9.567,4.748" transform="translate(-101.252 -35.778)" fill="#ca7d93"/>
    <path id="パス_13763" data-name="パス 13763" d="M322.611,104.083c3.369-.306,6.709-.488,10.979-1.22,1.322-.226,0-3.66-1.1-6.587-.832-2.218-4.026-.488-8.417-.366-2.963.083-9.778.4-12.675-3.406-2.953-3.875-8.38-6.753-9.974-6.516-1.912.285-.09,16.864-.041,22.852a98.165,98.165,0,0,0,3.59,24.814c1.509,4.666,9.851.893,12.036-2.846.8-1.361-2.828-10.647-3.715-17.71-.274-2.179-2.365-9.216-.322-8.893a51.2,51.2,0,0,0,9.637-.122" transform="translate(-123.346 -35.284)" fill="#ca7d93"/>
    <path id="パス_13764" data-name="パス 13764" d="M238.119,202.773c.511-.972,7.454-9,7.453-9.49a8.917,8.917,0,0,1,.391-2.957c.617-1.078,1.244.362,1.753.129s1.355-1.232,1.934-1.447.666.569.956,1.035,1.088-.47,1.353.061c.181.363-.172,1.266.4,1.511s.631.446.354,1.025-.633.774-.526,1.308-.037.63-.433.939a11.927,11.927,0,0,1-2.857.771c-1.127.259-5.322,10.293-7.725,13.048-.788.9-4.11-3.923-3.055-5.933" transform="translate(-97.639 -77.553)" fill="#ffdbb0"/>
    <path id="パス_13765" data-name="パス 13765" d="M204.212,199.505c-.5-.98-7.314-9.114-7.306-9.6a8.913,8.913,0,0,0-.345-2.963c-.6-1.087-1.249.343-1.755.1s-1.336-1.253-1.911-1.477-.674.559-.971,1.02-1.081-.486-1.354.041c-.187.36.152,1.268-.425,1.5s-.638.436-.371,1.019.622.784.506,1.317.028.63.419.945a11.928,11.928,0,0,0,2.845.815c1.123.277,5.163,10.374,7.523,13.165.774.916,4.171-3.859,3.146-5.885" transform="translate(-77.819 -76.138)" fill="#ffdbb0"/>
    <path id="パス_13766" data-name="パス 13766" d="M255.279,298.459c1.267.376,1.511-.413,3.581.308,2.73.952,1.8,3.53-.373,4.995-1.523,1.026-5.769,2.674-6.243.515a7.634,7.634,0,0,0-.819-2.1c-.889-1.194-3.376-3.386-3.225-4.081.239-1.094,4.348-3.774,4.964-2.812.271.424,1.273,2.923,2.115,3.172" transform="translate(-101.857 -121.1)" fill="#d8735b"/>
    <path id="パス_13767" data-name="パス 13767" d="M201.942,306.207c-1.018.851-1.582.245-3.2,1.731-2.134,1.961-.17,3.888,2.478,4.314,1.854.3,6.507.046,6.028-2.078a7.212,7.212,0,0,1-.133-2.207c.317-1.429,1.9-2.656,1.459-3.216-.689-.881-4.6-2.119-5.372-1.991-.507.084-.582,2.881-1.259,3.447" transform="translate(-81.191 -124.248)" fill="#d8735b"/>
    <path id="パス_13768" data-name="パス 13768" d="M207.336,254.919c1.3-.843,5.509-1.01,8.367-1.107a88.432,88.432,0,0,1,9.217.57c2.424.17,3.44,2.357,5.232,8.194,1.4,4.551,5.075,9.8,6.544,13.3,1.32,3.147,1.672,4.084-1.706,5.8-1.978,1.006-2.929,2.748-5.5,2.782-2.644.035-8.489-14.231-10.856-14.373-2.246-.136-5.4,10.8-5.674,12.585-.512,3.368-.847,3.476-5.006,2.524-5.264-1.2-4.781-.7-4.188-6.582.5-5.013,1.972-22,3.574-23.7" transform="translate(-83.479 -104.156)" fill="#7194b8"/>
    <path id="パス_13769" data-name="パス 13769" d="M226.553,222.986c.176-2.717,2.955-8.825,3.713-10.231,1.32-2.447-.147-2.493-2.463-3.841-1.333-.776-3.584-2.126-4.142-1.527a10.924,10.924,0,0,1-3.342,2.466,9.393,9.393,0,0,1-4.984-.121,23.6,23.6,0,0,1-4.219-2.276c-.5-.359-1.123-1.917-3.238-.357-1.671,1.233-5.038,2.694-4.02,4.206.7,1.044,2.759,4.745,2.52,7.164-.185,1.874-.167,8.063-1.766,13.57-1.624,5.592.262,5.824,2.568,6.375,3.234.773,6.325.691,12.585.222,4.95-.371,10.552,1.393,9.374-3.541-.719-3.012-2.632-11.393-2.586-12.108" transform="translate(-83.585 -84.713)" fill="#fdd23e"/>
    <path id="パス_13770" data-name="パス 13770" d="M217.17,202.147a5.959,5.959,0,0,0,5.133,2.437,8.489,8.489,0,0,0,4.341-1.87,6.8,6.8,0,0,0,1.107-2.11,5.624,5.624,0,0,1,.839-1.032,1.6,1.6,0,0,0,.436-.855c.038-1.3-.62-.61-.69-.9a10.46,10.46,0,0,0-1.43-4.062c-.427-.837-3.587-3.093-5.821-2.755a6.946,6.946,0,0,0-5.293,5.872c-.072.773-.732.758-.748,1.511-.025,1.223.8.968,1.01,1.549a9.778,9.778,0,0,0,1.116,2.21" transform="translate(-88.253 -78.373)" fill="#ffdbb0"/>
    <path id="パス_13771" data-name="パス 13771" d="M216.325,194.2c-.358,1.486.185.721,1.166-.334.493-.53,1.34-.052,1.819-.254.609-.257.629-1.059,1.453-.89.478.1.974-.338,1.588.468,1.182,1.552,1.751,1.266,2.864,1.189a2.315,2.315,0,0,1,2.223.823c.644.674.8,1.771,1.547,1.314.563-.345.807-2.5.352-3.219-.6-.951-1.131-1.607-1.654-2.31a7.526,7.526,0,0,0-3.666-2.649c-3.672-1.345-4.369.754-5.315,1.334s-2.714.739-2.377,4.528" transform="translate(-88.733 -77.11)" fill="#b27262"/>
    <path id="パス_13772" data-name="パス 13772" d="M378.745,139.219c-1.476,2.652-4.03,5.237-4.361,6.276s-1.446,3.781-2.164,5.534c-.292.713-1.265,1.389-3.24,2.665-.873.564-.5-1.124-1.711-.953-2.035.289-1.394-.948-1.935-1.261-.935-.541-1.21-.67-.265-1.768a12.481,12.481,0,0,1,2.214-2.075c.538-.389,1.206-1.15-.008-1.166s-1.878-.1-2.4-.771-.155-1.2,1.308-1.019c1.741-.156,3.688-1.433,4.639-1.754s1.249-1.634,2.257-3.5,7.144-2.859,5.668-.207" transform="translate(-149.581 -56.47)" fill="#ffead0"/>
    <path id="パス_13773" data-name="パス 13773" d="M399.812,72.807c1.818,1.278,5.647.524,7.135-.664,3.176-2.535-4.1-3.691-5.015-5.134-.665-1.056-1.48-.4-2.134,1.565-.2.608,1.376,1.651-.2,2.769-.891.631-1.518.649.216,1.464" transform="translate(-163.63 -27.294)" fill="#b27262"/>
    <path id="パス_13774" data-name="パス 13774" d="M411.6,57.877A7.085,7.085,0,0,1,406.56,62.6a9.767,9.767,0,0,1-5.626-.783,9.374,9.374,0,0,1-3.1-3.145,5.941,5.941,0,0,1-.529-2.22c-.088-1.826-1.323-1.586-.664-5.414.2-1.163,1.73-6.6,6.838-7.756,4.49-1.015,10.34,8.806,8.128,14.6" transform="translate(-162.698 -17.732)" fill="#ffead0"/>
    <path id="パス_13775" data-name="パス 13775" d="M401.409,48.7c-1.862-2.47-5.049,4.6-5.743,3-1.5-3.456,1.127-6.264,3.386-7.964a11.925,11.925,0,0,1,3.409-2.045c3.285-1.1,8.075.782,9.8,4.674,1.377,3.1.973,3.926,1.366,6.122.2,1.126.1,3.4.854,4.485,1.292,1.848,3.094.615,1.44,2.156-1.563,1.456-5.286,2.206-6.868,1.664-.919-.314.3-4.223,1.439-5.078,1.546-1.85,1.14-2.474.705-3.1s-1.66-.914-1.924-.264c-1.312,3.233-.662.091-1.589-.484-2.518-1.561-1.11,1.611-6.279-3.167" transform="translate(-162.199 -16.981)" fill="#b27262"/>
    <path id="パス_13776" data-name="パス 13776" d="M402.609,267.847c-1.795-3.186.033-12.038.677-15.487,1.564-8.37.883-29.894.548-31.182,0,0-9.147-.468-9.073,1.42.041,1.032.553,15.39,1.136,26.568.49,9.385,1.505,14.647.236,17.1-1.416,2.74-7.095,7.89-5.947,8.511,3.009.7,13.605-3.075,12.422-6.933" transform="translate(-160.068 -90.749)" fill="#ffead0"/>
    <path id="パス_13777" data-name="パス 13777" d="M400.338,298.4c-2.363,2-5.157,5.472-8.8,6.293-2.846.656-.733-2.327-1.328-1.837-1.294,1.063-3.914,3.416-4.731,4.9-.844,1.531,2.312,1.744,4.281,1.555,1.19-.114,3.363-.657,7.412-3.388,1.272-.858.824-.291,3.6-1.58,1.708-.793.56-4.115-.436-5.943" transform="translate(-158.142 -122.462)" fill="#7c6351"/>
    <path id="パス_13778" data-name="パス 13778" d="M427.206,265.218c-2.338-2.811-2.131-11.848-2.117-15.356.034-8.514-4.5-29.565-5.065-30.773,0,0-9.082,1.185-8.67,3.028.225,1.008,3.31,15.041,5.893,25.931,2.169,9.145,4.114,14.138,3.307,16.781-.9,2.95-5.561,9.037-4.32,9.441,3.087.15,12.831-5.471,10.973-9.053" transform="translate(-168.812 -89.913)" fill="#ffead0"/>
    <path id="パス_13779" data-name="パス 13779" d="M428.275,295.5c-1.965,2.39-4.09,6.309-7.523,7.772-2.682,1.157-1.139-2.157-1.637-1.568-1.082,1.278-3.236,4.064-3.773,5.67-.555,1.658,2.588,1.3,4.49.759,1.151-.326,3.19-1.25,6.682-4.664,1.1-1.073,1.305-.68,3.2-2.266,1.014-.85-.127-4.084-1.436-5.7" transform="translate(-170.428 -121.271)" fill="#7c6351"/>
    <path id="パス_13780" data-name="パス 13780" d="M412.745,69.5c-.183.016-2.576.413-2.808.41-.055.421-.934,3.069-1.088,3.6A35.405,35.405,0,0,1,406.12,79.9c2.876,2.2,10.5,2.61,12.1.249-.5-.21-4.54-7.543-4.835-8.523-.216-.718-.614-1.853-.639-2.128" transform="translate(-166.67 -28.521)" fill="#ffead0"/>
    <path id="パス_13781" data-name="パス 13781" d="M410.2,147.868c-5.806,1.257-11.885,2.128-16.778.507-4.13-1.368-5.1,5.709-5.958,7.885s-1.219,9.553-2.682,18.092c-1.016,5.924-2.2,18.542-4.148,27.325-1.619,7.286-3.427,19.455-3.172,21.713.382,3.372,24.641,5.855,34.644,4.148,4.6-.785,18.32-6.729,19.03-10.491s-6.688-15.988-8.3-20.006c-2.44-6.1-5.82-23.015-5.595-27.73.287-5.988-2.845-13.429-3.453-15.232s-.6-6.859-3.594-6.21" transform="translate(-154.899 -60.661)" fill="#ca7d93"/>
    <path id="パス_13782" data-name="パス 13782" d="M414.352,112.167c2.833-2.787,4.917-15.793,2.91-21.765a17.826,17.826,0,0,0-7.171-9.186c-2.348-1.649-5.959-2.363-7.72-1.98-.152.034-.914,2.259-3.147,3.044a5.327,5.327,0,0,1-4.249.028c-1.037-.488-1.027-1.416-1.775-1.331-1.424.161-4.827,2.16-6.951,4.782s-5.945,14.316-6.4,15.757a159.059,159.059,0,0,1-6.18,14.666c-1.149,2.34.545,2.652,2.125,3.986,2.16,1.488,2.557,2.211,3.889,1.037,1.484-1.308,3.648-7.026,4.6-8.846,1.055-2.022,2.216-5.381,3.007-5.777,1.393-.438-.041,4.3-.671,7.688-.308,1.654-2.865,7.443-3.05,10.308-.21,3.268,7.43,2.731,12.748,3.781,4.94.976,17.8.759,18.359-2.378.533-3-2.77-11.407-.325-13.812" transform="translate(-153.198 -32.476)" fill="#d5a1d5"/>
    <path id="パス_13783" data-name="パス 13783" d="M413.594,103.685a11,11,0,0,0-.235-3.1c-.4-1.134.059-2.353-1.7-2.558s-1.321-.676-1.956-.959-1.374-.677-1.712-.044-.614,1-.988.992a1.133,1.133,0,0,0-1.144.774c-.23.636-.3,1.277-.626,1.483s-.235.818-.036,1.428.739,2.5,1.96,2.9,2.135.215,2.857,1.3c.11.166.295.818.528,1.31.656,1,4.62-1.068,3.908-2.325-.208-.466-.835-1.009-.856-1.209" transform="translate(-166.217 -39.68)" fill="#ffead0"/>
    <path id="パス_13784" data-name="パス 13784" d="M414.21,107.451c1.594-1.513,2.426-4.023,4.335-2.183,3.229,3.113,3.6,3.948,5.631,4.6,3.076.992-2.687,4.647-4.674,5.529-1.5.667-3.111-.984-5.762-3.769-1.388-1.457-1.572-2.241.47-4.179" transform="translate(-169.364 -42.936)" fill="#d5a1d5"/>
    <path id="パス_13785" data-name="パス 13785" d="M207.966,136.3a6.794,6.794,0,0,0,3.244,1.144,5.288,5.288,0,0,1,3.281,1.143c.8.567,2.08,1.5,1.59,2.153-.325.433-1.945-.384-1.465.225s2.262,1.823,2.738,2.531.887,1.2.356,1.739-1.106-.509-1.664-.446.111.66-.032,1.509-1.118.543-1.987.36-.881-.422-1.566-.1-.858.154-1.4-.278-1.249-2.16-1.963-3.591a5.525,5.525,0,0,0-2.64-2.8c-.241-.127-.567-.3-.942-.495.47-1.3.855-2.654,1.376-3.878.55.413.956.712,1.078.783" transform="translate(-84.341 -55.616)" fill="#ffead0"/>
    <path id="パス_13786" data-name="パス 13786" d="M185.438,108.8a26.655,26.655,0,0,0,3.5,6.238c.858.979,7.908,7.054,9.553,8.787,1.309,1.38-2.731,7.1-4.294,6.251-1.483-.8-4.147-2.509-7.456-4.52-3.411-2.072-6.664-7.154-7.856-8.444-1.9-2.052,4.843-12.56,6.554-8.313" transform="translate(-73.276 -44.239)" fill="#baa55b"/>
    <path id="パス_13787" data-name="パス 13787" d="M158.17,71.982c-.215,0-3.032.2-3.3.176a19.789,19.789,0,0,1-.725,2.67,10.375,10.375,0,0,1-3.47,3.732c-4.439,3.223,14.236,2.117,11.148.34a12.228,12.228,0,0,1-3.13-4.538c-.177-.8-.523-2.078-.523-2.381" transform="translate(-61.555 -29.541)" fill="#ffead0"/>
    <path id="パス_13788" data-name="パス 13788" d="M114.909,291.643a4.55,4.55,0,0,0,.489-.726c.841-1.647,1.143-6.313,1.654-7.447,0,0,5.72,2.067,5.354,3.793s-2.29,5.57-1.748,7.2a5.363,5.363,0,0,0,.956,1.432c-2.882.172-4.846-2.041-6.706-4.255" transform="translate(-47.158 -116.335)" fill="#ffdbb0"/>
    <path id="パス_13789" data-name="パス 13789" d="M113.1,297.332c1.86,2.213,3.824,4.426,6.706,4.255,1.738,2.078,5.249,5.25,6.406,7.092,1.479,2.356-2.354,2.453-3.936,1.705s-9.9-5.452-11.391-7.729c-1.281-1.955,1.01-3.8,2.216-5.324" transform="translate(-45.353 -122.024)" fill="#2f253f"/>
    <path id="パス_13790" data-name="パス 13790" d="M170.108,305.03c1.706,1.068,4.75,1.492,6.408,2.86,2.249,1.855,4.141,4.659-1.4,4.834s-10.937-3.171-12.066-4.98c-1.106-1.772,1.034-2.26,1.163-3.181a13.388,13.388,0,0,0,5.894.467" transform="translate(-66.786 -124.991)" fill="#2f253f"/>
    <path id="パス_13791" data-name="パス 13791" d="M163.546,286.384s6.018-.23,6.219.741-1.112,6.629-.566,8.977a2.417,2.417,0,0,0,1.195,1.458,13.384,13.384,0,0,1-5.894-.467c0-.02.01-.039.011-.059.039-.961-1.5-9.228-.965-10.649" transform="translate(-67.072 -117.521)" fill="#ffdbb0"/>
    <path id="パス_13792" data-name="パス 13792" d="M121.939,153.881a65.261,65.261,0,0,0-2.84,19.653,205.01,205.01,0,0,0,2.4,27.091c1.276,6.51-7.771,33.566-8.859,36.229-.922,2.255,8.719,5.742,10.105,4.707,1.862-1.39,13.078-34.221,13.256-38.606.13-3.192,1.779-20.855,2.978-20.759.727.058,1.626,24.535,1.577,28.653-.056,4.64.532,30.291.775,30.978.432,1.22,6.958.479,8.648.307s4.075-30.737,4.115-38.552c.042-8.13-1.9-46.226-2.515-46.973s-29.638-2.728-29.638-2.728" transform="translate(-46.201 -63.152)" fill="#d8735b"/>
    <path id="パス_13793" data-name="パス 13793" d="M126.922,88.93c1.7-2.012,3.673-6.568,9.943-8.6,2.142-.693,5.586-1.492,5.921-.886a5.822,5.822,0,0,0,5.038,3.3c1.775.093,1.982-2.028,2.392-2.028a17.4,17.4,0,0,1,4.72,2.258,17.723,17.723,0,0,1,5.255,6.978c.963,2.419,2.836,6.577,3.413,8.458,1.446,4.716-3.039,12.187-5.748,8.37-.307-.431-1.524-1.8-2.028-.234-.362,1.126.949,6.049.75,9.06s.616,8.743.985,12.807c.219,2.4-5.086,2.778-7.141,2.709-3.694-.123-8.305-.389-9.728.123-1.762.633-6.57.82-10.3.563s-4.9-1.117-4.726-3.271c.417-5.1.389-12.739.985-15.515,1.162-5.41,2-9.006.045-8.3-2.038.739-4.058-10.739.222-15.8" transform="translate(-51.051 -32.517)" fill="#baa55b"/>
    <path id="パス_13794" data-name="パス 13794" d="M153.054,63.424c.881,2.817,2.735,4.472,4.485,4.8a8.34,8.34,0,0,0,5.206-.815,9.689,9.689,0,0,0,2.962-3.216,6.732,6.732,0,0,0,.561-2.265c.141-1.861,1.644-1.772,1.164-5.672-.146-1.185-.381-3.508-5.046-4.669-4.1-1.021-14.047,2.615-9.332,11.84" transform="translate(-62.303 -21.101)" fill="#ffead0"/>
    <path id="パス_13795" data-name="パス 13795" d="M166.289,52.514c.945,1.043-.374,4.589.662,3.822,1.993-1.476,2.344-6.476.022-7.6-2.388-1.159-.04-1.714-5.24-3.413-3.792-1.239-12.474,3.034-11.218,7.544.831,2.984-.868,5.592,2.187,8.66.571.573.769-2.508.442-2.878-1.552-1.916-1.127-2.547-.672-3.177s1.712-.909,1.971-.24c1.291,3.327.074-2.372,1.685-1.889,4.3,1.29,9.723-1.495,10.161-.826" transform="translate(-61.72 -18.51)" fill="#af9b77"/>
    <path id="パス_13796" data-name="パス 13796" d="M159.9,73.581a.172.172,0,0,0,.223-.084,6.693,6.693,0,0,1,1.814-2.057.172.172,0,0,0-.192-.286,7.025,7.025,0,0,0-1.933,2.194.172.172,0,0,0,.082.23l.007,0" transform="translate(-65.578 -29.189)" fill="#cdb893"/>
    <path id="パス_13797" data-name="パス 13797" d="M103.383,248.015a.655.655,0,0,1-.806.431l-.269-.075a.655.655,0,0,1-.464-.788l20.195-77.38c.733-2.809,2.2-4.971,3.23-4.682l.808.227c1.029.289,1.158,2.9.323,5.679Z" transform="translate(-41.788 -67.918)" fill="#7c6351"/>
    <path id="パス_13798" data-name="パス 13798" d="M143.739,166.851a1.226,1.226,0,0,1-1.424.742l-7.364-1.181c-2.348-.377-4.5-1.778-4.151-3.013l.159-.565c.347-1.235,2.912-1.313,5.113-.413l6.9,2.823a1.226,1.226,0,0,1,.83,1.375Z" transform="translate(-53.664 -66.408)" fill="#7c6351"/>
    <path id="パス_13799" data-name="パス 13799" d="M133.584,152.82c.856.252,4.578,1.462,5.559,2.663s1.33,2.413,1.787,4.61c.174.833-.73.6-.78.927-.141.934-.73,1.371-1.236.961-.922-.746-3.419-3.1-3.906-3.339-.857-.424-3.179-2.087-3.459-2.86-.246-.679-1.114-.932-2.373-1.521-2.963-1.916-.268-4.03,2.433-2.688a12.608,12.608,0,0,0,1.975,1.246" transform="translate(-52.483 -62.032)" fill="#ffead0"/>
    <path id="パス_13800" data-name="パス 13800" d="M110.265,111.015a59.381,59.381,0,0,1,5.456-9.44c3.39-4.627,3.467-4.985,5.632-7.279,3.468-3.674,2.206,15.161-.126,16.628-1.737,1.093-3.869,4.485-1.94,6.6,2.443,2.674,8.427,9.75,7.515,10.829a29.872,29.872,0,0,1-4.824,4.373c-1.127.666-7.374-8.015-9.851-11-2.605-3.14-2.913-8.636-1.861-10.705" transform="translate(-45.021 -38.504)" fill="#baa55b"/>
    <path id="パス_13801" data-name="パス 13801" d="M265.563,279.112c3.134,3.066,8.254,4.166,12.336,3.63,4.226-.555,8.926-1.871,10.444-3.4,1.831-1.846,4.87-4.746,4.239-9.688-.771-6.04-4.314-.913-4.512-3.246-.155-1.819-.1-7.553-.409-10.839-.275-2.93-.474-5.042-4.348-9.681-2.39-2.863-4.5-7.762-8.576-7.584-4.847.213-4.055,4.173-6.443,8.5-1.289,2.334-3.8,5.727-3.637,9.4.219,5,1.875,11.846-.012,11.264-3.011-.929-5.193,5.67.919,11.651" transform="translate(-107.386 -97.797)" fill="#f4b67d"/>
    <path id="パス_13802" data-name="パス 13802" d="M270.417,226.854a1.774,1.774,0,0,0-1.486.686c-.644.664-2.818,3.515-2.96,4.534-.12.86,1.02,3.783.366,4-1.682.561-1.548.764-.74,1.172a3.127,3.127,0,0,0,3.969-.4c2.272-1.768,2.576-9.795.852-10" transform="translate(-108.762 -93.096)" fill="#f4b67d"/>
    <path id="パス_13803" data-name="パス 13803" d="M293.476,225.11a1.775,1.775,0,0,1,1.541.553c.7.6,3.115,3.255,3.346,4.258.2.845-.685,3.858-.014,4.019,1.724.412,1.61.625.84,1.1a3.128,3.128,0,0,1-3.989-.047c-2.418-1.562-3.424-9.531-1.724-9.885" transform="translate(-120.094 -92.372)" fill="#f4b67d"/>
    <path id="パス_13804" data-name="パス 13804" d="M278.285,222.834A7.227,7.227,0,0,0,273.2,225a8.11,8.11,0,0,0-2,4.875c-.108,2.2.682,4.868.65,6.162-.039,1.625-.071,2.763-1.639,7.078-.543,1.494,6.464,3.946,9.044,3.07,2.119.09,7.545-.55,8.292-1.376s.337-4.429-.755-5.662c-.566-.639-1.189-6.5-1.179-6.687.19-3.515.274-4.408-1.516-7.147a6.526,6.526,0,0,0-5.809-2.483m3.9,10.514-.019-.07.149-.041c-.043.037-.087.073-.129.111" transform="translate(-110.879 -91.439)" fill="#f4b67d"/>
    <path id="パス_13805" data-name="パス 13805" d="M259.7,309.854c-1.959-3.789,6.745-2.9,10.6-1.423,4.247,1.624,4.348-.6,6.038.786,1.764,1.447-4.192,2.616-7.813,2.225-3.476-.376-8.278-.534-8.822-1.587" transform="translate(-106.463 -126.059)" fill="#f4b67d"/>
    <path id="パス_13806" data-name="パス 13806" d="M301.686,310.564c2.279-3.605-6.469-3.47-10.434-2.335-4.372,1.251-4.28-.974-6.084.261-1.883,1.289,3.949,2.969,7.591,2.893,3.5-.074,8.293.184,8.927-.818" transform="translate(-116.881 -126.204)" fill="#f4b67d"/>
    <path id="パス_13807" data-name="パス 13807" d="M284.074,239.974a1.167,1.167,0,0,0,1.05-.584.453.453,0,0,0-.379-.711c-.473-.006-1.365-.05-1.509.267s.344,1,.838,1.028" transform="translate(-116.228 -97.951)" fill="#7c6351"/>
    <path id="パス_13808" data-name="パス 13808" d="M278.854,235.74a.593.593,0,0,1-.863-.648c.064-.373.654-1,1.034-.667a.808.808,0,0,1-.171,1.315" transform="translate(-114.083 -96.168)" fill="#7c6351"/>
    <path id="パス_13809" data-name="パス 13809" d="M290.107,235.178a.593.593,0,0,0,.8-.721c-.1-.366-.739-.937-1.088-.574a.808.808,0,0,0,.285,1.3" transform="translate(-118.851 -95.937)" fill="#7c6351"/>
    <path id="パス_13810" data-name="パス 13810" d="M285.217,293.668c-.4-1.874-.828-8.805-1.719-11.931-.992-3.482,2.895-5.97,4.512-5.011,1.061.63,1.273,2.337,1.155,6.187-.054,1.774.139,7.417-.282,9.95-.358,2.16.008,2.681.593,5.08.3,1.225,2.249,3.39.678,3.666-.61.107-4.079-.741-3.909-1.94.184-1.3-.825-5.042-1.028-6" transform="translate(-116.281 -113.482)" fill="#f4b67d"/>
    <path id="パス_13811" data-name="パス 13811" d="M283.919,293.679c.231-1.9.054-8.844.667-12.036.684-3.556-3.407-5.694-4.933-4.6-1,.72-1.064,2.439-.61,6.264.21,1.763.512,7.4,1.153,9.888.546,2.12.226,2.672-.146,5.112-.19,1.246-1.944,3.574-.355,3.712.617.053,4-1.1,3.725-2.275-.3-1.276.381-5.1.5-6.067" transform="translate(-114.407 -113.58)" fill="#f4b67d"/>
    <path id="パス_13812" data-name="パス 13812" d="M284.8,242.319a.183.183,0,0,1-.185-.175c-.022-.512-.048-1.086-.108-1.758a.186.186,0,0,1,.168-.2.181.181,0,0,1,.2.168c.062.681.087,1.26.109,1.771a.188.188,0,0,1-.177.2Z" transform="translate(-116.759 -98.57)" fill="#7c6351"/>
    <path id="パス_13813" data-name="パス 13813" d="M283.159,242.955a1.357,1.357,0,0,1-1.039-.4c-.223-.242-.3-.325-.4-.437l-.267-.295a.186.186,0,0,1,.275-.25l.268.3c.1.11.174.193.4.433.424.459,1.2.272,1.895.063.289-.088.519-.212.853-1.027a.186.186,0,1,1,.344.14c-.358.875-.659,1.111-1.089,1.242a4.385,4.385,0,0,1-1.236.236" transform="translate(-115.487 -98.996)" fill="#7c6351"/>
    <path id="パス_13814" data-name="パス 13814" d="M283.27,243.4c-.21-.071-.736-.321-.6.106.183.577.09,2.057.719,2.2.8.187,1.236.157,1.613-.239s-.088-1.488.311-2.041c.418-.577-1.127.279-2.042-.029" transform="translate(-115.997 -99.818)" fill="#7c6351"/>
    <path id="パス_13815" data-name="パス 13815" d="M283.844,243.531c-.824-.052-.568,2.446.063,2.715s.876.089,1.163-.433a2.974,2.974,0,0,0,.2-1.877c-.06-.719-1.03-.379-1.425-.4" transform="translate(-116.275 -99.92)" fill="#ca7d93"/>
    <path id="パス_13816" data-name="パス 13816" d="M280.755,262.609a.82.82,0,0,1-.141-.007c-.59-.085-1.166-.867-1.71-2.324-.432-1.155-.685-1.172-.7-1.172-.042.007-.111.058-.2.281-.147.372-.344.557-.565.553-.3-.006-.554-.34-.817-1.084-.584-1.654-1.182-2.742-1.6-2.909a.194.194,0,0,0-.172,0,1.3,1.3,0,0,1-1.13.075,2.067,2.067,0,0,1-1.022-1.434.186.186,0,0,1,.357-.1,1.756,1.756,0,0,0,.813,1.2.959.959,0,0,0,.814-.065.565.565,0,0,1,.478-.015c.681.272,1.362,1.853,1.812,3.13.286.811.472.837.474.837h0c.018,0,.109-.058.213-.32.137-.343.317-.517.549-.514.355,0,.676.44,1.039,1.413.473,1.265.989,2.025,1.416,2.087.182.026.369-.087.555-.336a5.808,5.808,0,0,0,.756-1.891c.165-.614.248-.923.491-.957.123-.017.239.054.336.213.214.354.352.426.43.423s.292-.1.625-.728a4.611,4.611,0,0,0,.416-1.126c.064-.255.106-.424.265-.49a.373.373,0,0,1,.337.055,1.617,1.617,0,0,1,.282.243c.124.125.255.264.364.246.067-.013.252-.116.525-.78.327-.8.617-1.354.85-1.8a5.518,5.518,0,0,0,.581-1.393.186.186,0,1,1,.363.079,5.748,5.748,0,0,1-.614,1.486c-.23.442-.515.992-.837,1.772-.261.637-.506.946-.8,1s-.52-.167-.7-.348a1.353,1.353,0,0,0-.2-.184c-.017.053-.037.131-.054.2a4.957,4.957,0,0,1-.449,1.21c-.335.631-.633.9-.943.925-.325.009-.56-.282-.73-.556-.056.143-.123.391-.179.6a6.081,6.081,0,0,1-.819,2.018,1.041,1.041,0,0,1-.763.487" transform="translate(-111.912 -104.144)" fill="#d8735b"/>
    <path id="パス_13817" data-name="パス 13817" d="M280.347,305.913a.185.185,0,0,1-.17-.266,6.324,6.324,0,0,0,.442-2.79,51.937,51.937,0,0,0-.937-5.919l-.179-.945a.185.185,0,1,1,.364-.069l.18.944a51.79,51.79,0,0,1,.944,5.983,6.655,6.655,0,0,1-.479,2.956.185.185,0,0,1-.165.106" transform="translate(-114.705 -121.384)" fill="#d8735b"/>
    <path id="パス_13818" data-name="パス 13818" d="M293.107,305.789a.184.184,0,0,1-.169-.1c-.81-1.614-.63-3.807-.456-5.927.075-.92.147-1.788.134-2.578a.185.185,0,1,1,.371-.006c.013.808-.059,1.685-.135,2.614-.17,2.069-.345,4.209.417,5.73a.185.185,0,0,1-.163.269" transform="translate(-119.972 -121.884)" fill="#d8735b"/>
    <path id="パス_13819" data-name="パス 13819" d="M286.832,306.8a.186.186,0,0,1-.189-.183c-.006-.373-.007-.864-.007-1.412,0-1.308,0-2.934-.079-4.057a.185.185,0,0,1,.172-.2.172.172,0,0,1,.2.173c.078,1.134.079,2.768.081,4.081,0,.545,0,1.034.007,1.406a.186.186,0,0,1-.183.189" transform="translate(-117.602 -123.509)" fill="#d8735b"/>
    <path id="パス_13820" data-name="パス 13820" d="M334.926,254.76c-.6,2.1-5.967,14.659-9.239,21.187-.738,1.473-4.563.612-4.108-.9,1.044-3.475,3.9-12.828,5.09-18.751.766-3.827,2.2-6.986,5.025-7.4,2.86-.416,4.975-.236,3.231,5.865" transform="translate(-131.959 -102.089)" fill="#ffead0"/>
    <path id="パス_13821" data-name="パス 13821" d="M319.31,290.809c.169-.728,1.864.677,2.911.858.843.146,2.888.583,2.223,2.384s-1.473,2.983-.5,4.608,2.819,3.511,1.848,4.919-1.261,1.911-3.367.853a10.994,10.994,0,0,1-4.03-2.964c-.561-.836-.972-.866-1.66-1.266-1.331-.774-1.22-1.786-.547-3.09a24.034,24.034,0,0,0,1.613-3.174c.475-1.3,1.416-2.729,1.509-3.128" transform="translate(-129.562 -119.261)" fill="#d8735b"/>
    <path id="パス_13822" data-name="パス 13822" d="M347.454,139.942c-.253,0-2.784-.087-3.1-.116-.127.52-.443,2.8-.6,3.49-.328,1.427-.791,4.006-3.215,5.534,1.212,3.215,10.33.843,9.592-.9a12.711,12.711,0,0,1-2.582-5.27,14.4,14.4,0,0,1-.093-2.742" transform="translate(-139.755 -57.384)" fill="#ffead0"/>
    <path id="パス_13823" data-name="パス 13823" d="M332.364,122.816a18.444,18.444,0,0,0-3.228-1.065,4.523,4.523,0,0,0-2.682.36c-1.3.762-1.821,1.331-2.084,2.183a5.515,5.515,0,0,0,1.2,3.853,3.1,3.1,0,0,1,.119,3.432c-.511,1.136-2.21,2.205-1.485,2.68,2.124,1.39,3.39.772,4.317-.353,2.988-3.624-1.761-5.14-.028-7.459s2.168-2.173,3.874-3.631" transform="translate(-132.977 -49.948)" fill="#b27262"/>
    <path id="パス_13824" data-name="パス 13824" d="M348.674,131.351a6.538,6.538,0,0,1-4.732,3.966,6.12,6.12,0,0,1-5.379-1.627,18.378,18.378,0,0,1-1.683-2.247c-2.537-4.59-2.756-12.181,4.294-13.312,5.427-.87,6.737,3.3,7.326,7.572.216,1.567,1.149,3.477.174,5.648" transform="translate(-137.59 -48.433)" fill="#ffead0"/>
    <path id="パス_13825" data-name="パス 13825" d="M335.868,118.869a8.616,8.616,0,0,1,6.394-1.353c2.348.465,3.139.947,3.753,1.87s1.606.469,2.345,1.168.539,2.554-.205,3.263-2.383.628-3.491-.2a3.479,3.479,0,0,0-3.495-.787c-1.22.405-1.209,1.248-1.8,2.011s-1.207.3-2.449.5-.959,5.075-1.467,5.486c-.539.437-.712-.858-1.391-1.7a6.836,6.836,0,0,1,1.8-10.259" transform="translate(-136.502 -48.171)" fill="#b27262"/>
    <path id="パス_13826" data-name="パス 13826" d="M361.106,255.44c.4,2.15,1.189,15.782,1.169,23.084,0,1.649-3.812,2.581-4.08,1.021-.613-3.577-2.22-13.224-3.8-19.054-1.019-3.768-1.143-7.235,1.2-8.862,2.374-1.646,4.349-2.428,5.506,3.811" transform="translate(-145.158 -102.788)" fill="#ffead0"/>
    <path id="パス_13827" data-name="パス 13827" d="M360.442,297.012c-.173-.727,1.97-.224,2.989-.529.82-.245,2.845-.765,3.052,1.144s.011,3.328,1.6,4.349,4.088,1.886,3.847,3.58-.277,2.272-2.634,2.263a10.989,10.989,0,0,1-4.929-.858,3.5,3.5,0,0,0-2.051-.393c-1.536-.1-1.888-1.055-1.865-2.524a24.016,24.016,0,0,0,.029-3.56c-.154-1.376.052-3.074-.042-3.473" transform="translate(-147.917 -121.571)" fill="#d8735b"/>
    <path id="パス_13828" data-name="パス 13828" d="M345.845,180.195c-2.887-10.441,2.529-5.2,5.289-7.654,3.982-3.547-2.711-13.017-4.762-16.04a18.041,18.041,0,0,0-7.31-6.174c-.863-.413-1.071,2.572-2.937,2.637-3.538.122-4.43-2.5-5.245-2.2-1.952.732-5.771,1.891-8.307,6.466-3.07,5.538-4.729,13.067-2.427,15.369,2.183,2.183,6.865-2.447,2.987,6.97-1.095,2.658-9.262,26.126-9.458,28.872-.249,3.485,6.036,5.227,19.975,5.476,8.441.15,16.552-.623,19.414-3.671,1.9-2.313-5.013-22.078-7.218-30.055" transform="translate(-128.727 -61.677)" fill="#7dd5ba"/>
    <path id="パス_13829" data-name="パス 13829" d="M335.136,155.144c-.575.28-1.068-1.035-1-3.414.036-1.293.349-1.44,2.7.018,1,.618,1.838,1.225,1.094,1.686a25.446,25.446,0,0,1-2.794,1.709" transform="translate(-137.125 -61.849)" fill="#7c6351"/>
    <path id="パス_13830" data-name="パス 13830" d="M339.127,168.123a13.812,13.812,0,0,0-2.69.8c-.932.382-3.944,1.467-4.847,2.733s-1.112,1.96,1.526,1.008c1.578-.57,3.361-.712,4.565-1.22a15,15,0,0,0,3.044-2.108c.911-1.046-.082-1.527-1.6-1.208" transform="translate(-135.832 -68.957)" fill="#fffff3"/>
    <path id="パス_13831" data-name="パス 13831" d="M335.363,153.853a5.074,5.074,0,0,0-2.232,4.575c.2,1.451,2.9,3.236,5.858,3.1,2.035-.1,5.257-2.085,5.413-3.6s-1.645-4.581-3.952-4.877a5.934,5.934,0,0,0-5.087.8" transform="translate(-136.703 -62.708)" fill="#fffff3"/>
    <path id="パス_13832" data-name="パス 13832" d="M340.759,169.849a13.75,13.75,0,0,1-2.469-7.736c-.165-2.469,3.885-4.025,6.5-3.456,1.893.412,2.88,3.868,6.994,4.2a8.109,8.109,0,0,1,7.146,7.163c.211,3.043-.151,4.6-3.031,6.251-1.376.786-4.736.448-6.336,0a16.847,16.847,0,0,1-8.805-6.419" transform="translate(-138.831 -65.064)" fill="#fffff3"/>
    <path id="パス_13833" data-name="パス 13833" d="M345.328,153.194c-.438-.466.671-1.328,2.962-1.972,1.245-.35,1.479-.1.785,2.583-.293,1.134-.621,2.12-1.284,1.547a25.389,25.389,0,0,1-2.463-2.158" transform="translate(-141.682 -62.01)" fill="#fffff3"/>
    <path id="パス_13834" data-name="パス 13834" d="M337.813,159.1a.382.382,0,0,0,.146.68c.235.064.761-.113.67-.425a.521.521,0,0,0-.816-.255" transform="translate(-138.571 -65.252)" fill="#7c6351"/>
    <path id="パス_13835" data-name="パス 13835" d="M345.907,159.2a.382.382,0,0,1-.146.68c-.235.064-.761-.113-.67-.425a.521.521,0,0,1,.816-.255" transform="translate(-141.619 -65.291)" fill="#7c6351"/>
    <path id="パス_13836" data-name="パス 13836" d="M341.774,161.049a.326.326,0,0,0,.041.592c.19.082.656,0,.617-.277a.444.444,0,0,0-.657-.315" transform="translate(-140.191 -66.071)" fill="#7c6351"/>
    <path id="パス_13837" data-name="パス 13837" d="M342.895,169.634a13.807,13.807,0,0,0-2.544,1.182c-.866.515-3.687,2.031-4.394,3.414s-.812,2.1,1.657.773c1.477-.795,3.22-1.2,4.336-1.877a15.053,15.053,0,0,0,2.7-2.531c.748-1.169-.305-1.5-1.758-.96" transform="translate(-137.695 -69.514)" fill="#fffff3"/>
    <path id="パス_13838" data-name="パス 13838" d="M370.29,194.307a.808.808,0,0,1-.213-.032c-2.084-.608-2.757-1.67-2.955-2.455-.439-1.735.98-3.584,2.453-4.737a3.179,3.179,0,0,0,1.547-2.455,3.383,3.383,0,0,0-1.708-2.308.531.531,0,0,1-.114-.826.779.779,0,0,1,.975-.091,4.327,4.327,0,0,1,2.233,3.185c.054,1.154-.616,2.285-1.99,3.36-1.5,1.174-2.3,2.6-2.041,3.632.179.708.866,1.24,2.044,1.584a.575.575,0,0,1,.434.747.694.694,0,0,1-.666.4" transform="translate(-150.632 -74.393)" fill="#7c6351"/>
    <path id="パス_13839" data-name="パス 13839" d="M336.718,171.939c.65-.818.882-1.157.863-1.624a8.51,8.51,0,0,1,.259-2.827c.546-1.048,1.2.3,1.673.056s1.242-1.223,1.784-1.449.654.516.947.948,1.018-.488,1.289.007c.186.338-.115,1.21.439,1.422s.617.4.376.962-.573.759-.451,1.264-.011.6-.376.909a11.342,11.342,0,0,1-2.688.842c-1.061.29-1.261.811-1.712,1.675a15.813,15.813,0,0,1-2.4-2.183" transform="translate(-138.186 -68.147)" fill="#ffead0"/>
    <path id="パス_13840" data-name="パス 13840" d="M324.52,176.832c1.327-1.2,3.67-2.453,5.3-3.944,1.219-1.115,5.516,3.669,4.954,4.7a12.125,12.125,0,0,1-7.641,5.59,3.549,3.549,0,0,1-2.614-6.347" transform="translate(-132.604 -70.884)" fill="#7dd5ba"/>
    <path id="パス_13841" data-name="パス 13841" d="M354.168,177.307c-.989-.337-1.368-.5-1.6-.9a8.482,8.482,0,0,0-1.747-2.237c-1.026-.587-.846.9-1.377.952s-1.706-.357-2.284-.255-.271.788-.285,1.31-1.12.14-1.08.7c.026.386.752.956.4,1.433s-.3.67.2,1.012.893.329,1.062.82.334.5.808.561a11.329,11.329,0,0,0,2.716-.745,2.439,2.439,0,0,1,2.346.483,15.883,15.883,0,0,0,.841-3.137" transform="translate(-141.911 -71.422)" fill="#ffead0"/>
    <path id="パス_13842" data-name="パス 13842" d="M366.951,176.523c-1.288-.144-6.661-.494-8.869-.415-1.651.06-1.36,6.483-.236,6.826,3.256.992,7.155,1.83,9.529,1.006,4.59-1.591,2.834-7.052-.424-7.418" transform="translate(-146.48 -72.269)" fill="#7dd5ba"/>
  </g>
</svg>
