<svg id="グループ_13770" data-name="グループ 13770" xmlns="http://www.w3.org/2000/svg" xmlns:xlink="http://www.w3.org/1999/xlink" viewBox="0 0 128.246 172.833">
  <defs>
    <clipPath id="clip-path">
      <rect id="長方形_24424" data-name="長方形 24424" width="128.246" height="172.833" fill="none"/>
    </clipPath>
  </defs>
  <g id="グループ_13769" data-name="グループ 13769" clip-path="url(#clip-path)">
    <path id="パス_13912" data-name="パス 13912" d="M61.159,32.741c.215-.008,3.04.1,3.307.061a15.137,15.137,0,0,0,.608,3.548,10.39,10.39,0,0,0,3.3,4.474c3.214,2.149-14.357,3.438-10.61.2a9.245,9.245,0,0,0,2.959-5.886c.149-.81.451-2.1.44-2.4" transform="translate(-24.16 -13.821)" fill="#ffdbb0"/>
    <path id="パス_13913" data-name="パス 13913" d="M108.6,119.7c1.143,2.806,1.56,6.408,2.162,7.315s2.04,3.487,2.957,5.142c.373.673.291,1.852.051,4.187-.106,1.031-1.19-.311-1.811.736-1.046,1.765-1.609.493-2.19.719-1.005.389-1.278.524-1.542-.9a12.476,12.476,0,0,1-.233-3.02c.033-.662-.142-1.658-.912-.722s-1.249,1.4-2.1,1.389-1.031-.63.023-1.655c.966-1.452,1.188-3.766,1.532-4.707s-.492-1.993-1.316-3.943,2.236-7.349,3.379-4.542" transform="translate(-44.018 -50.196)" fill="#ffdbb0"/>
    <path id="パス_13914" data-name="パス 13914" d="M29.193,271.115l.036-.006c5.352-.741.891-5.518,3.208-10.3,0,0,2.92-2.38,3.793-.367.665,1.533,1.757,7.471,2.213,11.552a26.406,26.406,0,0,1,.209,3.089c-.058,3.031-9.891,3.771-14.388,1.533-5.162-2.569-3.908-4.317,4.928-5.5" transform="translate(-8.959 -109.599)" fill="#2f253f"/>
    <path id="パス_13915" data-name="パス 13915" d="M78.2,269.223l.1-.061c3.532-2.166,4.071-5.372,3.948-11.469s2.066-6.228,5.118-4.214c.178,2.956.145,7.049.834,10.089a9.1,9.1,0,0,0,.9,2.5c1.636,2.832-2.236,6.877-5.3,8.77a9.106,9.106,0,0,1-8.62.76c-2.483-1.06-.47-4.224,3.019-6.378" transform="translate(-31.27 -106.51)" fill="#2f253f"/>
    <path id="パス_13916" data-name="パス 13916" d="M40.356,119.323c-.167,1.1-1.611,30-2.372,32.846s-.771,56.445-.721,57.3,2.637,1.459,3.643,1.4,4.369.886,4.824-.759c1.151-4.168,7.954-60.357,8.011-61.991s.655-3.3,1.006-.061,9.541,60.241,9.913,60.7c1.1,1.352,4.57.457,5.493.338,2.619-.338,3.39-.271,3.8-2.958.568-3.7-.436-40.257-.671-42.962s-3.83-43.026-4.863-44.717-28.067.87-28.067.87" transform="translate(-15.723 -49.759)" fill="#c98841"/>
    <path id="パス_13917" data-name="パス 13917" d="M51.522,42.666c1.316-1.445,3,.227,3.377-1.928.276-1.563,1.357-1.229,3.264-1.3,2.567-.1,3.246-1.121,3.961,1.679.339,1.326,5.451-.19,7.923,3.455,3.809,5.616-.2,12.852,1.216,19.566a19.3,19.3,0,0,0,.285,3.308c.258,1.693-26.08,8.991-25.068,2.134,1.384-9.251-.923-20.369,5.041-26.914" transform="translate(-19.609 -16.538)" fill="#fff"/>
    <path id="パス_13918" data-name="パス 13918" d="M11.852,59.4c-.811-1.569-1.085-2.207-.9-2.975s.427-2.647.554-3.783-.284-1.724-.9-1.612-.546,1.056-1.145,2.6-.833.7-1.544.14S4.72,49.849,3.895,49.3,2.189,47.94,1.562,48.56s.9,1.613.832,2.262-.724.461-1.713.63-.671.714-.455,1.723S.719,54.2.35,55s-.177,1,.328,1.63S3.194,58.075,4.86,58.9s2.632,1.444,3.1,3.023a4.068,4.068,0,0,0,.168.433c1.487-.555,3.038-1,4.6-1.549-.433-.663-.743-1.16-.871-1.407" transform="translate(0 -20.404)" fill="#ffe5cb"/>
    <path id="パス_13919" data-name="パス 13919" d="M66.973,16.617c-.422-4.705-2.772-10.062-8.418-9.208s-6.477,7.06-5.487,11.679c-.3-.225-.964-.189-.848.576a2.473,2.473,0,0,0,.819,1.382,2.794,2.794,0,0,0,1.4.643A6.772,6.772,0,0,0,56.5,24.264a8.255,8.255,0,0,0,5.1,1.425c1.477-.183,3.108-1.772,3.906-2.951a9.843,9.843,0,0,0,1.4-3.1,2,2,0,0,0,.981-1.043,3.027,3.027,0,0,0,.06-1.758.62.62,0,0,0-.97-.22" transform="translate(-22.038 -3.089)" fill="#ffe5cb"/>
    <path id="パス_13920" data-name="パス 13920" d="M53.02,7.027c.9-.154,1.486-1.181,2.069-1.561,2.1-1.366,5.519-.723,6.835-.532,3.814.554,5.3,2.048,5.248,5.046-.016,1-.05,2.51-.04,3.554a2.908,2.908,0,0,1-.4,1.983c-.426.675-.407,2.153-.93.848s.511-5.683-1.15-5.307c-2.261.514-5.879,1.309-8.331.339-1.04-.411-2.663-2.012-2.983-1.434s-.255,4.05-.18,4.938c.071.834.553,5-.367,3.749-.452-.615-.073-.584-.749-1.743-.449-.77-.7-3.251-.977-4.84-.347-1.959.274-4.787,1.954-5.041" transform="translate(-21.517 -1.948)" fill="#cdb893"/>
    <path id="パス_13921" data-name="パス 13921" d="M61.244,33.856a.172.172,0,0,0,.135-.195,6.669,6.669,0,0,1,.325-2.7.171.171,0,1,0-.318-.126,6.988,6.988,0,0,0-.346,2.885.172.172,0,0,0,.2.142h.008" transform="translate(-25.75 -12.969)" fill="#cdb893"/>
    <path id="パス_13922" data-name="パス 13922" d="M73.041,32.643a.171.171,0,0,1-.186-.146,6.663,6.663,0,0,0-1.111-2.488.171.171,0,0,1,.267-.214,6.99,6.99,0,0,1,1.183,2.653.17.17,0,0,1-.146.194l-.008,0" transform="translate(-30.269 -12.551)" fill="#cdb893"/>
    <path id="パス_13923" data-name="パス 13923" d="M49.561,5.729c.7-1.935.027-4.122,2.724-4.652s4.2-1.623,7.285-.749,6.152,1.278,7.13,2.906.773,3.045-1.827,2.631S58.946,4.11,56.4,5.932s-5.347,3.179-6.3,2.729-1.09-1.389-.535-2.932" transform="translate(-20.784 0)" fill="#c98841"/>
    <path id="パス_13924" data-name="パス 13924" d="M17.162,54.025c2.394.4,5,11.622,8.421,6.338C27.61,57.236,29.9,49.446,32.7,46.038c1.171-1.424,5.079-4.766,7.13-4.473.52.074-.379,24.4.77,24.354,2.084-.087,6.754-24.806,6.946-24.907.839-.443,6.551,1.538,7.824,2.337a24.2,24.2,0,0,1,8.193,9.331,163.365,163.365,0,0,1,5.165,16.191c.524,1.868,3.82,18.492,4.428,24.222.162,1.529-1.7,1.556-3.733,1.823-1.585.209-3.308,1-3.994-.087-.287-.454-5.469-24.916-6.772-25.263-1.635-.436-.68,2.519-.173,5.99.52,3.567,1.06,11.077,1.476,12.588.818,2.983,2.354,9.867.521,9.9-1.226.02-11.808,2.518-18.579.608-5.338-1.506-11.2-.062-12.425-.143-3.907-.261-.689-8.852.184-16.439.506-4.4,2.562-12.9,1.389-13.717-1.412-.984-4.168,4.948-8.422,4.514-4-.408-6.892-6.032-10.158-11.112-2.422-3.767-.434-3.994,1.736-5.643,1.713-1.3,1.944-2.254,2.952-2.084" transform="translate(-4.797 -17.285)" fill="#7a93af"/>
    <path id="パス_13925" data-name="パス 13925" d="M122.372,78.58c-.7-.881-1.3-1.778-1.987-2.609a26.069,26.069,0,0,1-2.216-3.089c-.385-.659-1.428-1.589-.377-4.113.4-.95,1.206.18,1.708-.919.844-1.852,1.534-.657,2.084-.941a2.014,2.014,0,0,1,2.691,1.5c.411,1.375.635.183,1.619,1.183.592.6.6,3.016,0,4.643s-.548,1.519-.165,2.229c.393.726-2.995,2.567-3.353,2.116" transform="translate(-49.531 -28.174)" fill="#ffe5cb"/>
    <path id="パス_13926" data-name="パス 13926" d="M135.369,91.119c-1.773-.093-2.739-5.7-5.324-8.282-1.683-1.683-7.793,1.245-7.1,2.789,2.683,5.968,4.622,12.527,7.959,15.45,1.689,1.48,5,2.13,6.661,1.114.973-.593,1.959-3.453,3.507-2.535,4.564,2.7,3.375-11.8,3.254-13.057-.254-2.619-3.551-6.981-5.493-3.3-1.348,2.558-1.227,7.935-3.465,7.817" transform="translate(-51.876 -34.566)" fill="#8dc4b3"/>
    <path id="パス_13927" data-name="パス 13927" d="M178.6,191.112s-10.6-2.29-10.839-1.274-2.585,46.683-2.483,48.9c.116,2.512,4.6,1.925,4.815,1.36.244-.641,9.035-47.481,8.506-48.991" transform="translate(-69.767 -80.027)" fill="#aa998a"/>
    <path id="パス_13928" data-name="パス 13928" d="M164.355,266.58c.3-1,.9-1.439-3.047-2.051-3.966-.615-3.833-.654-4.179,2.034-.434,3.364.8,6.653-1.419,8.283-2.132,1.566-8.047,5.088-7.951,6.543s2.273,1.335,4.741,1.294a8.107,8.107,0,0,0,5.367-1.747c1.79-1.516.279,1.633,1.393,1.624,2.15-.017,2.863.088,2.881-1.964a38.174,38.174,0,0,1,1.1-8.073c.41-1.891.956-5.392,1.12-5.941" transform="translate(-62.373 -111.52)" fill="#c98841"/>
    <path id="パス_13929" data-name="パス 13929" d="M191.862,190.11s-10.84-.351-10.891.691,5.826,46.389,6.325,48.557c.565,2.451,4.871,1.07,4.982.474.125-.674.376-48.331-.416-49.722" transform="translate(-76.393 -80.227)" fill="#aa998a"/>
    <path id="パス_13930" data-name="パス 13930" d="M191.8,266.056c.115-1.038.624-1.577-3.365-1.472-4.013.106-3.888.044-3.747,2.75.176,3.387,1.98,6.4.089,8.4-1.817,1.923-7,6.448-6.65,7.862s2.476.906,4.9.424a8.109,8.109,0,0,0,4.967-2.681c1.489-1.812.566,1.556,1.661,1.348,2.113-.4,2.833-.428,2.483-2.449a38.113,38.113,0,0,1-.37-8.139c.064-1.934-.027-5.476.036-6.046" transform="translate(-75.186 -111.684)" fill="#c98841"/>
    <path id="パス_13931" data-name="パス 13931" d="M184.176,133.109c.143,1.167,2.465,44.093,3.553,58.278.239,3.115,3.137,13.941-1.3,14.409a122.721,122.721,0,0,1-17.329.754c-12.842-.474-17.64.351-17.784-7.668-.079-4.416.838-16.2,1.1-19.076s4.218-45.789,5.22-47.589,26.539.893,26.539.893" transform="translate(-63.874 -55.551)" fill="#af86b9"/>
    <path id="パス_13932" data-name="パス 13932" d="M162.971,60.6c1.136-1.457,2.12-1.625,2.756-2.274.719-.734-1.13-1.85,2.518-2.352,6.15-.847,3.077,1.363,4.556,1.991,1.136.481,3.66,3.34,4.962,3.807a12.548,12.548,0,0,1,1.914,2.889c.917,6.351.41,8.276,2.229,14.5a18.319,18.319,0,0,0,.509,3.1c.365,1.578,2.725,14.944,3.686,17.624s1.071,3.479-.058,3.338-2.028-.757-3.709-.6-5.579,4.563-12.681,4.8c-7.464.244-10.969-4.437-11.079-5.236-.086-.622-.094-9.558.363-16.095.635-8.822-1.113-18.887,4.035-25.49" transform="translate(-66.919 -23.546)" fill="#fff"/>
    <path id="パス_13933" data-name="パス 13933" d="M150.047,109.118c.844-3.241,3.29-18.645,1.268-18.8-1.832-.143-3.8-7.86-3.127-11.874.6-3.546,3.159-9.369,4.986-12.339,2.028-3.3,6.336-6.255,7.89-6.031.688.1-.731,14.66-.443,20.876.563,12.156.408,25.12.327,27.578-.169,5.155.254,7.184-7.014,7.86-5.47.509-5.493-1.1-3.887-7.268" transform="translate(-62.497 -25.353)" fill="#8dc4b3"/>
    <path id="パス_13934" data-name="パス 13934" d="M181.868,60.021c.739-.466,6.88,3.413,8.873,5.809,5.449,6.552,10.746,16.219,9.907,27.193-.3,3.95-.566,9.559-.84,10.975-.6,3.1-.473,5.383,1.556,10.58,1.662,4.26-11.5,3.139-13.184,3.17-7.1.127-10.3,4.881-9.107-11.9.659-9.245.652-18.3.718-22.683.076-5.07,1.854-23,2.077-23.141" transform="translate(-75.489 -25.32)" fill="#8dc4b3"/>
    <path id="パス_13935" data-name="パス 13935" d="M194.151,154.194c-.025-.788-.364-1.975.042-2.832s-.266-1.783,1.3-1.773,3.448-.065,4.756.094,1.984.06,2.174.988a19.064,19.064,0,0,1,.176,3.522c-.018,1.145.221,1.657-.6,1.5s-1.175-.264-.988-1.81.763-2.8-.063-2.965-3.048-.248-3.828-.283-1.532-.306-1.528.66-.272,2.743-.225,3.352-1.074.9-1.213-.449" transform="translate(-81.891 -63.142)" fill="#edbc32"/>
    <path id="パス_13936" data-name="パス 13936" d="M184.082,159.182c-.537.362-1.055.833-1.826,1.4-1.746,1.29-2.462,3.544-2.886,6.319-.644,2.395-.766,7.768.216,8.417s3.618.395,5.216.324l1.072-.045c.351-5.14,1.091-10.207-.316-15.338a1.719,1.719,0,0,0-1.475-1.079" transform="translate(-75.505 -67.195)" fill="#edbc32"/>
    <path id="パス_13937" data-name="パス 13937" d="M207.365,168.143c.52-3.559-.068-3.806-1.909-7.563s-3.987-3.178-7.98-3.75-4.583.283-6.9.444a4.956,4.956,0,0,0-2.685.833,1.722,1.722,0,0,1,1.476,1.079c1.407,5.132.666,10.2.316,15.338,3.655-.148,14.363-.566,16.55-.688,2.49-.14.612-2.134,1.132-5.693" transform="translate(-79.314 -66.12)" fill="#fdd23e"/>
    <path id="パス_13938" data-name="パス 13938" d="M203.328,135.684c-.035,1.126-.161,2.2-.172,3.275a25.989,25.989,0,0,1-.308,3.789c-.132.752.062,2.136-2.372,3.381-.916.469-.8-.918-1.9-.4-1.841.866-1.595-.492-2.2-.63a2.014,2.014,0,0,1-1.083-2.884c.576-1.314-.366-.55-.469-1.949-.062-.842,1.492-2.69,3-3.54s1.4-.8,1.567-1.593c.17-.808,3.945-.02,3.927.555" transform="translate(-82.243 -56.896)" fill="#ffdbb0"/>
    <path id="パス_13939" data-name="パス 13939" d="M188.458,58.973c1.894,3.641,2.164.909,4.82,3.455a3.362,3.362,0,0,0,4.952-.775c1.042-1.581-.238-1.249,1.077-3.2s1.761-2.877,1.186-4.628.025-3.472-1.816-4.374-2.56.13-3.633-.253-2.229-1.358-3.651.69-3.3,2.106-3.454,3.57-1.608,2.742.518,5.517" transform="translate(-84.952 -28.546)" fill="#bcb19d"/>
    <path id="パス_13943" data-name="パス 13943" d="M188.458,58.973c1.894,3.641,2.164.909,4.82,3.455a3.362,3.362,0,0,0,4.952-.775c1.042-1.581-.238-1.249,1.077-3.2s1.761-2.877,1.186-4.628.025-3.472-1.816-4.374-2.56.13-3.633-.253-2.229-1.358-3.651.69-3.3,2.106-3.454,3.57-1.608,2.742.518,5.517" transform="translate(-94.518 -30.872)" fill="#bcb19d"/>
    <path id="パス_13940" data-name="パス 13940" d="M177.316,41.337A6.957,6.957,0,0,1,171.1,44.05a9.592,9.592,0,0,1-4.949-2.573,9.2,9.2,0,0,1-1.84-3.931,5.826,5.826,0,0,1,.239-2.228c.518-1.719-.7-1.9,1.164-5.229.567-1.01,3.769-5.541,8.876-4.931,4.489.536,6.676,11.547,2.726,16.179" transform="translate(-69.35 -10.596)" fill="#ffe5cb"/>
    <path id="パス_13941" data-name="パス 13941" d="M171.491,29.464c-.911-2.9-6.183,2.6-6.3.885-.306-4.548,5.643-7.136,7.794-7.306a9.861,9.861,0,0,1,6.766,1.621c2.242,1.423,1.824,2.265,2.554,3.375a9.93,9.93,0,0,1,1.012,8.543,12.478,12.478,0,0,1-3.972,4.956,16.03,16.03,0,0,1-4.174,1.225c-.995.141,1.091-3.407,2.424-3.824,2.039-1.2,1.868-1.915,1.67-2.635s-1.235-1.392-1.694-.877c-2.277,2.561-.643-.133-1.311-.97-1.818-2.272-1.557,1.127-4.771-4.994" transform="translate(-69.728 -9.704)" fill="#bcb19d"/>
    <path id="パス_13942" data-name="パス 13942" d="M177.123,51.868a.145.145,0,0,0,.06.016.148.148,0,0,0,.157-.139,5.775,5.775,0,0,0-1.277-2.8.148.148,0,0,0-.232.185,5.513,5.513,0,0,1,1.212,2.593.149.149,0,0,0,.08.14" transform="translate(-74.21 -20.64)" fill="#cdb893"/>
  </g>
</svg>
