<svg id="グループ_13768" data-name="グループ 13768" xmlns="http://www.w3.org/2000/svg" xmlns:xlink="http://www.w3.org/1999/xlink" viewBox="0 0 122 182.884">
  <defs>
    <clipPath id="clip-path">
      <rect id="長方形_24423" data-name="長方形 24423" width="122" height="182.884" fill="none"/>
    </clipPath>
  </defs>
  <g id="グループ_13767" data-name="グループ 13767" clip-path="url(#clip-path)">
    <path id="パス_13885" data-name="パス 13885" d="M52.512,30.909c.244.022,5.808.458,6.116.457.077.526-1.55,3.436-.819,5.428.929,2.529,6.6,4.348,5.638,6.683-2.913,5.811-13.967,3.064-16.1.1-.473-5.385,2.859-3.25,4.711-7.189a9.087,9.087,0,0,0,.457-5.484" transform="translate(-17.097 -11.173)" fill="#ffe5c6"/>
    <path id="パス_13886" data-name="パス 13886" d="M96.027,253.422a11.162,11.162,0,0,1-1.932-2.628c-1.871-3.334-3.259-8.159-4.5-11.573-4.29-1.3-6.818-.385-4.547,6.74s2.755,11.084-.643,14.862l-.093.105c-3.352,3.749-5.906,7.813-2.617,8.194,3.319.384,7.15-1.326,10.088-4.619s7.153-8.323,4.242-11.082" transform="translate(-28.978 -86.291)" fill="#2f253f"/>
    <path id="パス_13887" data-name="パス 13887" d="M43.1,260.984a11.138,11.138,0,0,1-.535-3.217C42.4,253.948,39.989,248.6,40.425,245c-3.238-3.1-4.076-3.413-5.271,3.97s-1.033,11.534-5.77,13.37l-.13.052c-4.684,1.831-8.8,4.3-6.037,6.127,2.788,1.843,6.978,2.048,11.087.438s10.141-4.192,8.792-7.968" transform="translate(-8.07 -87.811)" fill="#2f253f"/>
    <path id="パス_13888" data-name="パス 13888" d="M30.129,164.2c.4-2.4-1.091-38.141,2.857-51.179,1.443-4.66,7.447-4.7,19.552-2.818,2.157.175,10.84-1.191,12.154,5.813,2.378,12.682.492,23.854.7,29.768.315,8.778,3.975,26.286,4.668,31.09.806,5.59,4.4,23.075,5.989,26.51,1.173,2.541-7.222,6.958-8.455,5.284-1.615-2.193-10.481-31-12.418-36.9-2.167-6.6-6.588-22.912-8.367-24.22-1.5-1.1-3.666,20.884-3.7,24.308-.035,3.7,2.013,26.668,2.378,32.851.294,4.972-.674,4.527-5.02,4.932-6.606.617-6.417.052-7.379-8.195-1.64-14.038-3.391-34.67-2.964-37.242" transform="translate(-10.867 -39.412)" fill="#cdb893"/>
    <path id="パス_13889" data-name="パス 13889" d="M47.422,17.218c-.29-5.413,1.5-11.882,8.056-11.835s8.51,6.959,8.142,12.368c.308-.305,1.064-.372,1.058.515a2.84,2.84,0,0,1-.7,1.7,3.2,3.2,0,0,1-1.484.958,7.765,7.765,0,0,1-1.916,3.264,9.471,9.471,0,0,1-5.556,2.452c-1.708.034-3.82-1.5-4.919-2.712A11.307,11.307,0,0,1,48,20.638a2.3,2.3,0,0,1-1.285-1.025,3.465,3.465,0,0,1-.355-1.988.71.71,0,0,1,1.064-.407" transform="translate(-16.741 -1.946)" fill="#ffe5c6"/>
    <path id="パス_13890" data-name="パス 13890" d="M58.454.339a11.472,11.472,0,0,0-6.812.384C50.269,1.389,48.906,3.1,48.3,3.591s-2.2.217-2.722,4.124a17.445,17.445,0,0,0-.292,4.634A8.289,8.289,0,0,0,46.7,15.365c.6.7.815,2.379,1.2.812s1.838-6.7,2.477-6.793c1.1-.155,2.119,1.542,6.328,2.5,1.251.286-.522-1.411.209-1.212.844.229,3.4,2.947,5.347,3.115.957.082-.583,3.988.791,2.854,1.259-1.04.536-1.638,1.872-4.759.9-2.107.121-5.525-.421-7.3-.527-1.721-3.516-3.562-6.048-4.25" transform="translate(-16.335 0)" fill="#7c6351"/>
    <path id="パス_13891" data-name="パス 13891" d="M7.319,49.209c-.876-.925-.819-1.6-1.677-2.469s-3-3.4-4.361-5.023c-.555-.661-1.9-1.652-.957-4.6.353-1.108,1.376.086,1.834-1.2.772-2.167,1.665-.888,2.257-1.262a2.277,2.277,0,0,1,3.177,1.427c.6,1.509.733.145,1.939,1.177.725.621.97,3.34.447,5.231a5.069,5.069,0,0,0,.894,4.184c.513.78-3.1,3.006-3.553,2.533" transform="translate(0 -12.432)" fill="#ffe5c6"/>
    <path id="パス_13892" data-name="パス 13892" d="M13.537,51.06c1.939,6.325,1.9,9.012,3.357,9.025,1.306.012,4.316-11.074,7.694-11.836,1.95-.44,5.606,11.117,1.725,16.773-2.366,3.448-7.8,9.834-12.615,7.455C9.613,70.46,7.079,64.026,4.15,53.313c-.854-3.124-.1-4.084,5.559-5.034,3.554-.6,3.281,1,3.828,2.781" transform="translate(-1.393 -17.405)" fill="#7c9c81"/>
    <path id="パス_13893" data-name="パス 13893" d="M63.539,70.389c-1.7-3.345,1-20.2-1.078-22.186-1.937-1.849-4.673-4.76-9.248-4.932-1.418-.053-1.145,2.2-6.341,2.114-3.726-.063-2.466-1.937-5.108-2.025-4.129-.138-10.716,3.753-10.447,5.495.418,2.711-1.427,15.334-1.345,17.586.109,3-.527,12.647-1.082,17.322-.958,8.06-1.34,9.846.067,13.919,1.091,3.154,14.237,1.379,15.886,2.1,4.189,1.836,21.933.508,21.758-6-.132-4.888-1.8-9.3-1.924-13.8-.1-3.727.2-6.958-1.137-9.6" transform="translate(-10.133 -15.641)" fill="#7c9c81"/>
    <path id="パス_13894" data-name="パス 13894" d="M87.022,128.808c.179-.455.307-1.024,1.16-1.1,2.847-.245,3.35-.6,4.322.951a16.263,16.263,0,0,1,2.1,4.064,6.522,6.522,0,0,1-.632,4.853c-.576,1.218-3.092,1.827-3.881,1.752-1.683-.16-2.995-1.013-3.087-2.023-.155-1.713-1.062-.324-1.7-1.9-.727-1.807.813-3.159,1.214-4.394.685-1.582.133-1.262.505-2.2" transform="translate(-30.765 -46.085)" fill="#ffe5c6"/>
    <path id="パス_13895" data-name="パス 13895" d="M76.227,49.8c2.227,1.853,5.667,5.325,8.451,16.985S87.2,79.595,88.142,86.225c.806,5.7,1.04,15.277-2.8,15.036-5.458-.341-4.8-1.414-5.725-9.533-.992-8.69-3.461-22.083-5.547-24.871-2.393-3.2-6.928-5.106-5.085-8.946s5.284-9.74,7.246-8.108" transform="translate(-24.779 -17.902)" fill="#7c9c81"/>
    <path id="パス_13896" data-name="パス 13896" d="M85.073,112.63a.24.24,0,0,1-.239-.239c0-2.955-1.371-12.091-2.769-18.444a.239.239,0,1,1,.467-.1c1.43,6.5,2.78,15.51,2.78,18.547a.24.24,0,0,1-.239.239" transform="translate(-29.662 -33.854)" fill="#2f253f"/>
    <path id="パス_13897" data-name="パス 13897" d="M144.936,188.54s-10.472-2.74-10.752-1.737c-.19.681-1.375,11.556-2.113,19.155-.349,3.587-2.615,25.913-2.613,26.625,0,1.116.281,3.884,1.93,4.259,2.059.469,3.067-.706,4.326-4.325,1.064-3.062,4.376-20.752,5.408-25.1,1.8-7.572,4.108-17.9,3.815-18.875" transform="translate(-46.795 -67.444)" fill="#ffe5c6"/>
    <path id="パス_13898" data-name="パス 13898" d="M130.006,259.045c.341-.985.977-2.348-2.928-3.128-3.928-.785-4.347-.409-4.525,2.263-.133,2,1.057,5.18-1.225,6.709-2.193,1.469-8.243,4.726-8.21,6.18s2.209,1.429,4.671,1.495a8.09,8.09,0,0,0,5.427-1.51c1.85-1.434.207,1.64,1.318,1.679,2.145.076,2.852.211,2.958-1.834a38.065,38.065,0,0,1,1.44-8c.49-1.868.888-3.311,1.075-3.852" transform="translate(-40.888 -92.375)" fill="#7c6351"/>
    <path id="パス_13899" data-name="パス 13899" d="M150.222,186.2s-10.427,2.906-10.164,3.914c.179.684,4.631,10.676,7.819,17.613,1.506,3.274,10.79,23.705,11.15,24.319.565.962,2.2,3.214,3.812,2.708,2.015-.632,2.294-2.154,1.559-5.916-.621-3.18-6.669-20.132-7.968-24.41-2.261-7.446-5.466-17.537-6.209-18.228" transform="translate(-50.625 -67.305)" fill="#ffe5c6"/>
    <path id="パス_13900" data-name="パス 13900" d="M174.819,254c-.2-1.023-.338-2.52-4.105-1.228-3.789,1.3-3.962,1.835-2.771,4.234.891,1.792,3.522,3.942,2.32,6.413-1.155,2.374-4.742,8.234-3.981,9.474s2.628.123,4.788-1.061A8.088,8.088,0,0,0,175,267.792c.877-2.17,1,1.313,1.985.787,1.891-1.015,2.569-1.253,1.631-3.074a38.06,38.06,0,0,1-2.785-7.639c-.517-1.861-.9-3.308-1.011-3.869" transform="translate(-60.068 -91.188)" fill="#7c6351"/>
    <path id="パス_13901" data-name="パス 13901" d="M136.244,54.546c.245-.017,3.472.01,3.775-.041.16.542.293,4.727.293,5.468,0,1.26,3.428,5.276,2.93,7.006-.355.614-10.576,5.009-10.382.133.034-.874,2.131-3.656,2.662-5.546a13.072,13.072,0,0,0,.321-4.09c.135-.988.425-2.562.4-2.93" transform="translate(-48.024 -19.702)" fill="#ffdbb0"/>
    <path id="パス_13902" data-name="パス 13902" d="M173.354,128.659a.887.887,0,0,1-.494-.136c-1.478-1.017-1.993-3.115-2.528-7.149a6.437,6.437,0,0,0-2.165-4.663c-.56-.617-1.257-1.386-2.159-2.518-.16-.2-.024-.442.3-.54a.893.893,0,0,1,.884.186c.886,1.112,1.573,1.871,2.126,2.48a6.965,6.965,0,0,1,2.326,4.99c.488,3.686.983,5.842,2.2,6.677.243.167.218.422-.055.571a.941.941,0,0,1-.439.1" transform="translate(-59.983 -41.068)" fill="#7194b8"/>
    <path id="パス_13903" data-name="パス 13903" d="M119.633,133.078c-1.6,17.089-5.678,42.238-11.713,54.306-.773,1.548,2.218,6.639,11.358,7.277s15.263-4.082,26.8-.178c5.91,2,16.964-.4,14.553-4.26-2-3.195-10.6-9.916-10.915-20.276-.266-8.785-.344-29.454-2.795-33.009-4.251-6.164-2.843-8.536-9.644-7.9s-17-2.763-17.643,4.039" transform="translate(-38.968 -46.536)" fill="#fdd23e"/>
    <path id="パス_13904" data-name="パス 13904" d="M153.595,113.85c.487-5.233-3.149-6.383-3.623-9.7-.384-2.686,2.956-.2,5.952-2.551,3.555-2.793-.422-16.221-2.744-20.2-2.07-3.548-5.032-8.5-9.609-11.84a22.541,22.541,0,0,1-4.037-4.193c-.921-1.408-1.974-.621-3.261.133-3.2,1.875-4.193,1.22-5.79,1.264-1.136.031-2.844,7.312-3.993,11.358-.773,2.722-2.329,9.872-2.329,11.8a74.054,74.054,0,0,1-.8,13.377c-.652,3.584-2.6,8.319,1.663,9.384,2.84.71,7.117.077,13.177,1.109,8.341,1.419,15.085,3.372,15.394.057" transform="translate(-44.226 -23.346)" fill="#ca7d93"/>
    <path id="パス_13905" data-name="パス 13905" d="M158.1,104.295a2.447,2.447,0,0,1-1.052-.3,33.955,33.955,0,0,1-3.113-1.646.28.28,0,1,1,.31-.466,34.2,34.2,0,0,0,3.052,1.612c.518.257.894.315,1.057.162.266-.248.146-1.075-.056-1.558-.076-.182-.2-.471-.359-.822-.5-1.121-1.247-2.815-1.538-3.779a.28.28,0,0,1,.536-.162c.28.932,1.022,2.606,1.513,3.714.158.355.287.648.364.832.177.422.506,1.637-.077,2.182a.9.9,0,0,1-.637.234" transform="translate(-55.597 -35.111)" fill="#a5657a"/>
    <path id="パス_13906" data-name="パス 13906" d="M150.724,118.889a.826.826,0,0,1-.441-.118,25.421,25.421,0,0,1-2.569-2.141,56.577,56.577,0,0,0-4.924-4.064c-3.254-2.312-3.486-4.949-3.756-8l-.09-.993a44.61,44.61,0,0,0-3.765-15.406c-2.923-6.287-2.326-15.256-1.933-18.821.024-.222.311-.389.665-.375s.6.209.577.432c-.388,3.52-.979,12.372,1.883,18.53a45.1,45.1,0,0,1,3.816,15.591l.091,1c.266,3.019.476,5.4,3.431,7.5a57.458,57.458,0,0,1,5.014,4.134,25.624,25.624,0,0,0,2.441,2.044.315.315,0,0,1,0,.571.826.826,0,0,1-.441.118" transform="translate(-48.045 -24.93)" fill="#7194b8"/>
    <path id="パス_13907" data-name="パス 13907" d="M150.635,144.254c-.248-2.182-.915-3.415,1.414-4.615a27.316,27.316,0,0,1,6.7-2.785,25.516,25.516,0,0,0,5.818-1.442c2.244-.919,4.709-2.117,5.515-1.154s3.722,8.213,3.7,10.528.5,4.364-1.956,4.472-3.417,1.051-6.562,2.242-5.071,2.8-7.249,2.779-4.922,1.716-5.023-1.418-2.366-7.653-2.356-8.607" transform="translate(-54.348 -48.401)" fill="#7194b8"/>
    <path id="パス_13908" data-name="パス 13908" d="M140.77,102.612c-1.133-1.181-1.386-1.809-1.358-2.541s-.093-2.482-.184-3.537-.571-1.515-1.114-1.3-.3,1.059-.568,2.57-.631.783-1.377.407-3.613-2.984-4.463-3.336-1.8-.923-2.254-.246,1.115,1.3,1.167,1.9-.575.55-1.442.883-.48.771-.1,1.649.634.842.444,1.632.02.94.593,1.422,2.549.859,4.212,1.308,2.479.455,3.535,1.556c.5.522,4.046-1.185,2.91-2.37" transform="translate(-46.504 -34.091)" fill="#ffe5c6"/>
    <path id="パス_13909" data-name="パス 13909" d="M145.349,48.335a7.614,7.614,0,0,1-6.95,2.1,10.852,10.852,0,0,1-5.127-3.191A9.48,9.48,0,0,1,131.621,43a5.683,5.683,0,0,1,.45-2.263c.707-1.709-.6-2.032,1.706-5.244.7-.975,4.549-5.275,10.014-4.083,4.8,1.048,6.223,12.6,1.558,16.925" transform="translate(-47.577 -11.279)" fill="#ffe5c6"/>
    <path id="パス_13910" data-name="パス 13910" d="M134.92,32.412a5.747,5.747,0,0,1,3.862-2.469c2.268-.275,2.663-1.738,5-1.553a11.42,11.42,0,0,1,6.687,2.585,8.807,8.807,0,0,1,2.686,5.074c.187,1.059.449,6.972-1.759,9.892-1.2,1.585-5.18,2.253-7.545,3.085-1.3.46-2.16.318-1.925-2.26.9-1.553,2.511-3.235,2.358-4s-1.238-.809-1.912-.521c-1.7.725-1.3.218-1.94-2.186-.786-2.932-7.6-3.566-5.509-7.652" transform="translate(-48.626 -10.257)" fill="#d8735b"/>
    <path id="パス_13911" data-name="パス 13911" d="M155.249,53.208c-1.256,2.886-3.318,4.517-1.191,8.238,2.063,3.61-1.421,3.059-4.886,1.633-3.235-1.331-5.445-2.594-5.424-4.477.042-3.666,3.7-6.367,5.371-7.554s7.671-1.382,6.13,2.16" transform="translate(-51.961 -18.173)" fill="#d8735b"/>
  </g>
</svg>
