<svg xmlns="http://www.w3.org/2000/svg" viewBox="0 0 111.203 233.13">
  <g id="グループ_13851" data-name="グループ 13851" transform="translate(0 0)">
    <path id="パス_14104" data-name="パス 14104" d="M98.466,304.949c-1.98-3.784.472-14.053,1.35-18.056,2.128-9.715,2.11-34.867,1.766-36.384,0,0-10.662-.876-10.644,1.33.01,1.207.09,17.988.368,31.059.233,10.975,1.229,17.154-.341,19.975-1.752,3.149-8.567,8.956-7.25,9.722,3.488.929,15.994-3.1,14.752-7.646" transform="translate(-25.336 -82.84)" fill="#ffdbb0"/>
    <path id="パス_14105" data-name="パス 14105" d="M96.667,326.76c-2.83,2.248-6.218,6.2-10.5,7.03-3.346.663-.771-2.742-1.484-2.193-1.549,1.194-4.693,3.847-5.7,5.549-1.041,1.757,2.636,2.118,4.941,1.969,1.394-.09,3.95-.645,8.775-3.688,1.515-.955,1.768-.845,1.995.06.288,1.153.929.7,1.922.672,2.25-.057,1.145-7.231.049-9.4" transform="translate(-23.898 -106.016)" fill="#004ea2"/>
    <path id="パス_14106" data-name="パス 14106" d="M140.1,295.422c-3.593-2.309-6.541-12.447-7.759-16.359-2.957-9.5-15.415-31.347-16.465-32.494,0,0-9.7,4.513-8.592,6.421.605,1.044,8.977,15.589,15.684,26.81,5.632,9.423,9.554,14.3,9.585,17.529.035,3.6-3.015,12.021-1.491,12.035,3.491-.918,12.367-10.606,9.038-13.942" transform="translate(-32.509 -81.697)" fill="#ffdbb0"/>
    <path id="パス_14107" data-name="パス 14107" d="M148.551,315.24c-1.348,3.353-2.336,8.466-5.646,11.3-2.581,2.231-2.027-2-2.374-1.172-.755,1.8-2.175,5.664-2.209,7.643-.035,2.042,3.339.537,5.268-.733,1.167-.768,3.114-2.515,5.8-7.546.845-1.581.928-1.747,1.6-1.1,1.116,1.069,1.033.175,1.778-.48,1.586-1.393-2.2-6.57-4.222-7.914" transform="translate(-41.948 -102.522)" fill="#004ea2"/>
    <path id="パス_14108" data-name="パス 14108" d="M123.078,239.923a127.468,127.468,0,0,1-2.969-18.736c-.428-6.411-.647-8.539,1.221-14.505,1.476-4.717,1.581-8.031,1.136-13.857-.535-6.993-3.911-10.185-6.115-10.048-10.733.667-23.629,2.12-24.832,2.268a1.084,1.084,0,0,0-.5.176c-1.754.5-1.9,2.023-2.089,7-.262,6.848-2.611,27.065-2.592,40.11.017,12.153,1.623,12.442,4.214,12.875a99.46,99.46,0,0,0,14.685.959c5.675-.114,10.714-.256,13.66-.631,5.83-.743,5.3-.628,4.18-5.607" transform="translate(-26.183 -62.35)" fill="#cdd171"/>
    <path id="パス_14109" data-name="パス 14109" d="M74,118.342c-1.212-.856-2.3-1.771-3.474-2.567a34.131,34.131,0,0,1-3.94-3.089c-.73-.691-2.393-1.483-1.993-5.062.15-1.346,1.591-.216,1.821-1.791.386-2.652,1.7-1.4,2.289-1.958,1.021-.971,2.929-.684,3.955.9s.87,0,2.483.9c.971.543,1.872,3.593,1.708,5.873s-.134,2.124.612,2.88c.764.774-2.842,4.349-3.461,3.911" transform="translate(-19.572 -38.253)" fill="#ffdbb0"/>
    <path id="パス_14110" data-name="パス 14110" d="M82.86,118.47c3.8,4.255,6.1,9.056,7.7,8.676,2.011-.478,3.806-7.215,10.849-8.923,2.979-.722,11.063,2.664,9.638,8.337-1.119,4.454-10.028,13.6-16.584,15.365-5.842,1.573-17.083-11.859-20.209-16.782-1.857-2.926-1.837-2.407,3.015-5.308,4.784-2.859,4.346-2.763,5.593-1.366" transform="translate(-22.172 -42.561)" fill="#cdd171"/>
    <path id="パス_14111" data-name="パス 14111" d="M111.509,89.683c-.268.006-4.465-.18-4.8-.2a33.248,33.248,0,0,1-.773,6.517,37.179,37.179,0,0,1-3.26,10.1c-1.01,2.167,1.037,3.236,5.766,2.523,2.408-.364,10.083,1.965,9.545-.563-1.067-5.007-2.469-9.614-4.285-10.67a5.166,5.166,0,0,1-2.143-4.075c-.136-1.419-.041-3.245-.049-3.623" transform="translate(-31.061 -34.057)" fill="#ffdbb0"/>
    <path id="パス_14112" data-name="パス 14112" d="M116.116,115.839c.656-7.937,1.1-7.739-2.018-13.118-1.25-2.158-.67-8.1-4.686-7.424-3.046.517-4.541.865-5.838,1.658-.583.357-.247,1.453-.5,2.739-.649,3.244-2.464,6.168-4.541,11.1-1.153,2.739-2.307,8.5-2.163,10.379.437,5.68,3.381,3.764,9.8,3.892,7.208.144,9.276-1.118,9.947-9.225" transform="translate(-29.221 -35.806)" fill="#eaeaea"/>
    <path id="パス_14113" data-name="パス 14113" d="M97.5,113.153c.833-1.288,8.7-15.786,10.08-16.348,2.677-1.095,1.751,1.678,4.038,2.129,5.182,1.024,12.312,8.536,13.855,10.606,2.768,3.714,4.447,7.944,5.949,12.691,1.5,4.729,3.372,17.026-6.161,17.166-2.569.038-2.334,4.383-1.808,7.255.791,4.325,1.3,12.327,5,18.259,4.081,6.543-.539,6.225-10.282,6.727-6.715.346-11.518-1.143-17.395-2.4-5.382-1.153-14.607-2.4-15.184-4.709-.664-2.657,4.863-13.772,7.208-20.182,2.162-5.91,1.057-7.64-.961-12.974-.768-2.028-.6-3.985.672-7.976,1.153-3.6,3.885-7.71,4.991-10.243" transform="translate(-25.94 -36.202)" fill="#cdd171"/>
    <path id="パス_14114" data-name="パス 14114" d="M101.012,119.9a.3.3,0,0,0,.229-.1c.461-.534.918-.9,5.285-4.376l1.015-.808c4.583-3.652,4.426-4.48,3.59-6.163-.116-.231-.241-.484-.358-.771-.2-.484-.249-.82-.153-1,.134-.248.651-.346,1.306-.472a11.734,11.734,0,0,0,1.941-.5c2.03-.752,1.885-1.481,1.453-2.7-.1-.277-.208-.591-.3-.953a.3.3,0,0,0-.573.148c.1.381.215.711.318,1,.38,1.076.482,1.366-1.1,1.952a11.01,11.01,0,0,1-1.846.473c-.809.154-1.446.277-1.715.771a1.741,1.741,0,0,0,.124,1.5c.123.3.255.568.376.812.681,1.37.964,1.938-3.429,5.436l-1.014.808c-4.406,3.51-4.867,3.877-5.364,4.452a.3.3,0,0,0,.218.489" transform="translate(-30.545 -37.805)" fill="#775d36"/>
    <path id="パス_14115" data-name="パス 14115" d="M129.09,172.208a.3.3,0,0,0,.033-.589c-1.274-.177-6.487-.972-8.744-1.5-.711-.169-1.146-.38-1.291-.628-.123-.21-.043-.486.049-.808a3.66,3.66,0,0,0,.129-.554.3.3,0,0,0-.256-.33.3.3,0,0,0-.331.256,3.007,3.007,0,0,1-.11.464,1.543,1.543,0,0,0,.008,1.269,2.468,2.468,0,0,0,1.667.906c2.277.537,7.518,1.337,8.8,1.515a.232.232,0,0,0,.049,0" transform="translate(-35.916 -57.807)" fill="#775d36"/>
    <path id="パス_14116" data-name="パス 14116" d="M129.82,169.265a.3.3,0,0,0,.281-.237.922.922,0,0,0-.056-.724c-.15-.222-.4-.267-.777-.336l-.251-.047c-1.007-.2-5.567-.975-7.759-1.348l-1.18-.2a.3.3,0,1,0-.1.582l1.181.2c2.189.373,6.744,1.148,7.743,1.345l.26.049a1.881,1.881,0,0,1,.4.1,1.033,1.033,0,0,1-.042.264.3.3,0,0,0,.231.349.308.308,0,0,0,.066.006" transform="translate(-36.311 -57.375)" fill="#775d36"/>
    <path id="パス_14117" data-name="パス 14117" d="M105.5,135.126a4.9,4.9,0,0,1-1.381,6.765l-2.859,1.891A4.9,4.9,0,0,1,94.5,142.4L66.172,99.552a4.9,4.9,0,0,1,1.381-6.766l2.86-1.89a4.9,4.9,0,0,1,6.765,1.381Z" transform="translate(-19.823 -34.243)" fill="#83ccd2"/>
    <path id="パス_14118" data-name="パス 14118" d="M76.965,89.049a6.765,6.765,0,0,1-2.545,7.33l-4.2,2.775a6.765,6.765,0,0,1-7.741-.53l-.433-.38a3.546,3.546,0,0,1,.406-5.915l8.729-5.77a3.547,3.547,0,0,1,5.6,1.945Z" transform="translate(-18.392 -32.953)" fill="#004ea2"/>
    <path id="パス_14119" data-name="パス 14119" d="M59.983,24.606a32.7,32.7,0,1,1-45.311-9.247,32.7,32.7,0,0,1,45.311,9.247" transform="translate(0 -9.934)" fill="#83ccd2"/>
    <path id="パス_14120" data-name="パス 14120" d="M56.784,32.52a24.662,24.662,0,1,1-19.16-11.039,24.952,24.952,0,0,1,4.063.587A24.154,24.154,0,0,1,47.2,24.043a22.854,22.854,0,0,1,3.81,2.344,24.555,24.555,0,0,1,5.778,6.133" transform="translate(-3.491 -13.424)" fill="#fff"/>
    <path id="パス_14121" data-name="パス 14121" d="M52.319,22.086,50.671,38.568a2.084,2.084,0,1,1-4.088-.406L48.256,21.5a24.952,24.952,0,0,1,4.063.587" transform="translate(-14.123 -13.442)" fill="#ffe33f"/>
    <path id="パス_14122" data-name="パス 14122" d="M65.519,27.52,63.466,47.966a2.082,2.082,0,1,1-4.081-.41l2.17-21.69a3.055,3.055,0,0,1,.153-.69,22.9,22.9,0,0,1,3.81,2.344" transform="translate(-18.004 -14.557)" fill="#ffe33f"/>
    <path id="パス_14123" data-name="パス 14123" d="M117.178,151.371c-1.3.242-1.857-.189-3.1.068s-4.653.694-6.839.966c-.889.111-2.51.722-4.548-1.76-.766-.933.852-1.151-.011-2.277-1.453-1.9.165-1.952.173-2.679a2.365,2.365,0,0,1,3.037-1.964c1.652.332.539-.557,2.119-1.026.951-.281,3.459,1.039,4.813,2.562a5.262,5.262,0,0,0,4.152,1.582c.97-.007.868,4.4.2,4.527" transform="translate(-30.956 -50.186)" fill="#ffdbb0"/>
    <path id="パス_14124" data-name="パス 14124" d="M122.485,144.189c.755-.3,4.527-2.081,6.834-3.427,4.58-2.671,6.749-.36,7.592,1.73,1.238,3.071-2.4,5.574-5.3,7.342a32.157,32.157,0,0,1-7.057,2.478c-1.626.3-1.806.12-1.814-1.641s-1.5-5.979-.254-6.482" transform="translate(-36.994 -49.245)" fill="#cdd171"/>
    <path id="パス_14125" data-name="パス 14125" d="M115.448,82.675c-2.558,2.436-5.627,3.126-7.852,2.493a11.642,11.642,0,0,1-5.655-3.732,11.171,11.171,0,0,1-1.727-4.98,7.076,7.076,0,0,1,.57-2.662c.842-2.011-.61-2.387,2.065-6.17.812-1.149,5.252-6.218,11.344-4.837,5.355,1.213,6.609,14.79,1.255,19.888" transform="translate(-30.392 -25.891)" fill="#ffdbb0"/>
    <path id="パス_14126" data-name="パス 14126" d="M104.421,67.173c-.21-1.541,1.389-3.067,3.109-4.01a15.823,15.823,0,0,1,8.943-1.108,11.98,11.98,0,0,1,7.286,5.733c.448.859.927,5.891-.2,7.978a22.152,22.152,0,0,0-2.042,8.27c-.177,2.623,2.925,5.653.612,5.834-2.006.158-6.2.031-9.109-2.1-1.1-.806-1.049-2.454-1.131-3.682-.121-1.782-.778-3.1.149-3.337,2.547-1.335,2.154-2.3,1.958-3.185s-1.428-.9-2.158-.49c-1.323.743-1.524-.427-1.808-2.57-.274-2.075-2.809-2.186-5.608-7.327" transform="translate(-31.661 -25.673)" fill="#815a46"/>
    <path id="パス_14127" data-name="パス 14127" d="M120.462,202.859a62.256,62.256,0,0,1-11.012-1.089c-.922-.2-2.187-.465-3.63-.761-3.918-.8-9.283-1.906-12.535-2.9a.262.262,0,0,1,.153-.5c3.229.982,8.58,2.082,12.488,2.884,1.445.3,2.712.557,3.637.763,3.323.739,10.443,1.347,13.169.957a.261.261,0,1,1,.073.517,17.477,17.477,0,0,1-2.343.125" transform="translate(-28.234 -66.847)" fill="#775d36"/>
    <path id="パス_14128" data-name="パス 14128" d="M107.583,102.369a.862.862,0,0,1-.581-.192,1.4,1.4,0,0,1-.341-1.067.087.087,0,0,1,.174,0,1.255,1.255,0,0,0,.28.935.821.821,0,0,0,.677.132c.745-.111,2.067-.463,2.856-.672.231-.061.42-.111.548-.143a.086.086,0,0,1,.105.063.085.085,0,0,1-.063.105c-.126.032-.316.082-.544.143-.794.21-2.122.563-2.876.676a1.565,1.565,0,0,1-.235.019" transform="translate(-32.346 -37.559)" fill="#775d36"/>
  </g>
</svg>
