<svg xmlns="http://www.w3.org/2000/svg" viewBox="0 0 155.402 164.058">
  <g id="グループ_13880" data-name="グループ 13880" transform="translate(-54 -32.732)">
    <g id="グループ_13881" data-name="グループ 13881" transform="translate(54 32.732)">
      <path id="パス_14209" data-name="パス 14209" d="M195.021,169.4a1.247,1.247,0,0,1-.891,1.34c-.8.331-1.82.365-1.913,0l-7.766-30.616a2.96,2.96,0,0,1,.619-2.841c.62-.47,2.847-.295,3.09.816Z" transform="translate(-64.093 -47.66)" fill="#645d6e"/>
      <path id="パス_14210" data-name="パス 14210" d="M180.4,60.755c0-8.408-6.885-9.864-11.138-9.864s-19.036-2.911-24.706,1.294-2.227,11.157-1.417,17.3,2.363,8.381,1.62,13.421c-.81,5.5-21.472,18.965-18.839,24.463.9,1.887-2.915,6.217,12.453,8.405,12.478,1.776,21.436,2.528,35.538-8.78,6.521-5.229,5.679-29.909,6.084-36.862s.405-6.468.405-9.378" transform="translate(-43.7 -17.353)" fill="#6b5136"/>
      <path id="パス_14211" data-name="パス 14211" d="M129,198.47c-.791,2.534-.791,6.216-3.226,7.421-3.951,1.956-5.642,5.187-2.189,6.78,3.821,1.763,7.77-.276,9.132-.909,3.549-1.648,3.279-3.922,2.772-6.714a29.808,29.808,0,0,1-.375-6.342c-.031-2.376-5.588-3.2-6.114-.237" transform="translate(-42.319 -68.344)" fill="#2f253f"/>
      <path id="パス_14212" data-name="パス 14212" d="M153.72,196.352a19.481,19.481,0,0,1,1.364,6.974c-.294,3.1-.74,5.537-2.325,6.687-3.284,2.38-6.761,4.616-2.3,6.732s8.849-2.2,10.259-3.254c3.673-2.751,3.025-6.333,1.768-9.414-1.462-3.738-.8-5.616-.984-8.819-.276-4.7-9.6-4.134-7.78,1.093" transform="translate(-51.576 -66.775)" fill="#2f253f"/>
      <path id="パス_14213" data-name="パス 14213" d="M135.652,112.634c-3.853,6.446-9.883,8.025-13.478,14.335-1.793,3.149,1.474,33.772,4.348,39.405,2.068,4.055,4.921,2.2,8.371,2.735,4.8.743.461-20.267,3.741-17.662,1.758,1.4,2.813,18.78,5.2,20.656,2.183,1.712,9.386.76,10.7-.042,1.456-.89-.425-8.04-.37-10.818.177-8.771-4.215-22.035,1.954-24.724,6.259-2.728,9.535-5.568,12.474-13.018,2.238-5.674.73-10.267-2.842-15.679-1.915-2.719-18.061-4.895-25.539-3.743-5.782.891-4.176,7.356-4.561,8.555" transform="translate(-42.3 -36.077)" fill="#aa998a"/>
      <path id="パス_14214" data-name="パス 14214" d="M144.739,160.778a.38.38,0,0,1-.084.032.261.261,0,0,1-.329-.2c-.052-.329-.143-.848-.256-1.486a80.045,80.045,0,0,1-1.165-8.228c-.023-.565-.081-1.213-.143-1.911-.234-2.633-.524-5.909.681-8.178,1.558-2.937,6.141-4.1,8.6-4.727a.262.262,0,0,1,.336.19.3.3,0,0,1-.235.335c-2.363.6-6.761,1.718-8.189,4.406-1.127,2.124-.843,5.314-.616,7.877.063.707.121,1.363.143,1.936a79.816,79.816,0,0,0,1.159,8.161c.113.642.205,1.164.258,1.5a.3.3,0,0,1-.162.3" transform="translate(-49.564 -47.309)" fill="#645d6e"/>
      <path id="パス_14215" data-name="パス 14215" d="M158.589,28.635c-.2.026-2.8.567-3.05.574-.042.463-.883,3.4-1.027,3.988a38.7,38.7,0,0,1-2.7,7.106c3.243,2.272,11.6,2.379,13.235-.273-.56-.207-5.3-8.04-5.668-9.1-.268-.775-.755-2-.794-2.3" transform="translate(-52.784 -9.956)" fill="#ffdbb0"/>
      <path id="パス_14216" data-name="パス 14216" d="M148.4,40.5c2.368-1.273.926.573,4.557-.261,1.7-.389,4.463-2.553,5.471-2.46,4.81.444,9.913,4.8,10.442,9.8.273.077-1.84,5.557.214,12.791-.035.629,1.536,19.978,2.626,23.093s-4.939,2.568-6.888,2.736-16.32-.3-18.455-.245a3.192,3.192,0,0,1-3.283-2.379c-1.02-3.735-1.273-7.806-.686-15.38.813-10.219,3.221-25.887,6-27.7" transform="translate(-49.402 -13.135)" fill="#fff"/>
      <path id="パス_14217" data-name="パス 14217" d="M130.512,69.274c-2.069,0-5.669,1.44-9.628-4.229-1.1-1.579-.238-8.52,1.53-10.347,2.7-2.789,3.721-.1,5.669.18,1.26.18.984-1.11,5.893-8.614,1.208-1.846,3.481-7.49,8.323-6.952,1.62.18-1.208,18.6-1.35,22.4-.507,13.62-1.313,24.41-2.149,27.136-1.553,2.7-4.25,6.378-5.964,6.462-.842.041-.709-1.776-.339-9.915.215-4.721-.458-16.126-1.985-16.126" transform="translate(-41.859 -13.656)" fill="#7c9c81"/>
      <path id="パス_14218" data-name="パス 14218" d="M165.365,37c3.144-1.01,6.231.113,9.62,2.416,4.933,3.25,4.5,3.237,6.526,5.666,3.393,4.069,3.877,11.751,3.481,13.783-1.013,5.2-2.3,12.027-2.885,14.007-.992,3.361.516,6.171,1.774,9.732,1.065,3.018,4.175,7.172,4.08,9.864-.117,3.3-19.338,4.637-20.087-2.086-1.234-8.264-.408-15.459-3.2-29.117-1.635-8-.056-24.024.69-24.264" transform="translate(-57.007 -12.733)" fill="#7c9c81"/>
      <path id="パス_14219" data-name="パス 14219" d="M167.543,64.28a.3.3,0,0,1-.064,0,.264.264,0,0,1-.224-.3c.029-.2.067-.564.118-1.049.257-2.43.857-8.121,2.243-11.457,1.241-2.99.656-3.429-.317-4.157a7.678,7.678,0,0,1-.8-.665c-1.295-1.268-.091-2.95.876-4.3.168-.234.333-.464.481-.686a.958.958,0,0,0,.194-.823c-.19-.616-1.234-1.038-1.858-1.29l-.161-.065a.264.264,0,1,1,.2-.488l.159.065c.757.305,1.9.768,2.165,1.623a1.464,1.464,0,0,1-.26,1.271c-.151.225-.318.459-.49.7-1.117,1.56-1.839,2.733-.935,3.616a7.2,7.2,0,0,0,.751.621c1.17.875,1.819,1.574.487,4.78-1.356,3.266-1.951,8.9-2.205,11.312-.052.494-.091.864-.121,1.068a.263.263,0,0,1-.234.224" transform="translate(-58.151 -13.553)" fill="#7c6351"/>
      <path id="パス_14220" data-name="パス 14220" d="M147.5,60.265a.264.264,0,0,1-.289-.235c-.023-.224-.053-.585-.094-1.041a62.377,62.377,0,0,0-1.1-8.408c-.583-1.964.369-2.286,1.376-2.628.249-.085.517-.175.788-.3a.871.871,0,0,0,.522-.477c.155-.466-.267-1.227-.757-2.109-.1-.178-.2-.363-.3-.553-.979-1.821-.406-2.661.913-3.5a.264.264,0,1,1,.283.445c-1.155.733-1.535,1.311-.732,2.8.1.189.2.371.3.548.572,1.031,1.025,1.844.8,2.53a1.355,1.355,0,0,1-.806.792,8.714,8.714,0,0,1-.836.316c-1.014.344-1.478.5-1.04,1.979a62.405,62.405,0,0,1,1.121,8.512c.04.453.071.811.093,1.033a.263.263,0,0,1-.235.289" transform="translate(-50.707 -14.247)" fill="#7c6351"/>
      <path id="パス_14221" data-name="パス 14221" d="M155.6,19.363c-.461,3.487-2.3,5.808-4.289,6.545a9.933,9.933,0,0,1-6.277.1,11.545,11.545,0,0,1-4.133-3.172,8.022,8.022,0,0,1-1.12-2.545c-.546-2.156-1.823-1.644-2.053-6.32-.07-1.421-.736-4.3,4.5-6.611,4.605-2.034,17.025.207,13.369,12" transform="translate(-47.865 -2.328)" fill="#ffdbb0"/>
      <path id="パス_14222" data-name="パス 14222" d="M137.561,10.748c-.9,1.417-.022,4.648-1.393,3.959-2.642-1.327-4.072-7.125-1.575-8.922,2.568-1.848-.3-2.02,5.457-5.075,4.2-2.228,15.263,1.02,14.707,6.571-.367,3.673,2.159,6.388-.8,10.614-.553.789-1.414-2.788-1.105-3.289,1.431-2.566.8-3.22.141-3.868s-2.194-.718-2.363.12c-.838,4.169-1.394-.111-3.145.864-3.677,2.046-9.541-1.847-9.92-.973" transform="translate(-46.345 0)" fill="#6b5136"/>
      <path id="パス_14223" data-name="パス 14223" d="M128.657,30.4c-.34.261-1.684,7.709-4.017,7.016-3.8-1.129-.14-7.768-.174-9.373a13.745,13.745,0,0,1,1.508-4.494,17.7,17.7,0,0,1,3.84-4.085c.982-.657,2.735-1.048,3.012-.2.46,1.409-.531,3.8-.62,4.613-.079.723.674.071.534,1.295a5.19,5.19,0,0,1-1.547,3.118c-1.228.882-1.834,1.568-2.537,2.109" transform="translate(-42.735 -6.53)" fill="#ffdbb0"/>
      <path id="パス_14224" data-name="パス 14224" d="M124.473,36.991c2.205,1.044,2.761.855,2.157,3.871-1.294,6.46-.712,12.744.376,12.844,3.9.36,6.3,15.3.99,14.756-3.323-.338-8.112-.263-10.12-10.134-1.689-8.3.737-19.438,2.036-21.379,1.166-1.742,1.648-1,4.561.042" transform="translate(-40.783 -12.483)" fill="#7c9c81"/>
      <path id="パス_14225" data-name="パス 14225" d="M158.96,44.2c-.11-1.174-.741-6.309-2.052-7.885s-2.794-2.335-5.528-3.483c-1.036-.436-.962.8-1.4.778-1.248-.053-1.963.6-1.56,1.362.736,1.384,3.157,5.219,3.346,5.911.334,1.219,1.9,4.651,2.836,5.209.819.492.927,1.681,1.374,3.463,1.737,4.327,5.161,1.365,4.1-2.477A16.607,16.607,0,0,1,158.96,44.2" transform="translate(-51.564 -11.382)" fill="#ffdbb0"/>
      <path id="パス_14226" data-name="パス 14226" d="M169.476,72.274c4.519-.288,5.382.626,8.586-3.442,4.678-5.938-1.317-15.255-3.779-12.956-1.246,1.164-2.539,7.462-4.622,4.654-2.639-3.558-5.695-9.252-7.1-8.253-1.083,1.055-3.82,2.048-4.929,3.3-1.063,1.2,2.467,6.963,4.179,11.387,1.937,5,4.834,5.494,7.667,5.313" transform="translate(-54.737 -18.135)" fill="#7c9c81"/>
      <path id="パス_14227" data-name="パス 14227" d="M46.884,154.846c.024.759.894,1.362,1.943,1.357s1.907-.614,1.915-1.374l.723-63.7C51.49,88.866,50,86.992,48.134,87s-3.319,1.9-3.248,4.155Z" transform="translate(-15.605 -30.248)" fill="#d69554"/>
      <path id="パス_14228" data-name="パス 14228" d="M184.967,213.259a1.658,1.658,0,0,0,1.819,1.357,1.639,1.639,0,0,0,1.794-1.374l.677-63.7c.024-2.26-1.371-4.134-3.119-4.126s-3.108,1.9-3.041,4.155Z" transform="translate(-65.5 -50.558)" fill="#d69554"/>
      <path id="パス_14229" data-name="パス 14229" d="M231.974,185.881c.026.759.982,1.362,2.134,1.357s2.1-.615,2.1-1.374l.794-63.7a3.883,3.883,0,0,0-3.659-4.126,3.819,3.819,0,0,0-3.567,4.155Z" transform="translate(-82.752 -41.039)" fill="#d69554"/>
      <path id="パス_14230" data-name="パス 14230" d="M3.327,179.691c.024.759.92,1.362,2,1.357s1.963-.614,1.971-1.374l.744-63.7c.026-2.26-1.508-4.134-3.429-4.126S1.2,113.741,1.27,116Z" transform="translate(-0.441 -38.887)" fill="#d69554"/>
      <path id="パス_14231" data-name="パス 14231" d="M.9,104.659a2.772,2.772,0,0,0,1.436,4.785l113.768,20.7c2.9.533,7.485.327,10.049-1.316l27.156-15.911c2.976-1.674,2.909-6.969-1.061-7.372L38.528,85.834a16,16,0,0,0-9.941,2.02Z" transform="translate(0 -29.79)" fill="#d69554"/>
      <path id="パス_14232" data-name="パス 14232" d="M2.416,102.374C-.109,103.912.153,105.589,3,106.1L117.352,126.61a16.282,16.282,0,0,0,9.763-1.87l26.217-15.973c2.524-1.539,2.263-3.215-.581-3.725L38.4,84.531A16.28,16.28,0,0,0,28.633,86.4Z" transform="translate(-0.237 -29.338)" fill="#c98841"/>
      <path id="パス_14233" data-name="パス 14233" d="M176.386,135.773a2.945,2.945,0,0,0,2.069-.261l19.4-11.257c.565-.328.557-.746-.016-.931l-14.319-4.6a2.945,2.945,0,0,0-2.069.261l-19.4,11.257c-.564.327-.557.746.016.931Z" transform="translate(-56.197 -41.249)" fill="#82a7ce"/>
      <path id="パス_14234" data-name="パス 14234" d="M164.771,130.834a3.165,3.165,0,0,0,2.17-.56l19.145-14.64c.558-.427.492-.871-.144-.99l-15.888-2.951a3.161,3.161,0,0,0-2.17.56l-19.146,14.64c-.557.426-.492.871.144.99Z" transform="translate(-51.582 -38.824)" fill="#fff"/>
      <path id="パス_14235" data-name="パス 14235" d="M126.453,110.534c-3.024,2.1-3.474,3.183-5.274,2.868L89.6,107.8a4.662,4.662,0,0,1-3.914-4.049c-.2-3.509.4-8.663,2.4-8.31l44.7,7.872c2,.353,2.253,1.557.555,2.676,0,0-5.2,3.365-6.89,4.543" transform="translate(-29.778 -33.178)" fill="#83a7ce"/>
      <path id="パス_14236" data-name="パス 14236" d="M117.361,103.454c.388.986-.114,1.65-1.115,1.474L81.837,98.891a3.751,3.751,0,0,1-2.526-2.113L69.622,72.143c-.387-.987.114-1.65,1.116-1.474l34.408,6.037a3.75,3.75,0,0,1,2.526,2.113Z" transform="translate(-24.161 -24.561)" fill="#83a7ce"/>
      <path id="パス_14237" data-name="パス 14237" d="M104.256,94.641a1.787,1.787,0,0,1-2.2,1.8,2.751,2.751,0,0,1-2.205-2.59,1.786,1.786,0,0,1,2.2-1.8,2.75,2.75,0,0,1,2.206,2.59" transform="translate(-34.716 -31.992)" fill="#2060a5"/>
      <path id="パス_14238" data-name="パス 14238" d="M140.406,115.956a.164.164,0,0,1-.148-.094c-.125-.266-1.048-2.826-2.024-5.537-.8-2.222-1.558-4.321-1.8-4.956a.163.163,0,0,1,.3-.118c.247.639,1,2.74,1.806,4.963.931,2.584,1.894,5.256,2.014,5.508a.164.164,0,0,1-.079.217.162.162,0,0,1-.069.016" transform="translate(-47.431 -36.558)" fill="#7c6351"/>
    </g>
  </g>
</svg>
