<svg xmlns="http://www.w3.org/2000/svg" viewBox="0 0 149.645 121.257">
  <g id="グループ_13867" data-name="グループ 13867" transform="translate(0)">
    <g id="グループ_13868" data-name="グループ 13868" transform="translate(0 0)">
      <path id="パス_14182" data-name="パス 14182" d="M6.367,124.723c-.015.731-1.375,1.517-2.046,1.512s-2.092-.781-2.1-1.512L1.762,63.38C1.746,61.2,2.7,59.4,3.89,59.407s3.8,1.81,3.753,3.985Z" transform="translate(141.572 -25.969)" fill="#b99a6a"/>
      <path id="パス_14181" data-name="パス 14181" d="M6.367,124.723c-.015.731-1.375,1.517-2.046,1.512s-2.092-.781-2.1-1.512L1.762,63.38C1.746,61.2,2.7,59.4,3.89,59.407s3.8,1.81,3.753,3.985Z" transform="translate(113.182 -43.219)" fill="#b99a6a"/>
      <path id="パス_14180" data-name="パス 14180" d="M6.367,124.723c-.015.731-1.375,1.517-2.046,1.512s-2.092-.781-2.1-1.512L1.762,63.38C1.746,61.2,2.7,59.4,3.89,59.407s3.8,1.81,3.753,3.985Z" transform="translate(27.912 -4.978)" fill="#b99a6a"/>
      <path id="パス_14160" data-name="パス 14160" d="M6.367,124.723c-.015.731-1.375,1.517-2.046,1.512s-2.092-.781-2.1-1.512L1.762,63.38C1.746,61.2,2.7,59.4,3.89,59.407s3.8,1.81,3.753,3.985Z" transform="translate(-0.655 -22.081)" fill="#b99a6a"/>
      <path id="パス_14162" data-name="パス 14162" d="M148.776,45.337a2.669,2.669,0,0,1-1.382,4.608L37.841,69.875c-2.8.513-7.208.315-9.677-1.267L2.014,53.286c-2.865-1.613-2.8-6.71,1.023-7.1L112.544,27.21a15.406,15.406,0,0,1,9.574,1.945Z" transform="translate(-0.001 -10.059)" fill="#b99a6a"/>
      <path id="パス_14163" data-name="パス 14163" d="M147.872,43.09c2.432,1.482,2.18,3.1-.56,3.587L37.194,66.428a15.677,15.677,0,0,1-9.4-1.8L2.548,49.246c-2.432-1.482-2.18-3.1.56-3.586L113.226,25.908a15.676,15.676,0,0,1,9.4,1.8Z" transform="translate(-0.326 -9.576)" fill="#c3a77b"/>
      <rect id="長方形_24439" data-name="長方形 24439" width="1.228" height="18.413" transform="translate(119.933 7.656) rotate(-10.729)" fill="#ffea46"/>
      <rect id="長方形_24440" data-name="長方形 24440" width="1.229" height="1.071" transform="translate(120.088 8.476) rotate(-10.724)" fill="#e2e5d8"/>
      <rect id="長方形_24441" data-name="長方形 24441" width="1.229" height="0.639" transform="translate(120.467 10.475) rotate(-10.729)" fill="#f99902"/>
      <rect id="長方形_24442" data-name="長方形 24442" width="22.116" height="1.229" transform="matrix(0.372, -0.928, 0.928, 0.372, 118.609, 26.581)" fill="#f99902"/>
      <rect id="長方形_24443" data-name="長方形 24443" width="1.287" height="1.229" transform="matrix(0.372, -0.928, 0.928, 0.372, 125.991, 8.18)" fill="#f8ced2"/>
      <rect id="長方形_24444" data-name="長方形 24444" width="0.767" height="1.229" transform="translate(125.274 9.966) rotate(-68.117)" fill="#f8ced2"/>
      <path id="パス_14164" data-name="パス 14164" d="M190.218,21.657c1.138,4.448,1.534,8.188.885,8.355s-2.1-3.3-3.236-7.753-1.534-8.188-.885-8.355,2.1,3.3,3.236,7.753" transform="translate(-69.384 -5.166)" fill="#9fa198"/>
      <path id="パス_14165" data-name="パス 14165" d="M178.472,7.353c-1.323.677-1.473,3.028-.335,5.252s3.131,3.479,4.454,2.8,1.473-3.028.336-5.251-3.131-3.48-4.454-2.8m3.786,7.4c-.93.475-2.332-.407-3.132-1.971s-.694-3.218.236-3.693,2.332.407,3.132,1.971.694,3.218-.236,3.693" transform="translate(-65.928 -2.665)" fill="#e2e5d8"/>
      <path id="パス_14166" data-name="パス 14166" d="M187.049,8.987c.071,2.5,1.332,4.487,2.817,4.445s2.631-2.1,2.56-4.6-1.331-4.488-2.817-4.446-2.631,2.1-2.56,4.6m.816.588c-.05-1.756.756-3.2,1.8-3.233s1.931,1.37,1.98,3.126-.757,3.2-1.8,3.233-1.931-1.37-1.98-3.126" transform="translate(-69.524 -1.631)" fill="#e2e5d8"/>
      <path id="パス_14167" data-name="パス 14167" d="M192.459,36.5a1.422,1.422,0,0,1-1.452,1.085h-6.024A1.423,1.423,0,0,1,183.53,36.5L182.1,26.119a1.688,1.688,0,0,1,1.583-2.053h8.629a1.687,1.687,0,0,1,1.583,2.053Z" transform="translate(-67.677 -8.945)" fill="#003f67"/>
      <path id="パス_14168" data-name="パス 14168" d="M100.767,38.691a1.186,1.186,0,0,0,1.521,1.481l35.382-7.482a3.108,3.108,0,0,0,2.225-2.273l4.835-25.779a1.186,1.186,0,0,0-1.521-1.481l-35.382,7.483a3.105,3.105,0,0,0-2.225,2.273Z" transform="translate(-37.442 -1.158)" fill="#999d9d"/>
      <path id="パス_14169" data-name="パス 14169" d="M135.175,30.021a2.317,2.317,0,1,0,1.776-2.753,2.317,2.317,0,0,0-1.776,2.753" transform="translate(-50.224 -10.116)" fill="#003f67"/>
      <path id="パス_14170" data-name="パス 14170" d="M131.508,42.7c.794.6.7,1.253-.217,1.447l-36.713,7.8a4.387,4.387,0,0,1-3.1-.741l-8.245-6.25c-.794-.6-.7-1.253.217-1.448l36.713-7.8a4.383,4.383,0,0,1,3.1.741Z" transform="translate(-30.736 -13.25)" fill="#999d9d"/>
      <path id="パス_14171" data-name="パス 14171" d="M79.465,8a3.21,3.21,0,1,1-4.506.554A3.21,3.21,0,0,1,79.465,8" transform="translate(-27.609 -2.72)" fill="#ffea46"/>
      <path id="パス_14172" data-name="パス 14172" d="M79.551,4.188C75.358.912,70.273.416,68.193,3.078s-.366,7.476,3.827,10.752l.165.127,7.53-9.639-.163-.129" transform="translate(-25.018 -0.508)" fill="#003f67"/>
      <path id="パス_14173" data-name="パス 14173" d="M70.261,1.727a2.156,2.156,0,0,1-.016,3l-.182.234a2.158,2.158,0,0,1-2.907.742L65.348,4.291a2.156,2.156,0,0,1,.016-3l.183-.234A2.157,2.157,0,0,1,68.454.315Z" transform="translate(-24.069 0)" fill="#003f67"/>
      <rect id="長方形_24445" data-name="長方形 24445" width="22.274" height="1.209" transform="translate(29.795 18.63) rotate(-52.474)" fill="#003f67"/>
      <rect id="長方形_24446" data-name="長方形 24446" width="1.208" height="22.509" transform="translate(29.61 17.886) rotate(-12.223)" fill="#003f67"/>
      <path id="パス_14174" data-name="パス 14174" d="M49.553,28.7a1.841,1.841,0,1,1-1.842-1.841A1.841,1.841,0,0,1,49.553,28.7" transform="translate(-17.05 -9.982)" fill="#003f67"/>
      <path id="パス_14175" data-name="パス 14175" d="M59.027,62.975c.526,1.33-1.994,2.8-5.627,3.289s-7.006-.2-7.532-1.528,1.994-2.8,5.627-3.289,7.006.2,7.532,1.528" transform="translate(-17.023 -22.781)" fill="#003f67"/>
      <path id="パス_14176" data-name="パス 14176" d="M51.924,67.547c-.261,0-.5-.008-.714-.024a7.227,7.227,0,0,1-3.484-1.13.079.079,0,0,1,.1-.121,7.058,7.058,0,0,0,3.4,1.095,17.4,17.4,0,0,0,5.391-.622.078.078,0,1,1,.048.15,17.791,17.791,0,0,1-4.737.653" transform="translate(-17.729 -24.626)" fill="#ffdbb0"/>
      <path id="パス_14177" data-name="パス 14177" d="M54.654,63.062A.078.078,0,0,1,54.579,63c-.028-.1-.072-.3-.114-.486-.026-.117-.052-.232-.072-.316a.078.078,0,1,1,.152-.036c.02.084.046.2.073.319.042.188.085.382.112.478a.078.078,0,0,1-.054.1.065.065,0,0,1-.021,0" transform="translate(-20.217 -23.084)" fill="#ffdbb0"/>
    </g>
  </g>
</svg>
