<svg xmlns="http://www.w3.org/2000/svg" xmlns:xlink="http://www.w3.org/1999/xlink" viewBox="0 0 79.824 117.175">
  <defs>
    <clipPath id="clip-path">
      <rect id="長方形_24452" data-name="長方形 24452" width="79.824" height="117.175" fill="none"/>
    </clipPath>
  </defs>
  <g id="グループ_13888" data-name="グループ 13888" transform="translate(0 0)">
    <g id="グループ_13885" data-name="グループ 13885" transform="translate(0 0)" clip-path="url(#clip-path)">
      <path id="パス_14239" data-name="パス 14239" d="M4.09,45.971c4.384-6.818,8.009-9.084,10.2-10.2,3.567-1.819,9.5-4.872,14.1-1.971,3.524,2.223,7.032,8.616,3.786,15.655-1.25,2.711-4.6,6.738-19.471,7.069-8.68.192-11.076,4.527-12,2.883C-.76,56.79,1.989,49.236,4.09,45.971" transform="translate(0.059 6.598)" fill="#7c9c81"/>
      <path id="パス_14240" data-name="パス 14240" d="M22.323,55.541c8.292-4.18,22.795-4.1,31.088.706s5.723,13.2,4.729,18.837-2.347,17.78-3.84,23.122c-.887,3.179-4.371,8.34-13.833,8.34-7.454,0-15.489-1.117-18.143-5.429s-5.565-23.032-7.3-29.521a13.514,13.514,0,0,1,7.3-16.054" transform="translate(2.935 10.629)" fill="#d8735b"/>
      <path id="パス_14241" data-name="パス 14241" d="M7.177,17.766c5.5-3.171,8.834-3.446,10.763-3.436,3.135.014,8.36.02,10.517,3.689a9.772,9.772,0,0,1-2.986,12.254c-1.842,1.438-5.616,3.04-16.086-2.072C3.278,25.22.054,27.376,0,25.9c-.083-2.347,4.541-6.616,7.176-8.134" transform="translate(0 2.901)" fill="#7c9c81"/>
      <path id="パス_14242" data-name="パス 14242" d="M57.778,18.971c-6.2-1.163-9.25-.67-10.939-.262-2.747.663-7.332,1.753-7.636,4.868-.233,2.389,2.114,6.57,7.932,8.289,2.241.663,6.249,1.042,13.227-4.849,4.071-3.438,7.836-2.541,7.242-3.624-.944-1.723-6.855-3.866-9.826-4.422" transform="translate(7.931 3.694)" fill="#7c9c81"/>
      <path id="パス_14243" data-name="パス 14243" d="M20.112.411c5.126-.934,10.4-.07,11.856.546,2.372,1,5.044,2.372,5.3,6.137.182,2.673-2.263,8.176-7.229,8.562C25.618,16,22.862,13.2,20.2,9.15c-3.06-4.666-6.523-5.126-6.654-6.331-.126-1.168,2.008-1.578,6.561-2.408" transform="translate(2.741 0)" fill="#7c9c81"/>
      <path id="パス_14244" data-name="パス 14244" d="M49.211,5.258a28.865,28.865,0,0,0-11.4,1.623c-2.138,1.069-4.507,2.479-4.154,5.652.25,2.252,3.5,6.612,8.367,6.445,4.337-.148,6.56-2.758,8.488-6.406,2.221-4.2,5.5-4.927,5.436-5.947-.064-.988-2.2-1.121-6.739-1.367" transform="translate(6.805 1.057)" fill="#7c9c81"/>
      <path id="パス_14245" data-name="パス 14245" d="M64.343,37.014C57.77,33.355,50.16,32.09,47.88,32.252c-3.708.266-8,.9-10.1,5.93-1.49,3.57-.7,12.23,5.907,15.065,5.884,2.523,10.953-.024,16.467-4.327,6.352-4.959,11.3-3.98,12.04-5.566.715-1.538-2.013-3.09-7.853-6.34" transform="translate(7.517 6.525)" fill="#7c9c81"/>
      <path id="パス_14246" data-name="パス 14246" d="M32.2,66.022a1.218,1.218,0,0,1-.148-.008A1.2,1.2,0,0,1,31,64.673c1.254-10.179.766-22.651.372-32.671-.316-8.107-.568-14.509.082-17.962a1.2,1.2,0,1,1,2.363.444c-.6,3.188-.34,9.785-.04,17.425.4,10.107.889,22.685-.391,33.058A1.2,1.2,0,0,1,32.2,66.022" transform="translate(6.273 2.643)" fill="#7c6351"/>
      <path id="パス_14247" data-name="パス 14247" d="M33.909,36.763a1.2,1.2,0,0,1-1.2-1.133c-.188-3.237-4.051-7.709-7.379-9.545a1.2,1.2,0,0,1,1.16-2.105c3.968,2.188,8.378,7.335,8.619,11.51a1.2,1.2,0,0,1-1.13,1.271h-.071" transform="translate(5.001 4.824)" fill="#7c6351"/>
      <path id="パス_14248" data-name="パス 14248" d="M32.851,48.52h-.024a1.2,1.2,0,0,1-1.178-1.225c.124-6.408,5.646-17.057,7.945-19.838a1.2,1.2,0,1,1,1.853,1.533c-2.15,2.6-7.286,12.786-7.393,18.351a1.2,1.2,0,0,1-1.2,1.18" transform="translate(6.405 5.469)" fill="#7c6351"/>
      <path id="パス_14249" data-name="パス 14249" d="M39.468,34.345a34.351,34.351,0,0,0-1.6-9.731c-1.129-3.071-3.6-6.351-6.537-5.251-2.084.78-4.747,2.573-3.852,9.944.557,4.59,4.551,6.943,6.523,8.371,3.291,2.383,4.028,5.014,4.641,4.569.382-.278.81-4.749.826-7.9" transform="translate(5.525 3.875)" fill="#7c9c81"/>
      <path id="パス_14250" data-name="パス 14250" d="M20.383,58.358a9.392,9.392,0,0,1,6.8-1.124c2.217.382,5.171-.137,8.266-.546s7.639-.786,10.247.188c3.42,1.278,7.089.715,8.085,2.352,1.044,1.717-.828,3.006-3.316,3.821s-9.762,1.97-14.837,2.432c-4.3.392-8.693-.545-12.59-1.431s-6.191-3.127-2.654-5.692" transform="translate(3.771 11.387)" fill="#7c6351"/>
      <path id="パス_14251" data-name="パス 14251" d="M47.076,59.415c-.418-7.111-1.822-11.592-3.111-13.331-2.1-2.828-4.786-5.931-9.87-5.054-3.608.624-10.128,5.654-9.032,12.376.975,5.983,6.046,7.722,11.827,10.956,4.921,2.753,7.779,4.521,9.422,4.3,1.592-.209,1.136-2.935.765-9.252" transform="translate(5.048 8.274)" fill="#7c9c81"/>
      <path id="パス_14252" data-name="パス 14252" d="M35.621,70.05a50.092,50.092,0,0,1-15.153-2.121.451.451,0,0,1,.285-.856c4.972,1.658,11.982,2.384,18.736,1.951a49.472,49.472,0,0,0,13.6-2.844L53.622,66a.451.451,0,0,1,.286.856l-.524.18a51.01,51.01,0,0,1-13.836,2.892c-1.3.085-2.619.126-3.927.126" transform="translate(4.08 13.353)" fill="#eadfca"/>
      <path id="パス_14253" data-name="パス 14253" d="M36.209,75.929a46.242,46.242,0,0,1-5.221-.266.452.452,0,0,1-.394-.5.439.439,0,0,1,.5-.4c5.654.663,14.988-.024,17.521-1.288a.451.451,0,1,1,.4.807c-1.986.991-7.622,1.642-12.808,1.642" transform="translate(6.191 14.863)" fill="#eadfca"/>
      <path id="パス_14254" data-name="パス 14254" d="M40.025,83.036A68.1,68.1,0,0,1,26.974,81.7a.452.452,0,0,1-.349-.534.446.446,0,0,1,.535-.349c6.016,1.266,17.045,2.152,21.608.032a.451.451,0,0,1,.381.818c-2.132.99-5.494,1.37-9.125,1.37" transform="translate(5.387 16.355)" fill="#eadfca"/>
      <path id="パス_14255" data-name="パス 14255" d="M37.425,89.719a19,19,0,0,1-6.058-.822.451.451,0,0,1,.3-.851c4.531,1.592,13.1.406,15.834-.814a.45.45,0,1,1,.367.822,30.777,30.777,0,0,1-10.442,1.665" transform="translate(6.287 17.647)" fill="#eadfca"/>
      <path id="パス_14256" data-name="パス 14256" d="M35.169,79.426h-.042a.452.452,0,0,1-.406-.493c.059-.618.028-1.885,0-3.112-.031-1.324-.065-2.693,0-3.535a.442.442,0,0,1,.483-.415.452.452,0,0,1,.416.485c-.061.8-.029,2.141,0,3.444s.061,2.548,0,3.22a.451.451,0,0,1-.448.408" transform="translate(7.019 14.546)" fill="#eadfca"/>
      <path id="パス_14257" data-name="パス 14257" d="M41.537,88.091a.435.435,0,0,1-.088-.008.453.453,0,0,1-.355-.531c.23-1.148-.168-11.939-.381-14.993a.452.452,0,0,1,.418-.481.446.446,0,0,1,.481.418c.167,2.4.644,13.848.367,15.233a.451.451,0,0,1-.442.362" transform="translate(8.24 14.588)" fill="#eadfca"/>
      <path id="パス_14258" data-name="パス 14258" d="M37.2,93.661a.452.452,0,0,1-.451-.429c-.053-1.077-.253-9.9,0-12.321a.445.445,0,0,1,.5-.4.453.453,0,0,1,.4.5c-.242,2.291-.067,10.807,0,12.181a.451.451,0,0,1-.428.473H37.2" transform="translate(7.413 16.294)" fill="#eadfca"/>
      <path id="パス_14259" data-name="パス 14259" d="M43.129,93.508a.461.461,0,0,1-.159-.029.453.453,0,0,1-.265-.581,20.706,20.706,0,0,0,.689-7.779.452.452,0,0,1,.428-.474.434.434,0,0,1,.474.428c.184,3.653-.06,6.316-.745,8.143a.452.452,0,0,1-.422.292" transform="translate(8.637 17.131)" fill="#eadfca"/>
      <path id="パス_14260" data-name="パス 14260" d="M41.372,60.912a.3.3,0,0,1-.3-.289c-.159-3.806-3.916-11.085-7.539-13.314a.3.3,0,0,1,.315-.512c3.832,2.358,7.656,9.774,7.825,13.8a.3.3,0,0,1-.287.313Z" transform="translate(6.758 9.463)" fill="#eadfca"/>
      <path id="パス_14261" data-name="パス 14261" d="M45.25,24.742a.3.3,0,0,1-.2-.525c3.516-3.137,11.5-4.42,15.536-2.491a.3.3,0,1,1-.259.542c-3.86-1.842-11.506-.61-14.878,2.4a.3.3,0,0,1-.2.077" transform="translate(9.097 4.213)" fill="#eadfca"/>
      <path id="パス_14262" data-name="パス 14262" d="M31.1,9.629a.3.3,0,0,1-.273-.174c-1.957-4.208-6.118-5.511-11.763-6.171a.3.3,0,1,1,.071-.6C24.2,3.278,29.178,4.478,31.378,9.2a.3.3,0,0,1-.147.4.3.3,0,0,1-.126.028" transform="translate(3.806 0.544)" fill="#eadfca"/>
      <path id="パス_14263" data-name="パス 14263" d="M4.311,52.211a.3.3,0,0,1-.2-.076.3.3,0,0,1-.024-.426l.317-.357C7.828,47.5,15.845,38.482,23.877,38.375h0a.3.3,0,0,1,0,.6c-7.766.1-15.659,8.983-19.029,12.775l-.319.36a.3.3,0,0,1-.225.1" transform="translate(0.812 7.767)" fill="#eadfca"/>
      <path id="パス_14264" data-name="パス 14264" d="M4.311,22.406a.3.3,0,0,1-.155-.558c6.317-3.81,15.811-4.08,19.919-.563a.3.3,0,0,1-.39.457c-3.868-3.309-13.207-3.01-19.219.62a.3.3,0,0,1-.155.043" transform="translate(0.812 3.807)" fill="#eadfca"/>
      <path id="パス_14265" data-name="パス 14265" d="M40.079,13.208a.317.317,0,0,1-.138-.034.3.3,0,0,1-.129-.405c1.557-3.012,4.5-4.384,8.755-5.624a.3.3,0,0,1,.168.577c-4.1,1.2-6.929,2.5-8.389,5.322a.3.3,0,0,1-.267.164" transform="translate(8.051 1.444)" fill="#eadfca"/>
      <path id="パス_14266" data-name="パス 14266" d="M44.936,41.294a.3.3,0,0,1-.093-.587c3.284-1.067,13.812-1.812,19.009,0a.3.3,0,1,1-.2.568c-5.184-1.808-15.745-.932-18.626,0a.31.31,0,0,1-.093.014" transform="translate(9.034 8.017)" fill="#eadfca"/>
      <path id="パス_14267" data-name="パス 14267" d="M35.727,35.429a.3.3,0,0,1-.3-.265,33.032,33.032,0,0,0-3.285-9.558.3.3,0,1,1,.535-.273,33.613,33.613,0,0,1,3.346,9.759.3.3,0,0,1-.262.334.182.182,0,0,1-.036,0" transform="translate(6.499 5.095)" fill="#eadfca"/>
    </g>
  </g>
</svg>
