<svg xmlns="http://www.w3.org/2000/svg" viewBox="0 0 62 62">
  <g id="グループ_32285" data-name="グループ 32285" transform="translate(-81 -48)">
    <circle id="楕円形_83" data-name="楕円形 83" cx="31" cy="31" r="31" transform="translate(81 48)" fill="#ffea46"/>
    <path id="family_history_24dp_FILL0_wght100_GRAD0_opsz24" d="M168.342-817.646a4.034,4.034,0,0,1-2.967-1.212,4.036,4.036,0,0,1-1.212-2.967,4.045,4.045,0,0,1,1.053-2.792,4.017,4.017,0,0,1,2.634-1.352v-3.793h-7.515v-4.881H157V-842.3h7.655v7.655h-3.336v3.9h14.047v-3.933a4.017,4.017,0,0,1-2.634-1.352,4.045,4.045,0,0,1-1.053-2.792,4.035,4.035,0,0,1,1.212-2.967A4.036,4.036,0,0,1,175.858-843a4.034,4.034,0,0,1,2.967,1.212,4.036,4.036,0,0,1,1.212,2.967,4.045,4.045,0,0,1-1.053,2.792,4.017,4.017,0,0,1-2.634,1.352v4.916h-7.515v3.793a4.017,4.017,0,0,1,2.634,1.352,4.045,4.045,0,0,1,1.053,2.792,4.035,4.035,0,0,1-1.212,2.967A4.036,4.036,0,0,1,168.342-817.646Zm7.523-17.98a3.062,3.062,0,0,0,2.258-.938,3.1,3.1,0,0,0,.931-2.265,3.062,3.062,0,0,0-.938-2.258,3.1,3.1,0,0,0-2.265-.931,3.062,3.062,0,0,0-2.258.938,3.1,3.1,0,0,0-.931,2.265,3.062,3.062,0,0,0,.938,2.258A3.1,3.1,0,0,0,175.865-835.626Zm-17.882,0h5.689v-5.689h-5.689Zm10.367,17a3.062,3.062,0,0,0,2.258-.938,3.1,3.1,0,0,0,.931-2.265,3.062,3.062,0,0,0-.938-2.258,3.1,3.1,0,0,0-2.265-.931,3.062,3.062,0,0,0-2.258.938,3.1,3.1,0,0,0-.931,2.265,3.062,3.062,0,0,0,.938,2.258A3.1,3.1,0,0,0,168.35-818.629ZM160.828-838.47ZM175.857-838.821ZM168.343-821.825Z" transform="translate(-56.518 911.341)" fill="#555"/>
  </g>
</svg>
