<svg xmlns="http://www.w3.org/2000/svg" viewBox="0 0 62 62">
  <g id="グループ_32287" data-name="グループ 32287" transform="translate(-81 -48)">
    <circle id="楕円形_83" data-name="楕円形 83" cx="31" cy="31" r="31" transform="translate(81 48)" fill="#ffea46"/>
    <g id="グループ_13893" data-name="グループ 13893">
      <path id="currency_yen_24dp_FILL0_wght100_GRAD0_opsz24" d="M267.284-775v-3.039h-4.221v-.591h4.221V-781.2h-4.221v-.591h3.883L263-788h.718l3.862,6.1,3.862-6.1h.718l-3.947,6.205H272.1v.591h-4.221v2.575H272.1v.591h-4.221V-775Z" transform="translate(-155.58 860.5)" fill="#555" stroke="#555" stroke-width="0.4"/>
      <path id="currency_exchange_24dp_FILL0_wght100_GRAD0_opsz24" d="M100.979-840.4a13.362,13.362,0,0,1-7.914-2.454A14.092,14.092,0,0,1,88-849.468v4.944H87v-6.687h6.687v1H88.814a12.3,12.3,0,0,0,4.66,6.4,12.6,12.6,0,0,0,7.505,2.419,12.666,12.666,0,0,0,4.749-.889,12.617,12.617,0,0,0,3.931-2.472,12.9,12.9,0,0,0,2.792-3.771,13.018,13.018,0,0,0,1.3-4.749h1a13.292,13.292,0,0,1-1.334,5.051,14.327,14.327,0,0,1-2.988,4.091,13.581,13.581,0,0,1-4.268,2.739A13.546,13.546,0,0,1,100.979-840.4ZM87.213-855.124a14.28,14.28,0,0,1,1.441-5.247,13.98,13.98,0,0,1,3.059-4.073,13.458,13.458,0,0,1,4.251-2.632,13.741,13.741,0,0,1,5.015-.925,13.607,13.607,0,0,1,7.914,2.472,13.308,13.308,0,0,1,5.069,6.741v-5.087h1v6.687h-6.687v-1h4.873a12.077,12.077,0,0,0-4.571-6.332,12.538,12.538,0,0,0-7.594-2.49,12.6,12.6,0,0,0-4.589.854,12.924,12.924,0,0,0-3.948,2.4,12.9,12.9,0,0,0-2.881,3.735,12.634,12.634,0,0,0-1.352,4.891Z" transform="translate(11.021 933.199)" fill="#555"/>
    </g>
  </g>
</svg>
