<svg xmlns="http://www.w3.org/2000/svg" viewBox="0 0 62 62">
  <g id="グループ_32288" data-name="グループ 32288" transform="translate(-81 -48)">
    <circle id="楕円形_83" data-name="楕円形 83" cx="31" cy="31" r="31" transform="translate(81 48)" fill="#ffea46"/>
    <path id="live_help_24dp_FILL0_wght100_GRAD0_opsz24" d="M182.918-810.085a.888.888,0,0,0,.654-.265.888.888,0,0,0,.265-.654.888.888,0,0,0-.265-.654.888.888,0,0,0-.654-.265.888.888,0,0,0-.654.265A.888.888,0,0,0,182-811a.888.888,0,0,0,.265.654A.888.888,0,0,0,182.918-810.085Zm-.565-4.452h.989a5.6,5.6,0,0,1,.106-.742,2.368,2.368,0,0,1,.247-.636,4.163,4.163,0,0,1,.459-.654q.283-.336.671-.724a9.547,9.547,0,0,0,1.4-1.678,3.092,3.092,0,0,0,.442-1.643,3.259,3.259,0,0,0-1.1-2.562,3.762,3.762,0,0,0-2.579-.972,3.848,3.848,0,0,0-2.385.76,5.112,5.112,0,0,0-1.5,1.714l.989.424a4.106,4.106,0,0,1,1.025-1.36,2.679,2.679,0,0,1,1.8-.548,2.569,2.569,0,0,1,2.1.795,2.692,2.692,0,0,1,.654,1.749,2.251,2.251,0,0,1-.389,1.307,7.415,7.415,0,0,1-1.025,1.166q-.495.495-.866.936a6.259,6.259,0,0,0-.618.866,2.8,2.8,0,0,0-.336.866A4.769,4.769,0,0,0,182.353-814.537Zm.53,11.766-3.463-3.463h-5.3a2.059,2.059,0,0,1-1.519-.6,2.059,2.059,0,0,1-.6-1.519V-825.88a2.059,2.059,0,0,1,.6-1.519,2.059,2.059,0,0,1,1.519-.6h17.526a2.059,2.059,0,0,1,1.519.6,2.059,2.059,0,0,1,.6,1.519v17.526a2.059,2.059,0,0,1-.6,1.519,2.059,2.059,0,0,1-1.519.6h-5.3Zm-8.763-4.452h5.724l3.039,3.039,3.039-3.039h5.724a1.1,1.1,0,0,0,.813-.318,1.1,1.1,0,0,0,.318-.813V-825.88a1.1,1.1,0,0,0-.318-.813,1.1,1.1,0,0,0-.813-.318H174.12a1.1,1.1,0,0,0-.813.318,1.1,1.1,0,0,0-.318.813v17.526a1.1,1.1,0,0,0,.318.813A1.1,1.1,0,0,0,174.12-807.223ZM182.883-817.117Z" transform="translate(-70.883 896.386)" fill="#555"/>
  </g>
</svg>
