<svg xmlns="http://www.w3.org/2000/svg"  viewBox="0 0 135 360">
  <g id="グループ_13776" data-name="グループ 13776" transform="translate(12056 8704)">
    <text id="お任せください" transform="translate(-12017 -8704)" fill="#555" font-size="40" font-family="HiraginoSans-W6, Hiragino Sans"><tspan x="0" y="35">お</tspan><tspan x="0" y="75">任</tspan><tspan x="0" y="115">せ</tspan><tspan x="0" y="155">く</tspan><tspan x="0" y="195">だ</tspan><tspan x="0" y="235">さ</tspan><tspan x="0" y="275">い</tspan></text>
    <text id="地元新潟_の相続相談" data-name="地元新潟
の相続相談" transform="translate(-11961 -8704)" fill="#555" font-size="40" font-family="HiraginoSans-W6, Hiragino Sans"><tspan x="0" y="35">地</tspan><tspan x="0" y="75">元</tspan><tspan x="0" y="115">新</tspan><tspan x="0" y="155">潟</tspan><tspan x="0" y="195">の</tspan><tspan x="0" y="235">相</tspan><tspan x="0" y="275">続</tspan><tspan x="0" y="315">相</tspan><tspan x="0" y="355">談</tspan></text>
    <text id="運営_A_X_コンサルティング株式会社" data-name="運営
｜
A
X
コンサルティング株式会社" transform="translate(-12056 -8704)" fill="#555" font-size="14" font-family="Noto Sans JP" font-weight="500"><tspan x="-7" y="16">運</tspan><tspan x="-7" y="31">営</tspan><tspan x="-7" y="46">｜</tspan><tspan x="-4.355" y="61">A</tspan><tspan x="-4.174" y="76">X</tspan><tspan x="-7" y="91">コ</tspan><tspan x="-7" y="106">ン</tspan><tspan x="-7" y="121">サ</tspan><tspan x="-7" y="136">ル</tspan><tspan x="-7" y="151">テ</tspan><tspan x="-7" y="166">ィ</tspan><tspan x="-7" y="181">ン</tspan><tspan x="-7" y="196">グ</tspan><tspan x="-7" y="211">株</tspan><tspan x="-7" y="226">式</tspan><tspan x="-7" y="241">会</tspan><tspan x="-7" y="256">社</tspan></text>
  </g>
</svg>
