<svg xmlns="http://www.w3.org/2000/svg" xmlns:xlink="http://www.w3.org/1999/xlink"  viewBox="0 0 134 358">
  <defs>
    <filter id="地元新潟_の相続相談" x="80" y="0" width="54" height="358" filterUnits="userSpaceOnUse">
      <feOffset input="SourceAlpha"/>
      <feGaussianBlur stdDeviation="3" result="blur"/>
      <feFlood flood-color="#fff" flood-opacity="0.161"/>
      <feComposite operator="in" in2="blur"/>
      <feComposite in="SourceGraphic"/>
    </filter>
  </defs>
  <g id="グループ_13911" data-name="グループ 13911" transform="translate(12056 8713)">
    <text id="お任せください" transform="translate(-12019 -8704)" fill="#555" font-size="36" font-family="HiraginoSans-W6, Hiragino Sans"><tspan x="0" y="32">お</tspan><tspan x="0" y="70">任</tspan><tspan x="0" y="108">せ</tspan><tspan x="0" y="146">く</tspan><tspan x="0" y="184">だ</tspan><tspan x="0" y="222">さ</tspan><tspan x="0" y="260">い</tspan></text>
    <g transform="matrix(1, 0, 0, 1, -12056, -8713)" filter="url(#地元新潟_の相続相談)">
      <text id="地元新潟_の相続相談-2" data-name="地元新潟
の相続相談" transform="translate(89 9)" fill="#555" font-size="36" font-family="HiraginoSans-W6, Hiragino Sans"><tspan x="0" y="32">地</tspan><tspan x="0" y="70">元</tspan><tspan x="0" y="108">新</tspan><tspan x="0" y="146">潟</tspan><tspan x="0" y="184">の</tspan><tspan x="0" y="222">相</tspan><tspan x="0" y="260">続</tspan><tspan x="0" y="298">相</tspan><tspan x="0" y="336">談</tspan></text>
    </g>
    <text id="運営_A_X_コンサルティング株式会社" data-name="運営
｜
A
X
コンサルティング株式会社" transform="translate(-12056 -8704)" fill="#555" font-size="14" font-family="Noto Sans JP" font-weight="500"><tspan x="-7" y="16">運</tspan><tspan x="-7" y="31">営</tspan><tspan x="-7" y="46">｜</tspan><tspan x="-4.355" y="61">A</tspan><tspan x="-4.174" y="76">X</tspan><tspan x="-7" y="91">コ</tspan><tspan x="-7" y="106">ン</tspan><tspan x="-7" y="121">サ</tspan><tspan x="-7" y="136">ル</tspan><tspan x="-7" y="151">テ</tspan><tspan x="-7" y="166">ィ</tspan><tspan x="-7" y="181">ン</tspan><tspan x="-7" y="196">グ</tspan><tspan x="-7" y="211">株</tspan><tspan x="-7" y="226">式</tspan><tspan x="-7" y="241">会</tspan><tspan x="-7" y="256">社</tspan></text>
  </g>
</svg>
