<svg xmlns="http://www.w3.org/2000/svg" xmlns:xlink="http://www.w3.org/1999/xlink" width="134" height="358" viewBox="0 0 134 358"><defs><filter id="a" x="80" y="0" width="54" height="358" filterUnits="userSpaceOnUse"><feOffset input="SourceAlpha"/><feGaussianBlur stdDeviation="3" result="b"/><feFlood flood-color="#fff" flood-opacity="0.161"/><feComposite operator="in" in2="b"/><feComposite in="SourceGraphic"/></filter></defs><g transform="translate(12056 8713)"><text transform="translate(-12019 -8704)" fill="#555" font-size="36" font-family="HiraginoSans-W6, Hiragino Sans"><tspan x="0" y="32">お</tspan><tspan x="0" y="70">任</tspan><tspan x="0" y="108">せ</tspan><tspan x="0" y="146">く</tspan><tspan x="0" y="184">だ</tspan><tspan x="0" y="222">さ</tspan><tspan x="0" y="260">い</tspan></text><g transform="matrix(1, 0, 0, 1, -12056, -8713)" filter="url(#a)"><text transform="translate(89 9)" fill="#555" font-size="36" font-family="HiraginoSans-W6, Hiragino Sans"><tspan x="0" y="32">地</tspan><tspan x="0" y="70">元</tspan><tspan x="0" y="108">新</tspan><tspan x="0" y="146">潟</tspan><tspan x="0" y="184">の</tspan><tspan x="0" y="222">相</tspan><tspan x="0" y="260">続</tspan><tspan x="0" y="298">相</tspan><tspan x="0" y="336">談</tspan></text></g><text transform="translate(-12056 -8704)" fill="#555" font-size="14" font-family="NotoSansJP-Medium, Noto Sans JP" font-weight="500"><tspan x="0" y="16">運</tspan><tspan x="0" y="31">営</tspan><tspan x="0" y="46">｜</tspan><tspan x="0" y="61">株</tspan><tspan x="0" y="76">式</tspan><tspan x="0" y="91">会</tspan><tspan x="0" y="106">社</tspan><tspan x="0" y="121">ソ</tspan><tspan x="0" y="136">リ</tspan><tspan x="0" y="151">マ</tspan><tspan x="0" y="166">チ</tspan><tspan x="0" y="181">経</tspan><tspan x="0" y="196">営</tspan></text></g></svg>