<svg xmlns="http://www.w3.org/2000/svg" width="135" height="360" viewBox="0 0 135 360"><g transform="translate(12056 8704)"><text transform="translate(-12017 -8704)" fill="#555" font-size="40" font-family="HiraginoSans-W6, Hiragino Sans"><tspan x="0" y="35">お</tspan><tspan x="0" y="75">任</tspan><tspan x="0" y="115">せ</tspan><tspan x="0" y="155">く</tspan><tspan x="0" y="195">だ</tspan><tspan x="0" y="235">さ</tspan><tspan x="0" y="275">い</tspan></text><text transform="translate(-11961 -8704)" fill="#555" font-size="40" font-family="HiraginoSans-W6, Hiragino Sans"><tspan x="0" y="35">地</tspan><tspan x="0" y="75">元</tspan><tspan x="0" y="115">新</tspan><tspan x="0" y="155">潟</tspan><tspan x="0" y="195">の</tspan><tspan x="0" y="235">相</tspan><tspan x="0" y="275">続</tspan><tspan x="0" y="315">相</tspan><tspan x="0" y="355">談</tspan></text><text transform="translate(-12056 -8704)" fill="#555" font-size="14" font-family="NotoSansJP-Medium, Noto Sans JP" font-weight="500"><tspan x="0" y="16">運</tspan><tspan x="0" y="31">営</tspan><tspan x="0" y="46">｜</tspan><tspan x="0" y="61">株</tspan><tspan x="0" y="76">式</tspan><tspan x="0" y="91">会</tspan><tspan x="0" y="106">社</tspan><tspan x="0" y="121">ソ</tspan><tspan x="0" y="136">リ</tspan><tspan x="0" y="151">マ</tspan><tspan x="0" y="166">チ</tspan><tspan x="0" y="181">経</tspan><tspan x="0" y="196">営</tspan></text></g></svg>